%TF.GenerationSoftware,Altium Limited,Altium Designer,23.5.1 (21)*%
G04 Layer_Physical_Order=2*
G04 Layer_Color=16711680*
%FSLAX45Y45*%
%MOMM*%
%TF.SameCoordinates,8A25645B-EB28-4A57-872E-1D95D4218FA1*%
%TF.FilePolarity,Positive*%
%TF.FileFunction,Copper,L2,Bot,Signal*%
%TF.Part,Single*%
G01*
G75*
%TA.AperFunction,ComponentPad*%
%ADD17R,1.52400X1.52400*%
%ADD18C,1.52400*%
%TA.AperFunction,ViaPad*%
%ADD19C,3.70000*%
G36*
X539018Y2278625D02*
X563361Y2268541D01*
X585270Y2253902D01*
X603902Y2235270D01*
X618541Y2213361D01*
X628625Y2189018D01*
X633765Y2163174D01*
Y2150000D01*
Y150000D01*
Y136826D01*
X628625Y110981D01*
X618541Y86639D01*
X603902Y64729D01*
X585270Y46098D01*
X563361Y31459D01*
X539018Y21375D01*
X513174Y16235D01*
X427532D01*
X424351Y28935D01*
X435368Y34823D01*
X465472Y59529D01*
X490177Y89633D01*
X508535Y123978D01*
X519839Y161244D01*
X523657Y200000D01*
X519839Y238756D01*
X508535Y276023D01*
X490177Y310368D01*
X465472Y340472D01*
X435368Y365177D01*
X401023Y383535D01*
X363756Y394839D01*
X325000Y398657D01*
X286244Y394839D01*
X248978Y383535D01*
X214633Y365177D01*
X184529Y340472D01*
X159823Y310368D01*
X141466Y276023D01*
X130161Y238756D01*
X126344Y200000D01*
X130161Y161244D01*
X141466Y123978D01*
X159823Y89633D01*
X184529Y59529D01*
X214633Y34823D01*
X225650Y28935D01*
X222468Y16235D01*
X136825D01*
X110982Y21375D01*
X86639Y31458D01*
X64729Y46098D01*
X46098Y64729D01*
X31459Y86638D01*
X21375Y110982D01*
X16235Y136825D01*
Y150000D01*
Y2150000D01*
Y2163174D01*
X21375Y2189018D01*
X31458Y2213361D01*
X46098Y2235270D01*
X64729Y2253902D01*
X86638Y2268541D01*
X110981Y2278625D01*
X136825Y2283765D01*
X222468D01*
X225649Y2271065D01*
X214633Y2265177D01*
X184529Y2240472D01*
X159823Y2210368D01*
X141466Y2176023D01*
X130161Y2138756D01*
X126344Y2100000D01*
X130161Y2061244D01*
X141466Y2023978D01*
X159823Y1989633D01*
X184529Y1959529D01*
X214633Y1934823D01*
X248978Y1916466D01*
X286244Y1905161D01*
X325000Y1901344D01*
X363756Y1905161D01*
X401023Y1916466D01*
X435368Y1934823D01*
X465472Y1959529D01*
X490177Y1989633D01*
X508535Y2023978D01*
X519839Y2061244D01*
X523657Y2100000D01*
X519839Y2138756D01*
X508535Y2176023D01*
X490177Y2210368D01*
X465472Y2240472D01*
X435368Y2265177D01*
X424351Y2271065D01*
X427533Y2283765D01*
X513174D01*
X539018Y2278625D01*
D02*
G37*
%LPC*%
G36*
X548600Y1861600D02*
X459700D01*
Y1772700D01*
X548600D01*
Y1861600D01*
D02*
G37*
G36*
X434300D02*
X345400D01*
Y1772700D01*
X434300D01*
Y1861600D01*
D02*
G37*
G36*
X193000Y1849667D02*
X169793Y1846612D01*
X148167Y1837654D01*
X129596Y1823404D01*
X115346Y1804834D01*
X106388Y1783208D01*
X103333Y1760000D01*
X106388Y1736793D01*
X115346Y1715166D01*
X129596Y1696596D01*
X148167Y1682346D01*
X169793Y1673388D01*
X193000Y1670333D01*
X216208Y1673388D01*
X237834Y1682346D01*
X256404Y1696596D01*
X270654Y1715166D01*
X279612Y1736793D01*
X282667Y1760000D01*
X279612Y1783208D01*
X270654Y1804834D01*
X256404Y1823404D01*
X237834Y1837654D01*
X216208Y1846612D01*
X193000Y1849667D01*
D02*
G37*
G36*
X548600Y1747300D02*
X459700D01*
Y1658400D01*
X548600D01*
Y1747300D01*
D02*
G37*
G36*
X434300D02*
X345400D01*
Y1658400D01*
X434300D01*
Y1747300D01*
D02*
G37*
G36*
X294600Y641600D02*
X205700D01*
Y552700D01*
X294600D01*
Y641600D01*
D02*
G37*
G36*
X180300D02*
X91400D01*
Y552700D01*
X180300D01*
Y641600D01*
D02*
G37*
G36*
X447000Y629667D02*
X423793Y626612D01*
X402167Y617654D01*
X383596Y603404D01*
X369346Y584833D01*
X360388Y563207D01*
X357333Y540000D01*
X360388Y516792D01*
X369346Y495166D01*
X383596Y476596D01*
X402167Y462346D01*
X423793Y453388D01*
X447000Y450333D01*
X470208Y453388D01*
X491834Y462346D01*
X510404Y476596D01*
X524654Y495166D01*
X533612Y516792D01*
X536667Y540000D01*
X533612Y563207D01*
X524654Y584833D01*
X510404Y603404D01*
X491834Y617654D01*
X470208Y626612D01*
X447000Y629667D01*
D02*
G37*
G36*
X294600Y527300D02*
X205700D01*
Y438400D01*
X294600D01*
Y527300D01*
D02*
G37*
G36*
X180300D02*
X91400D01*
Y438400D01*
X180300D01*
Y527300D01*
D02*
G37*
%LPD*%
D17*
X193000Y540000D02*
D03*
X447000Y1760000D02*
D03*
D18*
Y540000D02*
D03*
X193000Y1760000D02*
D03*
D19*
X325000Y2100000D02*
D03*
Y200000D02*
D03*
%TF.MD5,3ae841c02f3661793243f4789ef40e1b*%
M02*
