%TF.GenerationSoftware,Altium Limited,Altium Designer,23.5.1 (21)*%
G04 Layer_Color=2752767*
%FSLAX45Y45*%
%MOMM*%
%TF.SameCoordinates,8A25645B-EB28-4A57-872E-1D95D4218FA1*%
%TF.FilePolarity,Positive*%
%TF.FileFunction,Drawing*%
%TF.Part,Single*%
G01*
G75*
%TA.AperFunction,NonConductor*%
%ADD27C,0.25400*%
%ADD28C,0.08467*%
%ADD29C,0.38100*%
%ADD30C,0.40640*%
D27*
X1340254Y980017D02*
G03*
X1340254Y980017I-84667J0D01*
G01*
X1170921Y514350D02*
X1340254D01*
Y683683D01*
X1170921D02*
X1340254D01*
X1170921Y514350D02*
Y683683D01*
X16996407Y996917D02*
X16920232D01*
X16894839Y971525D01*
Y920742D01*
X16920232Y895350D01*
X16996407D01*
X17047189Y1022309D02*
X17072581Y1047701D01*
X17123364D01*
X17148756Y1022309D01*
Y996917D01*
X17123364Y971525D01*
X17097974D01*
X17123364D01*
X17148756Y946133D01*
Y920742D01*
X17123364Y895350D01*
X17072581D01*
X17047189Y920742D01*
X17199541Y1047701D02*
X17301108D01*
Y1022309D01*
X17199541Y920742D01*
Y895350D01*
X17351891Y1022309D02*
X17377283Y1047701D01*
X17428067D01*
X17453459Y1022309D01*
Y920742D01*
X17428067Y895350D01*
X17377283D01*
X17351891Y920742D01*
Y1022309D01*
X17504242Y1047701D02*
Y895350D01*
Y971525D01*
X17529634Y996917D01*
X17580417D01*
X17605809Y971525D01*
Y895350D01*
X17758160D02*
X17656593D01*
X17758160Y996917D01*
Y1022309D01*
X17732768Y1047701D01*
X17681985D01*
X17656593Y1022309D01*
X17910510Y895350D02*
X17808945D01*
X17910510Y996917D01*
Y1022309D01*
X17885120Y1047701D01*
X17834335D01*
X17808945Y1022309D01*
X17961295D02*
X17986687Y1047701D01*
X18037469D01*
X18062862Y1022309D01*
Y920742D01*
X18037469Y895350D01*
X17986687D01*
X17961295Y920742D01*
Y1022309D01*
X18113644Y895350D02*
Y996917D01*
X18139037D01*
X18164429Y971525D01*
Y895350D01*
Y971525D01*
X18189819Y996917D01*
X18215211Y971525D01*
Y895350D01*
X18265996Y1022309D02*
X18291388Y1047701D01*
X18342171D01*
X18367563Y1022309D01*
Y920742D01*
X18342171Y895350D01*
X18291388D01*
X18265996Y920742D01*
Y1022309D01*
X18418346Y895350D02*
Y996917D01*
X18443738D01*
X18469130Y971525D01*
Y895350D01*
Y971525D01*
X18494522Y996917D01*
X18519914Y971525D01*
Y895350D01*
X18570697Y996917D02*
X18672264Y895350D01*
X18621481Y946133D01*
X18672264Y996917D01*
X18570697Y895350D01*
X18723048Y1022309D02*
X18748441Y1047701D01*
X18799223D01*
X18824615Y1022309D01*
Y920742D01*
X18799223Y895350D01*
X18748441D01*
X18723048Y920742D01*
Y1022309D01*
X16945622Y514350D02*
X16894839Y565133D01*
Y615917D01*
X16945622Y666701D01*
X17021799Y514350D02*
Y666701D01*
X17072581Y615917D01*
X17123364Y666701D01*
Y514350D01*
X17174149D02*
X17224931D01*
X17199541D01*
Y615917D01*
X17174149D01*
X17301108D02*
X17402675Y514350D01*
X17351891Y565133D01*
X17402675Y615917D01*
X17301108Y514350D01*
X17529634D02*
X17478850D01*
X17453458Y539742D01*
Y590525D01*
X17478850Y615917D01*
X17529634D01*
X17555026Y590525D01*
Y565133D01*
X17453458D01*
X17707376Y666701D02*
Y514350D01*
X17631201D01*
X17605809Y539742D01*
Y590525D01*
X17631201Y615917D01*
X17707376D01*
X17758160Y514350D02*
X17808943Y565133D01*
Y615917D01*
X17758160Y666701D01*
X15000513Y895350D02*
Y1047701D01*
X15076688D01*
X15102078Y1022309D01*
Y971525D01*
X15076688Y946133D01*
X15000513D01*
X15051295D02*
X15102078Y895350D01*
X15178255D02*
X15229037D01*
X15254430Y920742D01*
Y971525D01*
X15229037Y996917D01*
X15178255D01*
X15152863Y971525D01*
Y920742D01*
X15178255Y895350D01*
X15305212Y996917D02*
Y920742D01*
X15330605Y895350D01*
X15406781D01*
Y996917D01*
X15457564Y895350D02*
Y996917D01*
X15533740D01*
X15559131Y971525D01*
Y895350D01*
X15711482Y1047701D02*
Y895350D01*
X15635307D01*
X15609915Y920742D01*
Y971525D01*
X15635307Y996917D01*
X15711482D01*
X15838441Y895350D02*
X15787659D01*
X15762267Y920742D01*
Y971525D01*
X15787659Y996917D01*
X15838441D01*
X15863834Y971525D01*
Y946133D01*
X15762267D01*
X16016183Y1047701D02*
Y895350D01*
X15940009D01*
X15914616Y920742D01*
Y971525D01*
X15940009Y996917D01*
X16016183D01*
X15051295Y514350D02*
X15000513Y565133D01*
Y615917D01*
X15051295Y666701D01*
X15127470Y514350D02*
Y666701D01*
X15178255Y615917D01*
X15229037Y666701D01*
Y514350D01*
X15279822D02*
X15330605D01*
X15305212D01*
Y615917D01*
X15279822D01*
X15406779D02*
X15508348Y514350D01*
X15457564Y565133D01*
X15508348Y615917D01*
X15406779Y514350D01*
X15635307D02*
X15584523D01*
X15559131Y539742D01*
Y590525D01*
X15584523Y615917D01*
X15635307D01*
X15660698Y590525D01*
Y565133D01*
X15559131D01*
X15813049Y666701D02*
Y514350D01*
X15736874D01*
X15711482Y539742D01*
Y590525D01*
X15736874Y615917D01*
X15813049D01*
X15863834Y514350D02*
X15914616Y565133D01*
Y615917D01*
X15863834Y666701D01*
X13502296Y895350D02*
Y1047701D01*
X13578471D01*
X13603864Y1022309D01*
Y971525D01*
X13578471Y946133D01*
X13502296D01*
X13680038Y996917D02*
X13730823D01*
X13756215Y971525D01*
Y895350D01*
X13680038D01*
X13654646Y920742D01*
X13680038Y946133D01*
X13756215D01*
X13908565Y1047701D02*
Y895350D01*
X13832390D01*
X13806998Y920742D01*
Y971525D01*
X13832390Y996917D01*
X13908565D01*
X13502296Y514350D02*
Y666701D01*
X13578471D01*
X13603864Y641309D01*
Y590525D01*
X13578471Y565133D01*
X13502296D01*
X13680038Y615917D02*
X13730823D01*
X13756215Y590525D01*
Y514350D01*
X13680038D01*
X13654646Y539742D01*
X13680038Y565133D01*
X13756215D01*
X13908565Y666701D02*
Y514350D01*
X13832390D01*
X13806998Y539742D01*
Y590525D01*
X13832390Y615917D01*
X13908565D01*
X9693438Y1047701D02*
X9795006D01*
X9744222D01*
Y895350D01*
X9871181D02*
X9921964D01*
X9947356Y920742D01*
Y971525D01*
X9921964Y996917D01*
X9871181D01*
X9845789Y971525D01*
Y920742D01*
X9871181Y895350D01*
X9998140Y844567D02*
Y996917D01*
X10074315D01*
X10099707Y971525D01*
Y920742D01*
X10074315Y895350D01*
X9998140D01*
X10302841Y1047701D02*
Y895350D01*
X10404408D01*
X10480584Y996917D02*
X10531367D01*
X10556759Y971525D01*
Y895350D01*
X10480584D01*
X10455192Y920742D01*
X10480584Y946133D01*
X10556759D01*
X10607543Y996917D02*
Y920742D01*
X10632935Y895350D01*
X10709110D01*
Y869958D01*
X10683718Y844567D01*
X10658326D01*
X10709110Y895350D02*
Y996917D01*
X10836069Y895350D02*
X10785285D01*
X10759893Y920742D01*
Y971525D01*
X10785285Y996917D01*
X10836069D01*
X10861461Y971525D01*
Y946133D01*
X10759893D01*
X10912244Y996917D02*
Y895350D01*
Y946133D01*
X10937636Y971525D01*
X10963028Y996917D01*
X10988419D01*
X11216946Y971525D02*
X11318513D01*
X11521647Y1047701D02*
Y895350D01*
X11597822D01*
X11623214Y920742D01*
Y946133D01*
X11597822Y971525D01*
X11521647D01*
X11597822D01*
X11623214Y996917D01*
Y1022309D01*
X11597822Y1047701D01*
X11521647D01*
X11699390Y895350D02*
X11750173D01*
X11775565Y920742D01*
Y971525D01*
X11750173Y996917D01*
X11699390D01*
X11673998Y971525D01*
Y920742D01*
X11699390Y895350D01*
X11851740Y1022309D02*
Y996917D01*
X11826348D01*
X11877132D01*
X11851740D01*
Y920742D01*
X11877132Y895350D01*
X11978699Y1022309D02*
Y996917D01*
X11953307D01*
X12004091D01*
X11978699D01*
Y920742D01*
X12004091Y895350D01*
X12105658D02*
X12156442D01*
X12181833Y920742D01*
Y971525D01*
X12156442Y996917D01*
X12105658D01*
X12080266Y971525D01*
Y920742D01*
X12105658Y895350D01*
X12232617D02*
Y996917D01*
X12258009D01*
X12283400Y971525D01*
Y895350D01*
Y971525D01*
X12308792Y996917D01*
X12334184Y971525D01*
Y895350D01*
X12537318Y1047701D02*
Y895350D01*
X12638886D01*
X12715061Y996917D02*
X12765844D01*
X12791236Y971525D01*
Y895350D01*
X12715061D01*
X12689669Y920742D01*
X12715061Y946133D01*
X12791236D01*
X12842020Y996917D02*
Y920742D01*
X12867412Y895350D01*
X12943587D01*
Y869958D01*
X12918195Y844567D01*
X12892802D01*
X12943587Y895350D02*
Y996917D01*
X13070546Y895350D02*
X13019762D01*
X12994371Y920742D01*
Y971525D01*
X13019762Y996917D01*
X13070546D01*
X13095938Y971525D01*
Y946133D01*
X12994371D01*
X13146721Y996917D02*
Y895350D01*
Y946133D01*
X13172113Y971525D01*
X13197505Y996917D01*
X13222897D01*
X9693438Y666701D02*
X9795006D01*
X9744222D01*
Y514350D01*
X9871181D02*
X9921964D01*
X9947356Y539742D01*
Y590525D01*
X9921964Y615917D01*
X9871181D01*
X9845789Y590525D01*
Y539742D01*
X9871181Y514350D01*
X9998140Y463567D02*
Y615917D01*
X10074315D01*
X10099707Y590525D01*
Y539742D01*
X10074315Y514350D01*
X9998140D01*
X10302841Y666701D02*
Y514350D01*
X10404408D01*
X10480584Y615917D02*
X10531367D01*
X10556759Y590525D01*
Y514350D01*
X10480584D01*
X10455192Y539742D01*
X10480584Y565133D01*
X10556759D01*
X10607543Y615917D02*
Y539742D01*
X10632935Y514350D01*
X10709110D01*
Y488958D01*
X10683718Y463567D01*
X10658326D01*
X10709110Y514350D02*
Y615917D01*
X10836069Y514350D02*
X10785285D01*
X10759893Y539742D01*
Y590525D01*
X10785285Y615917D01*
X10836069D01*
X10861461Y590525D01*
Y565133D01*
X10759893D01*
X10912244Y615917D02*
Y514350D01*
Y565133D01*
X10937636Y590525D01*
X10963028Y615917D01*
X10988419D01*
X11216946Y590525D02*
X11318513D01*
X11521647Y666701D02*
Y514350D01*
X11597822D01*
X11623214Y539742D01*
Y565133D01*
X11597822Y590525D01*
X11521647D01*
X11597822D01*
X11623214Y615917D01*
Y641309D01*
X11597822Y666701D01*
X11521647D01*
X11699390Y514350D02*
X11750173D01*
X11775565Y539742D01*
Y590525D01*
X11750173Y615917D01*
X11699390D01*
X11673998Y590525D01*
Y539742D01*
X11699390Y514350D01*
X11851740Y641309D02*
Y615917D01*
X11826348D01*
X11877132D01*
X11851740D01*
Y539742D01*
X11877132Y514350D01*
X11978699Y641309D02*
Y615917D01*
X11953307D01*
X12004091D01*
X11978699D01*
Y539742D01*
X12004091Y514350D01*
X12105658D02*
X12156442D01*
X12181833Y539742D01*
Y590525D01*
X12156442Y615917D01*
X12105658D01*
X12080266Y590525D01*
Y539742D01*
X12105658Y514350D01*
X12232617D02*
Y615917D01*
X12258009D01*
X12283400Y590525D01*
Y514350D01*
Y590525D01*
X12308792Y615917D01*
X12334184Y590525D01*
Y514350D01*
X12537318Y666701D02*
Y514350D01*
X12638886D01*
X12715061Y615917D02*
X12765844D01*
X12791236Y590525D01*
Y514350D01*
X12715061D01*
X12689669Y539742D01*
X12715061Y565133D01*
X12791236D01*
X12842020Y615917D02*
Y539742D01*
X12867412Y514350D01*
X12943587D01*
Y488958D01*
X12918195Y463567D01*
X12892802D01*
X12943587Y514350D02*
Y615917D01*
X13070546Y514350D02*
X13019762D01*
X12994371Y539742D01*
Y590525D01*
X13019762Y615917D01*
X13070546D01*
X13095938Y590525D01*
Y565133D01*
X12994371D01*
X13146721Y615917D02*
Y514350D01*
Y565133D01*
X13172113Y590525D01*
X13197505Y615917D01*
X13222897D01*
X7829581Y895350D02*
Y1047701D01*
X7905757D01*
X7931148Y1022309D01*
Y971525D01*
X7905757Y946133D01*
X7829581D01*
X7880365D02*
X7931148Y895350D01*
X8007324D02*
X8058107D01*
X8083499Y920742D01*
Y971525D01*
X8058107Y996917D01*
X8007324D01*
X7981932Y971525D01*
Y920742D01*
X8007324Y895350D01*
X8134283Y996917D02*
Y920742D01*
X8159675Y895350D01*
X8235850D01*
Y996917D01*
X8286633Y895350D02*
Y996917D01*
X8362809D01*
X8388201Y971525D01*
Y895350D01*
X8540551Y1047701D02*
Y895350D01*
X8464376D01*
X8438984Y920742D01*
Y971525D01*
X8464376Y996917D01*
X8540551D01*
X7829581Y514350D02*
Y666701D01*
X7905757D01*
X7931148Y641309D01*
Y590525D01*
X7905757Y565133D01*
X7829581D01*
X7880365D02*
X7931148Y514350D01*
X8007324D02*
X8058107D01*
X8083499Y539742D01*
Y590525D01*
X8058107Y615917D01*
X8007324D01*
X7981932Y590525D01*
Y539742D01*
X8007324Y514350D01*
X8134283Y615917D02*
Y539742D01*
X8159675Y514350D01*
X8235850D01*
Y615917D01*
X8286633Y514350D02*
Y615917D01*
X8362809D01*
X8388201Y590525D01*
Y514350D01*
X8540551Y666701D02*
Y514350D01*
X8464376D01*
X8438984Y539742D01*
Y590525D01*
X8464376Y615917D01*
X8540551D01*
X6544657Y895350D02*
Y1047701D01*
X6620832D01*
X6646224Y1022309D01*
Y971525D01*
X6620832Y946133D01*
X6544657D01*
X6697007Y1047701D02*
X6798575D01*
X6747791D01*
Y895350D01*
X6849358Y1047701D02*
Y895350D01*
Y971525D01*
X6950925D01*
Y1047701D01*
Y895350D01*
X6544657Y514350D02*
Y666701D01*
X6620832D01*
X6646224Y641309D01*
Y590525D01*
X6620832Y565133D01*
X6544657D01*
X6697007Y666701D02*
X6798575D01*
X6747791D01*
Y514350D01*
X6849358Y666701D02*
Y514350D01*
Y590525D01*
X6950925D01*
Y666701D01*
Y514350D01*
X3853038Y895350D02*
X3751470D01*
X3853038Y996917D01*
Y1022309D01*
X3827646Y1047701D01*
X3776862D01*
X3751470Y1022309D01*
X3903821Y895350D02*
Y920742D01*
X3929213D01*
Y895350D01*
X3903821D01*
X4132347D02*
X4030780D01*
X4132347Y996917D01*
Y1022309D01*
X4106955Y1047701D01*
X4056172D01*
X4030780Y1022309D01*
X4183131D02*
X4208522Y1047701D01*
X4259306D01*
X4284698Y1022309D01*
Y920742D01*
X4259306Y895350D01*
X4208522D01*
X4183131Y920742D01*
Y1022309D01*
X4335481D02*
X4360873Y1047701D01*
X4411657D01*
X4437049Y1022309D01*
Y920742D01*
X4411657Y895350D01*
X4360873D01*
X4335481Y920742D01*
Y1022309D01*
X4487832Y895350D02*
Y996917D01*
X4513224D01*
X4538616Y971525D01*
Y895350D01*
Y971525D01*
X4564007Y996917D01*
X4589399Y971525D01*
Y895350D01*
X4640183D02*
Y996917D01*
X4665575D01*
X4690966Y971525D01*
Y895350D01*
Y971525D01*
X4716358Y996917D01*
X4741750Y971525D01*
Y895350D01*
X4995668D02*
X4944884Y946133D01*
Y996917D01*
X4995668Y1047701D01*
X5071843Y1022309D02*
X5097235Y1047701D01*
X5148018D01*
X5173410Y1022309D01*
Y996917D01*
X5148018Y971525D01*
X5173410Y946133D01*
Y920742D01*
X5148018Y895350D01*
X5097235D01*
X5071843Y920742D01*
Y946133D01*
X5097235Y971525D01*
X5071843Y996917D01*
Y1022309D01*
X5097235Y971525D02*
X5148018D01*
X5325761Y1047701D02*
X5274977Y1022309D01*
X5224194Y971525D01*
Y920742D01*
X5249586Y895350D01*
X5300369D01*
X5325761Y920742D01*
Y946133D01*
X5300369Y971525D01*
X5224194D01*
X5376544Y895350D02*
Y920742D01*
X5401936D01*
Y895350D01*
X5376544D01*
X5605071Y1047701D02*
X5554287Y1022309D01*
X5503503Y971525D01*
Y920742D01*
X5528895Y895350D01*
X5579679D01*
X5605071Y920742D01*
Y946133D01*
X5579679Y971525D01*
X5503503D01*
X5655854Y895350D02*
X5706638D01*
X5681246D01*
Y1047701D01*
X5655854Y1022309D01*
X5782813Y895350D02*
Y996917D01*
X5808205D01*
X5833596Y971525D01*
Y895350D01*
Y971525D01*
X5858988Y996917D01*
X5884380Y971525D01*
Y895350D01*
X5935164D02*
X5985947D01*
X5960556D01*
Y996917D01*
X5935164D01*
X6062122Y895350D02*
X6112906D01*
X6087514D01*
Y1047701D01*
X6062122D01*
X6189081Y895350D02*
X6239865Y946133D01*
Y996917D01*
X6189081Y1047701D01*
X3751470Y641309D02*
X3776862Y666701D01*
X3827646D01*
X3853038Y641309D01*
Y539742D01*
X3827646Y514350D01*
X3776862D01*
X3751470Y539742D01*
Y641309D01*
X3903821Y514350D02*
Y539742D01*
X3929213D01*
Y514350D01*
X3903821D01*
X4030780Y539742D02*
X4056172Y514350D01*
X4106955D01*
X4132347Y539742D01*
Y641309D01*
X4106955Y666701D01*
X4056172D01*
X4030780Y641309D01*
Y615917D01*
X4056172Y590525D01*
X4132347D01*
X4284698Y666701D02*
X4233914Y641309D01*
X4183131Y590525D01*
Y539742D01*
X4208522Y514350D01*
X4259306D01*
X4284698Y539742D01*
Y565133D01*
X4259306Y590525D01*
X4183131D01*
X4437049Y666701D02*
X4335481D01*
Y590525D01*
X4386265Y615917D01*
X4411657D01*
X4437049Y590525D01*
Y539742D01*
X4411657Y514350D01*
X4360873D01*
X4335481Y539742D01*
X4487832Y514350D02*
Y615917D01*
X4513224D01*
X4538616Y590525D01*
Y514350D01*
Y590525D01*
X4564007Y615917D01*
X4589399Y590525D01*
Y514350D01*
X4640183D02*
Y615917D01*
X4665575D01*
X4690966Y590525D01*
Y514350D01*
Y590525D01*
X4716358Y615917D01*
X4741750Y590525D01*
Y514350D01*
X4995668D02*
X4944884Y565133D01*
Y615917D01*
X4995668Y666701D01*
X5071843Y641309D02*
X5097235Y666701D01*
X5148018D01*
X5173410Y641309D01*
Y615917D01*
X5148018Y590525D01*
X5122627D01*
X5148018D01*
X5173410Y565133D01*
Y539742D01*
X5148018Y514350D01*
X5097235D01*
X5071843Y539742D01*
X5224194Y641309D02*
X5249586Y666701D01*
X5300369D01*
X5325761Y641309D01*
Y615917D01*
X5300369Y590525D01*
X5325761Y565133D01*
Y539742D01*
X5300369Y514350D01*
X5249586D01*
X5224194Y539742D01*
Y565133D01*
X5249586Y590525D01*
X5224194Y615917D01*
Y641309D01*
X5249586Y590525D02*
X5300369D01*
X5376544Y514350D02*
Y539742D01*
X5401936D01*
Y514350D01*
X5376544D01*
X5503503Y641309D02*
X5528895Y666701D01*
X5579679D01*
X5605071Y641309D01*
Y539742D01*
X5579679Y514350D01*
X5528895D01*
X5503503Y539742D01*
Y641309D01*
X5655854D02*
X5681246Y666701D01*
X5732029D01*
X5757421Y641309D01*
Y539742D01*
X5732029Y514350D01*
X5681246D01*
X5655854Y539742D01*
Y641309D01*
X5808205Y514350D02*
Y615917D01*
X5833597D01*
X5858988Y590525D01*
Y514350D01*
Y590525D01*
X5884380Y615917D01*
X5909772Y590525D01*
Y514350D01*
X5960556D02*
X6011339D01*
X5985947D01*
Y615917D01*
X5960556D01*
X6087514Y514350D02*
X6138298D01*
X6112906D01*
Y666701D01*
X6087514D01*
X6214473Y514350D02*
X6265257Y565133D01*
Y615917D01*
X6214473Y666701D01*
X2634142Y285701D02*
X2583358Y260309D01*
X2532574Y209525D01*
Y158742D01*
X2557966Y133350D01*
X2608750D01*
X2634142Y158742D01*
Y184133D01*
X2608750Y209525D01*
X2532574D01*
X2837276Y285701D02*
X2938843D01*
X2888059D01*
Y133350D01*
X3015018D02*
X3065802D01*
X3091194Y158742D01*
Y209525D01*
X3065802Y234917D01*
X3015018D01*
X2989626Y209525D01*
Y158742D01*
X3015018Y133350D01*
X3167369Y260309D02*
Y234917D01*
X3141977D01*
X3192761D01*
X3167369D01*
Y158742D01*
X3192761Y133350D01*
X3294328Y234917D02*
X3345111D01*
X3370503Y209525D01*
Y133350D01*
X3294328D01*
X3268936Y158742D01*
X3294328Y184133D01*
X3370503D01*
X3421287Y133350D02*
X3472070D01*
X3446679D01*
Y285701D01*
X3421287D01*
X2634142Y895350D02*
X2532574D01*
X2634142Y996917D01*
Y1022309D01*
X2608750Y1047701D01*
X2557966D01*
X2532574Y1022309D01*
X2608750Y514350D02*
Y666701D01*
X2532574Y590525D01*
X2634142D01*
D28*
X367333Y200000D02*
G03*
X367333Y200000I-42333J0D01*
G01*
Y2100000D02*
G03*
X367333Y2100000I-42333J0D01*
G01*
X150667Y1717667D02*
X235333D01*
Y1802333D01*
X150667D02*
X235333D01*
X150667Y1717667D02*
Y1802333D01*
X404667Y1717667D02*
X489333D01*
Y1802333D01*
X404667D02*
X489333D01*
X404667Y1717667D02*
Y1802333D01*
Y497667D02*
X489333D01*
Y582333D01*
X404667D02*
X489333D01*
X404667Y497667D02*
Y582333D01*
X150667Y497667D02*
X235333D01*
Y582333D01*
X150667D02*
X235333D01*
X150667Y497667D02*
Y582333D01*
D29*
X1019050Y1162050D02*
X28047302D01*
X1019050Y400050D02*
X28047302D01*
X1019050Y19050D02*
X28047302D01*
Y1543050D01*
X1019050D02*
X28047302D01*
X1019050Y19050D02*
Y1543050D01*
X24545638Y19050D02*
Y1543050D01*
X21158273Y19050D02*
Y1543050D01*
X18989716Y19050D02*
Y1543050D01*
X16780539Y19050D02*
Y1543050D01*
X14886212Y19050D02*
Y1543050D01*
X13387997Y19050D02*
Y1543050D01*
X9579138Y19050D02*
Y1543050D01*
X7715281Y19050D02*
Y1543050D01*
X6430357Y19050D02*
Y1543050D01*
X3637170Y19050D02*
Y1543050D01*
X2418274Y19050D02*
Y1543050D01*
D30*
X24659937Y1459171D02*
Y1276350D01*
Y1367761D01*
X24781818D01*
Y1459171D01*
Y1276350D01*
X24873228D02*
X24934169D01*
X24964639Y1306820D01*
Y1367761D01*
X24934169Y1398231D01*
X24873228D01*
X24842758Y1367761D01*
Y1306820D01*
X24873228Y1276350D01*
X25025578D02*
X25086519D01*
X25056049D01*
Y1459171D01*
X25025578D01*
X25269341Y1276350D02*
X25208400D01*
X25177930Y1306820D01*
Y1367761D01*
X25208400Y1398231D01*
X25269341D01*
X25299809Y1367761D01*
Y1337290D01*
X25177930D01*
X25543571Y1459171D02*
X25665451D01*
X25604510D01*
Y1276350D01*
X25756863D02*
X25817804D01*
X25848273Y1306820D01*
Y1367761D01*
X25817804Y1398231D01*
X25756863D01*
X25726392Y1367761D01*
Y1306820D01*
X25756863Y1276350D01*
X25909213D02*
X25970154D01*
X25939682D01*
Y1459171D01*
X25909213D01*
X26152975Y1276350D02*
X26092035D01*
X26061563Y1306820D01*
Y1367761D01*
X26092035Y1398231D01*
X26152975D01*
X26183444Y1367761D01*
Y1337290D01*
X26061563D01*
X26244385Y1398231D02*
Y1276350D01*
Y1337290D01*
X26274854Y1367761D01*
X26305325Y1398231D01*
X26335794D01*
X26457675D02*
X26518616D01*
X26549088Y1367761D01*
Y1276350D01*
X26457675D01*
X26427206Y1306820D01*
X26457675Y1337290D01*
X26549088D01*
X26610025Y1276350D02*
Y1398231D01*
X26701437D01*
X26731906Y1367761D01*
Y1276350D01*
X26914728Y1398231D02*
X26823318D01*
X26792847Y1367761D01*
Y1306820D01*
X26823318Y1276350D01*
X26914728D01*
X27067078D02*
X27006137D01*
X26975668Y1306820D01*
Y1367761D01*
X27006137Y1398231D01*
X27067078D01*
X27097549Y1367761D01*
Y1337290D01*
X26975668D01*
X27402249Y1276350D02*
X27341309Y1337290D01*
Y1398231D01*
X27402249Y1459171D01*
X27493661Y1367761D02*
X27615540D01*
X27676480Y1276350D02*
X27737421Y1337290D01*
Y1398231D01*
X27676480Y1459171D01*
X21272574D02*
Y1276350D01*
Y1367761D01*
X21394453D01*
Y1459171D01*
Y1276350D01*
X21485864D02*
X21546805D01*
X21577275Y1306820D01*
Y1367761D01*
X21546805Y1398231D01*
X21485864D01*
X21455394Y1367761D01*
Y1306820D01*
X21485864Y1276350D01*
X21638216D02*
X21699155D01*
X21668684D01*
Y1459171D01*
X21638216D01*
X21881976Y1276350D02*
X21821036D01*
X21790565Y1306820D01*
Y1367761D01*
X21821036Y1398231D01*
X21881976D01*
X21912447Y1367761D01*
Y1337290D01*
X21790565D01*
X22156207Y1459171D02*
X22278088D01*
X22217148D01*
Y1276350D01*
X22369499D02*
X22430440D01*
X22460909Y1306820D01*
Y1367761D01*
X22430440Y1398231D01*
X22369499D01*
X22339027Y1367761D01*
Y1306820D01*
X22369499Y1276350D01*
X22521849D02*
X22582790D01*
X22552319D01*
Y1459171D01*
X22521849D01*
X22765611Y1276350D02*
X22704671D01*
X22674200Y1306820D01*
Y1367761D01*
X22704671Y1398231D01*
X22765611D01*
X22796082Y1367761D01*
Y1337290D01*
X22674200D01*
X22857021Y1398231D02*
Y1276350D01*
Y1337290D01*
X22887491Y1367761D01*
X22917961Y1398231D01*
X22948431D01*
X23070312D02*
X23131252D01*
X23161722Y1367761D01*
Y1276350D01*
X23070312D01*
X23039842Y1306820D01*
X23070312Y1337290D01*
X23161722D01*
X23222662Y1276350D02*
Y1398231D01*
X23314073D01*
X23344543Y1367761D01*
Y1276350D01*
X23527364Y1398231D02*
X23435953D01*
X23405482Y1367761D01*
Y1306820D01*
X23435953Y1276350D01*
X23527364D01*
X23679715D02*
X23618774D01*
X23588304Y1306820D01*
Y1367761D01*
X23618774Y1398231D01*
X23679715D01*
X23710185Y1367761D01*
Y1337290D01*
X23588304D01*
X24014886Y1276350D02*
X23953946Y1337290D01*
Y1398231D01*
X24014886Y1459171D01*
X24106296Y1367761D02*
X24228177D01*
X24167236Y1428701D02*
Y1306820D01*
X24289117Y1276350D02*
X24350056Y1337290D01*
Y1398231D01*
X24289117Y1459171D01*
X19104015D02*
Y1276350D01*
X19195425D01*
X19225896Y1306820D01*
Y1428701D01*
X19195425Y1459171D01*
X19104015D01*
X19378246Y1276350D02*
X19317307D01*
X19286836Y1306820D01*
Y1367761D01*
X19317307Y1398231D01*
X19378246D01*
X19408717Y1367761D01*
Y1337290D01*
X19286836D01*
X19469656Y1276350D02*
X19561067D01*
X19591537Y1306820D01*
X19561067Y1337290D01*
X19500127D01*
X19469656Y1367761D01*
X19500127Y1398231D01*
X19591537D01*
X19774358D02*
X19682948D01*
X19652478Y1367761D01*
Y1306820D01*
X19682948Y1276350D01*
X19774358D01*
X19835298Y1398231D02*
Y1276350D01*
Y1337290D01*
X19865768Y1367761D01*
X19896239Y1398231D01*
X19926709D01*
X20018118Y1276350D02*
X20079059D01*
X20048589D01*
Y1398231D01*
X20018118D01*
X20170470Y1215410D02*
Y1398231D01*
X20261880D01*
X20292351Y1367761D01*
Y1306820D01*
X20261880Y1276350D01*
X20170470D01*
X20383762Y1428701D02*
Y1398231D01*
X20353291D01*
X20414230D01*
X20383762D01*
Y1306820D01*
X20414230Y1276350D01*
X20505641D02*
X20566582D01*
X20536111D01*
Y1398231D01*
X20505641D01*
X20688461Y1276350D02*
X20749403D01*
X20779874Y1306820D01*
Y1367761D01*
X20749403Y1398231D01*
X20688461D01*
X20657993Y1367761D01*
Y1306820D01*
X20688461Y1276350D01*
X20840813D02*
Y1398231D01*
X20932224D01*
X20962694Y1367761D01*
Y1276350D01*
X16894839Y1459171D02*
X17016721D01*
X16955779D01*
Y1276350D01*
X17169070D02*
X17108130D01*
X17077660Y1306820D01*
Y1367761D01*
X17108130Y1398231D01*
X17169070D01*
X17199541Y1367761D01*
Y1337290D01*
X17077660D01*
X17260481Y1276350D02*
Y1398231D01*
X17290952D01*
X17321420Y1367761D01*
Y1276350D01*
Y1367761D01*
X17351891Y1398231D01*
X17382361Y1367761D01*
Y1276350D01*
X17443301Y1215410D02*
Y1398231D01*
X17534712D01*
X17565182Y1367761D01*
Y1306820D01*
X17534712Y1276350D01*
X17443301D01*
X17626122D02*
X17687064D01*
X17656593D01*
Y1459171D01*
X17626122D01*
X17808943Y1398231D02*
X17869884D01*
X17900354Y1367761D01*
Y1276350D01*
X17808943D01*
X17778473Y1306820D01*
X17808943Y1337290D01*
X17900354D01*
X17991763Y1428701D02*
Y1398231D01*
X17961295D01*
X18022234D01*
X17991763D01*
Y1306820D01*
X18022234Y1276350D01*
X18205055D02*
X18144115D01*
X18113644Y1306820D01*
Y1367761D01*
X18144115Y1398231D01*
X18205055D01*
X18235526Y1367761D01*
Y1337290D01*
X18113644D01*
X15000513Y1276350D02*
Y1459171D01*
X15091924D01*
X15122392Y1428701D01*
Y1367761D01*
X15091924Y1337290D01*
X15000513D01*
X15213803Y1398231D02*
X15274744D01*
X15305212Y1367761D01*
Y1276350D01*
X15213803D01*
X15183333Y1306820D01*
X15213803Y1337290D01*
X15305212D01*
X15488034Y1459171D02*
Y1276350D01*
X15396625D01*
X15366154Y1306820D01*
Y1367761D01*
X15396625Y1398231D01*
X15488034D01*
X15853676Y1428701D02*
X15823206Y1459171D01*
X15762265D01*
X15731795Y1428701D01*
Y1398231D01*
X15762265Y1367761D01*
X15823206D01*
X15853676Y1337290D01*
Y1306820D01*
X15823206Y1276350D01*
X15762265D01*
X15731795Y1306820D01*
X15914616Y1459171D02*
Y1276350D01*
Y1367761D01*
X15945087Y1398231D01*
X16006027D01*
X16036497Y1367761D01*
Y1276350D01*
X16127907Y1398231D02*
X16188847D01*
X16219318Y1367761D01*
Y1276350D01*
X16127907D01*
X16097437Y1306820D01*
X16127907Y1337290D01*
X16219318D01*
X16280258Y1215410D02*
Y1398231D01*
X16371667D01*
X16402138Y1367761D01*
Y1306820D01*
X16371667Y1276350D01*
X16280258D01*
X16554489D02*
X16493549D01*
X16463078Y1306820D01*
Y1367761D01*
X16493549Y1398231D01*
X16554489D01*
X16584959Y1367761D01*
Y1337290D01*
X16463078D01*
X13502296Y1459171D02*
Y1337290D01*
X13563237Y1276350D01*
X13624178Y1337290D01*
Y1459171D01*
X13685117Y1276350D02*
X13746059D01*
X13715588D01*
Y1398231D01*
X13685117D01*
X13867938D02*
X13928879D01*
X13959349Y1367761D01*
Y1276350D01*
X13867938D01*
X13837468Y1306820D01*
X13867938Y1337290D01*
X13959349D01*
X14020290Y1276350D02*
X14142171Y1398231D01*
X14203110Y1276350D02*
Y1459171D01*
X14294521D01*
X14324989Y1428701D01*
Y1367761D01*
X14294521Y1337290D01*
X14203110D01*
X14416402Y1398231D02*
X14477341D01*
X14507811Y1367761D01*
Y1276350D01*
X14416402D01*
X14385931Y1306820D01*
X14416402Y1337290D01*
X14507811D01*
X14690633Y1459171D02*
Y1276350D01*
X14599220D01*
X14568752Y1306820D01*
Y1367761D01*
X14599220Y1398231D01*
X14690633D01*
X9693438Y1459171D02*
Y1276350D01*
X9784849D01*
X9815319Y1306820D01*
Y1428701D01*
X9784849Y1459171D01*
X9693438D01*
X9876259Y1398231D02*
Y1276350D01*
Y1337290D01*
X9906729Y1367761D01*
X9937199Y1398231D01*
X9967670D01*
X10059080Y1276350D02*
X10120020D01*
X10089550D01*
Y1398231D01*
X10059080D01*
X10211431Y1276350D02*
X10272371D01*
X10241901D01*
Y1459171D01*
X10211431D01*
X10363781Y1276350D02*
X10424722D01*
X10394251D01*
Y1459171D01*
X10363781D01*
X10698953D02*
Y1276350D01*
X10820834D01*
X10912244Y1398231D02*
X10973184D01*
X11003654Y1367761D01*
Y1276350D01*
X10912244D01*
X10881774Y1306820D01*
X10912244Y1337290D01*
X11003654D01*
X11064595Y1398231D02*
Y1306820D01*
X11095065Y1276350D01*
X11186475D01*
Y1245880D01*
X11156005Y1215410D01*
X11125535D01*
X11186475Y1276350D02*
Y1398231D01*
X11338826Y1276350D02*
X11277885D01*
X11247415Y1306820D01*
Y1367761D01*
X11277885Y1398231D01*
X11338826D01*
X11369296Y1367761D01*
Y1337290D01*
X11247415D01*
X11430236Y1398231D02*
Y1276350D01*
Y1337290D01*
X11460706Y1367761D01*
X11491176Y1398231D01*
X11521647D01*
X11795878Y1276350D02*
Y1459171D01*
X11887288D01*
X11917758Y1428701D01*
Y1367761D01*
X11887288Y1337290D01*
X11795878D01*
X12009169Y1398231D02*
X12070109D01*
X12100579Y1367761D01*
Y1276350D01*
X12009169D01*
X11978699Y1306820D01*
X12009169Y1337290D01*
X12100579D01*
X12161519Y1276350D02*
X12222460D01*
X12191990D01*
Y1398231D01*
X12161519D01*
X12313870D02*
Y1276350D01*
Y1337290D01*
X12344340Y1367761D01*
X12374810Y1398231D01*
X12405281D01*
X7829581Y1459171D02*
Y1276350D01*
Y1367761D01*
X7951462D01*
Y1459171D01*
Y1276350D01*
X8042872D02*
X8103813D01*
X8134283Y1306820D01*
Y1367761D01*
X8103813Y1398231D01*
X8042872D01*
X8012402Y1367761D01*
Y1306820D01*
X8042872Y1276350D01*
X8195223D02*
X8256163D01*
X8225693D01*
Y1459171D01*
X8195223D01*
X8438984Y1276350D02*
X8378044D01*
X8347574Y1306820D01*
Y1367761D01*
X8378044Y1398231D01*
X8438984D01*
X8469454Y1367761D01*
Y1337290D01*
X8347574D01*
X8713215Y1459171D02*
X8835096D01*
X8774155D01*
Y1276350D01*
X8896036Y1398231D02*
Y1306820D01*
X8926506Y1276350D01*
X9017917D01*
Y1245880D01*
X8987447Y1215410D01*
X8956976D01*
X9017917Y1276350D02*
Y1398231D01*
X9078857Y1215410D02*
Y1398231D01*
X9170267D01*
X9200738Y1367761D01*
Y1306820D01*
X9170267Y1276350D01*
X9078857D01*
X9353088D02*
X9292148D01*
X9261678Y1306820D01*
Y1367761D01*
X9292148Y1398231D01*
X9353088D01*
X9383558Y1367761D01*
Y1337290D01*
X9261678D01*
X6544657Y1276350D02*
Y1459171D01*
X6636067D01*
X6666537Y1428701D01*
Y1367761D01*
X6636067Y1337290D01*
X6544657D01*
X6727478Y1276350D02*
X6788418D01*
X6757948D01*
Y1459171D01*
X6727478D01*
X6910298Y1398231D02*
X6971239D01*
X7001709Y1367761D01*
Y1276350D01*
X6910298D01*
X6879828Y1306820D01*
X6910298Y1337290D01*
X7001709D01*
X7093119Y1428701D02*
Y1398231D01*
X7062649D01*
X7123589D01*
X7093119D01*
Y1306820D01*
X7123589Y1276350D01*
X7306410D02*
X7245470D01*
X7215000Y1306820D01*
Y1367761D01*
X7245470Y1398231D01*
X7306410D01*
X7336880Y1367761D01*
Y1337290D01*
X7215000D01*
X7519701Y1459171D02*
Y1276350D01*
X7428291D01*
X7397821Y1306820D01*
Y1367761D01*
X7428291Y1398231D01*
X7519701D01*
X3751470Y1459171D02*
Y1276350D01*
Y1367761D01*
X3873351D01*
Y1459171D01*
Y1276350D01*
X3964761D02*
X4025702D01*
X4056172Y1306820D01*
Y1367761D01*
X4025702Y1398231D01*
X3964761D01*
X3934291Y1367761D01*
Y1306820D01*
X3964761Y1276350D01*
X4117112D02*
X4178052D01*
X4147582D01*
Y1459171D01*
X4117112D01*
X4360873Y1276350D02*
X4299933D01*
X4269463Y1306820D01*
Y1367761D01*
X4299933Y1398231D01*
X4360873D01*
X4391343Y1367761D01*
Y1337290D01*
X4269463D01*
X4756985Y1428701D02*
X4726515Y1459171D01*
X4665574D01*
X4635104Y1428701D01*
Y1398231D01*
X4665574Y1367761D01*
X4726515D01*
X4756985Y1337290D01*
Y1306820D01*
X4726515Y1276350D01*
X4665574D01*
X4635104Y1306820D01*
X4817925Y1276350D02*
X4878865D01*
X4848395D01*
Y1398231D01*
X4817925D01*
X4970276D02*
X5092156D01*
X4970276Y1276350D01*
X5092156D01*
X5244507D02*
X5183567D01*
X5153097Y1306820D01*
Y1367761D01*
X5183567Y1398231D01*
X5244507D01*
X5274977Y1367761D01*
Y1337290D01*
X5153097D01*
X2654455Y1428701D02*
X2623985Y1459171D01*
X2563044D01*
X2532574Y1428701D01*
Y1306820D01*
X2563044Y1276350D01*
X2623985D01*
X2654455Y1306820D01*
X2745865Y1276350D02*
X2806806D01*
X2837276Y1306820D01*
Y1367761D01*
X2806806Y1398231D01*
X2745865D01*
X2715395Y1367761D01*
Y1306820D01*
X2745865Y1276350D01*
X2898216Y1398231D02*
Y1306820D01*
X2928686Y1276350D01*
X3020097D01*
Y1398231D01*
X3081037Y1276350D02*
Y1398231D01*
X3172447D01*
X3202917Y1367761D01*
Y1276350D01*
X3294328Y1428701D02*
Y1398231D01*
X3263858D01*
X3324798D01*
X3294328D01*
Y1306820D01*
X3324798Y1276350D01*
X1369531Y1428701D02*
X1339061Y1459171D01*
X1278120D01*
X1247650Y1428701D01*
Y1398231D01*
X1278120Y1367761D01*
X1339061D01*
X1369531Y1337290D01*
Y1306820D01*
X1339061Y1276350D01*
X1278120D01*
X1247650Y1306820D01*
X1430471Y1398231D02*
Y1306820D01*
X1460941Y1276350D01*
X1552351D01*
Y1245880D01*
X1521881Y1215410D01*
X1491411D01*
X1552351Y1276350D02*
Y1398231D01*
X1613292Y1276350D02*
Y1398231D01*
X1643762D01*
X1674232Y1367761D01*
Y1276350D01*
Y1367761D01*
X1704702Y1398231D01*
X1735172Y1367761D01*
Y1276350D01*
X1796112Y1459171D02*
Y1276350D01*
X1887523D01*
X1917993Y1306820D01*
Y1337290D01*
Y1367761D01*
X1887523Y1398231D01*
X1796112D01*
X2009403Y1276350D02*
X2070344D01*
X2100814Y1306820D01*
Y1367761D01*
X2070344Y1398231D01*
X2009403D01*
X1978933Y1367761D01*
Y1306820D01*
X2009403Y1276350D01*
X2161754D02*
X2222694D01*
X2192224D01*
Y1459171D01*
X2161754D01*
%TF.MD5,71f69fc84810fd3f2f5621346abcf47f*%
M02*
