%TF.GenerationSoftware,Altium Limited,Altium Designer,23.5.1 (21)*%
G04 Layer_Physical_Order=1*
G04 Layer_Color=255*
%FSLAX45Y45*%
%MOMM*%
%TF.SameCoordinates,8A25645B-EB28-4A57-872E-1D95D4218FA1*%
%TF.FilePolarity,Positive*%
%TF.FileFunction,Copper,L1,Top,Signal*%
%TF.Part,Single*%
G01*
G75*
%TA.AperFunction,SMDPad,CuDef*%
%ADD10R,0.91213X0.95872*%
%ADD11R,0.91213X0.95814*%
%ADD12R,1.34620X0.86360*%
%TA.AperFunction,ConnectorPad*%
%ADD13R,1.30000X0.80000*%
%ADD14R,2.90000X2.10000*%
%TA.AperFunction,Conductor*%
%ADD15C,0.25000*%
%ADD16C,0.30000*%
%TA.AperFunction,ComponentPad*%
%ADD17R,1.52400X1.52400*%
%ADD18C,1.52400*%
%TA.AperFunction,ViaPad*%
%ADD19C,3.70000*%
G36*
X317500Y902500D02*
X396864D01*
Y768240D01*
X399386Y755559D01*
X406569Y744809D01*
X474394Y676984D01*
Y645956D01*
X461693Y635096D01*
X447000Y637030D01*
X421887Y633724D01*
X398485Y624031D01*
X378390Y608610D01*
X362970Y588515D01*
X353276Y565113D01*
X349970Y540000D01*
X353276Y514887D01*
X362970Y491485D01*
X378390Y471389D01*
X398485Y455969D01*
X421887Y446276D01*
X447000Y442970D01*
X472113Y446276D01*
X495515Y455969D01*
X515611Y471389D01*
X531031Y491485D01*
X540724Y514887D01*
X544030Y540000D01*
X540724Y565113D01*
X534354Y580492D01*
X546766Y592904D01*
X553949Y603654D01*
X556472Y616335D01*
Y631894D01*
X605606D01*
Y759593D01*
X605607Y767707D01*
X605607D01*
Y772293D01*
X605606D01*
Y868134D01*
X610614Y875629D01*
X613137Y888310D01*
Y902500D01*
X633765D01*
Y150000D01*
Y136826D01*
X628625Y110981D01*
X618541Y86639D01*
X603902Y64729D01*
X585270Y46098D01*
X563361Y31459D01*
X539018Y21375D01*
X513174Y16235D01*
X444676D01*
X439614Y27859D01*
X439699Y28935D01*
X470658Y54342D01*
X496276Y85557D01*
X515312Y121170D01*
X527034Y159813D01*
X530992Y200000D01*
X527034Y240187D01*
X515312Y278830D01*
X496276Y314443D01*
X470658Y345658D01*
X439443Y371276D01*
X403830Y390312D01*
X365187Y402034D01*
X325000Y405992D01*
X284813Y402034D01*
X246170Y390312D01*
X210557Y371276D01*
X179342Y345658D01*
X153724Y314443D01*
X134689Y278830D01*
X122966Y240187D01*
X119008Y200000D01*
X122966Y159813D01*
X134689Y121170D01*
X153724Y85557D01*
X179342Y54342D01*
X210301Y28935D01*
X210386Y27859D01*
X205324Y16235D01*
X136825D01*
X110982Y21375D01*
X86639Y31458D01*
X64729Y46098D01*
X46098Y64729D01*
X31459Y86638D01*
X21375Y110982D01*
X16235Y136825D01*
Y150000D01*
Y577100D01*
X91400D01*
Y552700D01*
X193000D01*
X294600D01*
Y577100D01*
X330400D01*
Y694800D01*
X155000D01*
Y707500D01*
X142300D01*
Y837900D01*
X16235D01*
Y1467500D01*
X317500D01*
Y902500D01*
D02*
G37*
G36*
X539018Y2278625D02*
X563361Y2268541D01*
X585270Y2253902D01*
X603902Y2235270D01*
X618541Y2213361D01*
X628625Y2189018D01*
X633765Y2163174D01*
Y2150000D01*
Y1682820D01*
X548600D01*
Y1747300D01*
X345400D01*
Y1682820D01*
X325000D01*
Y1717500D01*
X290952D01*
X283896Y1728060D01*
X286724Y1734887D01*
X290030Y1760000D01*
X286724Y1785113D01*
X277031Y1808515D01*
X261611Y1828611D01*
X241515Y1844031D01*
X218113Y1853724D01*
X193000Y1857030D01*
X167887Y1853724D01*
X144485Y1844031D01*
X124390Y1828611D01*
X108970Y1808515D01*
X99276Y1785113D01*
X95970Y1760000D01*
X99276Y1734887D01*
X102104Y1728060D01*
X95048Y1717500D01*
X16235D01*
Y2150000D01*
Y2163174D01*
X21375Y2189018D01*
X31458Y2213361D01*
X46098Y2235270D01*
X64729Y2253902D01*
X86638Y2268541D01*
X110981Y2278625D01*
X136825Y2283765D01*
X205325D01*
X210386Y2272141D01*
X210301Y2271065D01*
X179342Y2245658D01*
X153724Y2214443D01*
X134689Y2178830D01*
X122966Y2140187D01*
X119008Y2100000D01*
X122966Y2059813D01*
X134689Y2021170D01*
X153724Y1985557D01*
X179342Y1954342D01*
X210557Y1928724D01*
X246170Y1909689D01*
X284813Y1897966D01*
X325000Y1894008D01*
X365187Y1897966D01*
X403830Y1909689D01*
X439443Y1928724D01*
X470658Y1954342D01*
X496276Y1985557D01*
X515312Y2021170D01*
X527034Y2059813D01*
X530992Y2100000D01*
X527034Y2140187D01*
X515312Y2178830D01*
X496276Y2214443D01*
X470658Y2245658D01*
X439700Y2271065D01*
X439614Y2272141D01*
X444675Y2283765D01*
X513174D01*
X539018Y2278625D01*
D02*
G37*
%LPC*%
G36*
X330400Y837900D02*
X167700D01*
Y720200D01*
X330400D01*
Y837900D01*
D02*
G37*
G36*
X294600Y527300D02*
X205700D01*
Y438400D01*
X294600D01*
Y527300D01*
D02*
G37*
G36*
X180300D02*
X91400D01*
Y438400D01*
X180300D01*
Y527300D01*
D02*
G37*
G36*
X548600Y1861600D02*
X459700D01*
Y1772700D01*
X548600D01*
Y1861600D01*
D02*
G37*
G36*
X434300D02*
X345400D01*
Y1772700D01*
X434300D01*
Y1861600D01*
D02*
G37*
%LPD*%
D10*
X580000Y1222671D02*
D03*
Y1077329D02*
D03*
D11*
X540000Y840199D02*
D03*
Y699800D02*
D03*
D12*
Y1442370D02*
D03*
Y1617630D02*
D03*
D13*
X430000Y1337500D02*
D03*
Y1212500D02*
D03*
Y1087500D02*
D03*
Y962500D02*
D03*
D14*
X160000Y707500D02*
D03*
Y1592500D02*
D03*
D15*
X155000Y707500D02*
Y1175000D01*
X192500Y1212500D02*
X430000D01*
X155000Y1175000D02*
X192500Y1212500D01*
X515870Y1442370D02*
X540000D01*
X485190Y1411690D02*
X515870Y1442370D01*
X485190Y1392690D02*
Y1411690D01*
X482500Y1390000D02*
X485190Y1392690D01*
X482500Y1365000D02*
Y1390000D01*
X455000Y1337500D02*
X482500Y1365000D01*
X430000Y1337500D02*
X455000D01*
X155000Y1592500D02*
X180130Y1617630D01*
X540000D01*
X430000Y1212500D02*
X569829D01*
X580000Y1222671D01*
X523335Y616335D02*
Y665705D01*
X447000Y540000D02*
X523335Y616335D01*
X447000Y540000D02*
Y540000D01*
X523335Y665705D02*
X540000Y682370D01*
X430000Y768240D02*
X515870Y682370D01*
X430000Y768240D02*
Y962500D01*
X515870Y682370D02*
X540000D01*
X549320Y857630D02*
X580000Y888310D01*
X540000Y857630D02*
X549320D01*
X580000Y888310D02*
Y1077329D01*
X569829Y1087500D02*
X580000Y1077329D01*
X430000Y1087500D02*
X569829D01*
D16*
X145000Y1651250D02*
Y1748750D01*
X240000Y1651250D02*
Y1748750D01*
D17*
X193000Y540000D02*
D03*
X447000Y1760000D02*
D03*
D18*
Y540000D02*
D03*
X193000Y1760000D02*
D03*
D19*
X325000Y2100000D02*
D03*
Y200000D02*
D03*
%TF.MD5,3f9c3fd4fb2d64124cdc0902ad4606d7*%
M02*
