M48
;Layer_Color=9474304
;FILE_FORMAT=4:4
METRIC,LZ
;TYPE=PLATED
T1F00S00C0.2500
T2F00S00C0.8890
T3F00S00C0.9000
T4F00S00C1.0200
T5F00S00C1.0400
T6F00S00C1.8542
T7F00S00C2.0100
%
T01
X0020452Y0021344
X0024275Y0021375
X00391Y0017525
X001775Y0031
X001725
Y00315
Y0032
X001775
Y00315
X001675
Y0032
Y0031
X00175Y00485
X00185
X00195
X00205
X00215
X00225
X002Y00415
Y00405
X0019
Y00395
Y00385
X002
Y00375
X0021Y00385
Y00395
Y00405
X002Y00395
X002325Y0032
Y00315
X002375
Y0032
X002425
Y00315
Y0031
X002375
X002325
T02
X0026335Y0004065
Y0006605
Y0009145
Y0011685
Y0014225
Y0016765
Y0019305
Y0021845
X0049195
Y0019305
Y0016765
Y0014225
Y0011685
Y0009145
Y0006605
Y0004065
T03
X000646Y0016
X0009
Y0035325
X000646
T04
X0035235Y0039285
X0037775
X0040315
Y0041825
X0037775
X0035235
T05
X0028875Y0001525
Y0004065
Y0006605
Y0009145
Y0011685
Y0014225
Y0016765
Y0019305
Y0021845
Y0024385
Y0026925
Y0029465
X0046655
Y0026925
Y0024385
Y0021845
Y0019305
Y0016765
Y0014225
Y0011685
Y0009145
Y0006605
Y0004065
Y0001525
Y0032005
Y0034545
Y0037085
Y0039625
Y0042165
Y0044705
Y0047245
Y0049785
X0028875
Y0047245
Y0044705
Y0042165
Y0039625
Y0037085
Y0034545
Y0032005
T06
X001345Y00037537
X001845
T07
X000392Y001092
Y0030245
X001408Y002108
Y0040405
M30
