%TF.GenerationSoftware,Altium Limited,Altium Designer,23.5.1 (21)*%
G04 Layer_Color=0*
%FSLAX45Y45*%
%MOMM*%
%TF.SameCoordinates,251D8D79-0CC1-4DB5-8A6B-B6CDDAA58204*%
%TF.FilePolarity,Positive*%
%TF.FileFunction,Plated,1,4,PTH,Drill*%
%TF.Part,Single*%
G01*
G75*
%TA.AperFunction,ComponentDrill*%
%ADD73C,0.25000*%
%ADD74C,1.85420*%
%ADD75C,0.88900*%
%ADD76C,1.04000*%
%ADD77C,2.01000*%
%ADD78C,0.90000*%
%ADD79C,1.02000*%
%TA.AperFunction,ViaDrill,NotFilled*%
%ADD80C,0.25000*%
D73*
X2000000Y4150000D02*
D03*
Y3750000D02*
D03*
X1900000Y4050000D02*
D03*
X2000000D02*
D03*
X2100000D02*
D03*
Y3850000D02*
D03*
X2000000D02*
D03*
X1900000D02*
D03*
X2100000Y3950000D02*
D03*
X1900000D02*
D03*
X2000000D02*
D03*
D74*
X1345000Y375370D02*
D03*
X1845000D02*
D03*
D75*
X4919500Y406500D02*
D03*
Y660500D02*
D03*
Y914500D02*
D03*
Y1168500D02*
D03*
Y1422500D02*
D03*
Y1676500D02*
D03*
Y1930500D02*
D03*
Y2184500D02*
D03*
X2633500Y406500D02*
D03*
Y660500D02*
D03*
Y914500D02*
D03*
Y1168500D02*
D03*
Y1422500D02*
D03*
Y1676500D02*
D03*
Y1930500D02*
D03*
Y2184500D02*
D03*
D76*
X4665498Y152500D02*
D03*
Y406500D02*
D03*
Y660500D02*
D03*
Y914500D02*
D03*
Y1168500D02*
D03*
Y1422500D02*
D03*
Y1676500D02*
D03*
Y1930500D02*
D03*
Y2184500D02*
D03*
Y2438500D02*
D03*
Y2692500D02*
D03*
Y2946500D02*
D03*
Y3200500D02*
D03*
Y3454500D02*
D03*
Y3708500D02*
D03*
Y3962500D02*
D03*
Y4216500D02*
D03*
Y4470500D02*
D03*
Y4724500D02*
D03*
Y4978500D02*
D03*
X2887500D02*
D03*
Y4724500D02*
D03*
Y4470500D02*
D03*
Y4216500D02*
D03*
Y3962500D02*
D03*
Y3708500D02*
D03*
Y3454500D02*
D03*
Y3200500D02*
D03*
Y2946500D02*
D03*
Y2692500D02*
D03*
Y2438500D02*
D03*
Y2184500D02*
D03*
Y1930500D02*
D03*
Y1676500D02*
D03*
Y1422500D02*
D03*
Y1168500D02*
D03*
Y914500D02*
D03*
Y660500D02*
D03*
Y406500D02*
D03*
Y152500D02*
D03*
D77*
X392000Y3024500D02*
D03*
X1408000Y4040500D02*
D03*
Y2108000D02*
D03*
X392000Y1092000D02*
D03*
D78*
X646000Y3532500D02*
D03*
X900000D02*
D03*
Y1600000D02*
D03*
X646000D02*
D03*
D79*
X4031500Y4182500D02*
D03*
Y3928500D02*
D03*
X3777500Y4182500D02*
D03*
Y3928500D02*
D03*
X3523500Y4182500D02*
D03*
Y3928500D02*
D03*
D80*
X3910000Y1752500D02*
D03*
X2050000Y4850000D02*
D03*
X1950000D02*
D03*
X1850000D02*
D03*
X1750000D02*
D03*
X2250000D02*
D03*
X2150000D02*
D03*
X2427500Y2137500D02*
D03*
X2045200Y2134401D02*
D03*
X1675000Y3200000D02*
D03*
X1725000D02*
D03*
X1775000Y3150000D02*
D03*
X1725000D02*
D03*
X1675000D02*
D03*
Y3100000D02*
D03*
X1725000D02*
D03*
X1775000D02*
D03*
Y3200000D02*
D03*
X2325000D02*
D03*
X2375000D02*
D03*
X2425000Y3150000D02*
D03*
X2375000D02*
D03*
X2325000D02*
D03*
Y3100000D02*
D03*
X2375000D02*
D03*
X2425000D02*
D03*
Y3200000D02*
D03*
%TF.MD5,41e0505f30a95aaf59f7a0cb0ef89535*%
M02*
