%TF.GenerationSoftware,Altium Limited,Altium Designer,23.5.1 (21)*%
G04 Layer_Color=128*
%FSLAX45Y45*%
%MOMM*%
%TF.SameCoordinates,251D8D79-0CC1-4DB5-8A6B-B6CDDAA58204*%
%TF.FilePolarity,Positive*%
%TF.FileFunction,Drillmap*%
%TF.Part,Single*%
G01*
G75*
%TA.AperFunction,NonConductor*%
%ADD57C,0.12700*%
D57*
X1987500Y4150000D02*
X2012500D01*
X2000000Y4137500D02*
Y4162500D01*
X1987500Y3750000D02*
X2012500D01*
X2000000Y3737500D02*
Y3762500D01*
X1887500Y4050000D02*
X1912500D01*
X1900000Y4037500D02*
Y4062500D01*
X1987500Y4050000D02*
X2012500D01*
X2000000Y4037500D02*
Y4062500D01*
X2087500Y4050000D02*
X2112500D01*
X2100000Y4037500D02*
Y4062500D01*
X2087500Y3850000D02*
X2112500D01*
X2100000Y3837500D02*
Y3862500D01*
X1987500Y3850000D02*
X2012500D01*
X2000000Y3837500D02*
Y3862500D01*
X1887500Y3850000D02*
X1912500D01*
X1900000Y3837500D02*
Y3862500D01*
X2087500Y3950000D02*
X2112500D01*
X2100000Y3937500D02*
Y3962500D01*
X1887500Y3950000D02*
X1912500D01*
X1900000Y3937500D02*
Y3962500D01*
X1987500Y3950000D02*
X2012500D01*
X2000000Y3937500D02*
Y3962500D01*
X1252290Y375370D02*
X1437710D01*
X1345000Y282660D02*
Y468080D01*
X1752290Y375370D02*
X1937710D01*
X1845000Y282660D02*
Y468080D01*
X4875050Y406500D02*
X4963950D01*
X4919500Y362050D02*
Y450950D01*
X4875050Y660500D02*
X4963950D01*
X4919500Y616050D02*
Y704950D01*
X4875050Y914500D02*
X4963950D01*
X4919500Y870050D02*
Y958950D01*
X4875050Y1168500D02*
X4963950D01*
X4919500Y1124050D02*
Y1212950D01*
X4875050Y1422500D02*
X4963950D01*
X4919500Y1378050D02*
Y1466950D01*
X4875050Y1676500D02*
X4963950D01*
X4919500Y1632050D02*
Y1720950D01*
X4875050Y1930500D02*
X4963950D01*
X4919500Y1886050D02*
Y1974950D01*
X4875050Y2184500D02*
X4963950D01*
X4919500Y2140050D02*
Y2228950D01*
X2589050Y406500D02*
X2677950D01*
X2633500Y362050D02*
Y450950D01*
X2589050Y660500D02*
X2677950D01*
X2633500Y616050D02*
Y704950D01*
X2589050Y914500D02*
X2677950D01*
X2633500Y870050D02*
Y958950D01*
X2589050Y1168500D02*
X2677950D01*
X2633500Y1124050D02*
Y1212950D01*
X2589050Y1422500D02*
X2677950D01*
X2633500Y1378050D02*
Y1466950D01*
X2589050Y1676500D02*
X2677950D01*
X2633500Y1632050D02*
Y1720950D01*
X2589050Y1930500D02*
X2677950D01*
X2633500Y1886050D02*
Y1974950D01*
X2589050Y2184500D02*
X2677950D01*
X2633500Y2140050D02*
Y2228950D01*
X4613499Y152500D02*
X4717498D01*
X4665498Y100500D02*
Y204500D01*
X4613499Y406500D02*
X4717498D01*
X4665498Y354500D02*
Y458500D01*
X4613499Y660500D02*
X4717498D01*
X4665498Y608500D02*
Y712500D01*
X4613499Y914500D02*
X4717498D01*
X4665498Y862500D02*
Y966500D01*
X4613499Y1168500D02*
X4717498D01*
X4665498Y1116500D02*
Y1220500D01*
X4613499Y1422500D02*
X4717498D01*
X4665498Y1370500D02*
Y1474500D01*
X4613499Y1676500D02*
X4717498D01*
X4665498Y1624500D02*
Y1728500D01*
X4613499Y1930500D02*
X4717498D01*
X4665498Y1878500D02*
Y1982500D01*
X4613499Y2184500D02*
X4717498D01*
X4665498Y2132500D02*
Y2236500D01*
X4613499Y2438500D02*
X4717498D01*
X4665498Y2386500D02*
Y2490500D01*
X4613499Y2692500D02*
X4717498D01*
X4665498Y2640500D02*
Y2744500D01*
X4613499Y2946500D02*
X4717498D01*
X4665498Y2894500D02*
Y2998500D01*
X4613499Y3200500D02*
X4717498D01*
X4665498Y3148500D02*
Y3252500D01*
X4613499Y3454500D02*
X4717498D01*
X4665498Y3402500D02*
Y3506500D01*
X4613499Y3708500D02*
X4717498D01*
X4665498Y3656500D02*
Y3760500D01*
X4613499Y3962500D02*
X4717498D01*
X4665498Y3910500D02*
Y4014500D01*
X4613499Y4216500D02*
X4717498D01*
X4665498Y4164500D02*
Y4268500D01*
X4613499Y4470500D02*
X4717498D01*
X4665498Y4418500D02*
Y4522500D01*
X4613499Y4724500D02*
X4717498D01*
X4665498Y4672500D02*
Y4776500D01*
X4613499Y4978500D02*
X4717498D01*
X4665498Y4926500D02*
Y5030500D01*
X2835500Y4978500D02*
X2939500D01*
X2887500Y4926500D02*
Y5030500D01*
X2835500Y4724500D02*
X2939500D01*
X2887500Y4672500D02*
Y4776500D01*
X2835500Y4470500D02*
X2939500D01*
X2887500Y4418500D02*
Y4522500D01*
X2835500Y4216500D02*
X2939500D01*
X2887500Y4164500D02*
Y4268500D01*
X2835500Y3962500D02*
X2939500D01*
X2887500Y3910500D02*
Y4014500D01*
X2835500Y3708500D02*
X2939500D01*
X2887500Y3656500D02*
Y3760500D01*
X2835500Y3454500D02*
X2939500D01*
X2887500Y3402500D02*
Y3506500D01*
X2835500Y3200500D02*
X2939500D01*
X2887500Y3148500D02*
Y3252500D01*
X2835500Y2946500D02*
X2939500D01*
X2887500Y2894500D02*
Y2998500D01*
X2835500Y2692500D02*
X2939500D01*
X2887500Y2640500D02*
Y2744500D01*
X2835500Y2438500D02*
X2939500D01*
X2887500Y2386500D02*
Y2490500D01*
X2835500Y2184500D02*
X2939500D01*
X2887500Y2132500D02*
Y2236500D01*
X2835500Y1930500D02*
X2939500D01*
X2887500Y1878500D02*
Y1982500D01*
X2835500Y1676500D02*
X2939500D01*
X2887500Y1624500D02*
Y1728500D01*
X2835500Y1422500D02*
X2939500D01*
X2887500Y1370500D02*
Y1474500D01*
X2835500Y1168500D02*
X2939500D01*
X2887500Y1116500D02*
Y1220500D01*
X2835500Y914500D02*
X2939500D01*
X2887500Y862500D02*
Y966500D01*
X2835500Y660500D02*
X2939500D01*
X2887500Y608500D02*
Y712500D01*
X2835500Y406500D02*
X2939500D01*
X2887500Y354500D02*
Y458500D01*
X2835500Y152500D02*
X2939500D01*
X2887500Y100500D02*
Y204500D01*
X291500Y3024500D02*
X492500D01*
X392000Y2924000D02*
Y3125000D01*
X1307500Y4040500D02*
X1508500D01*
X1408000Y3940000D02*
Y4141000D01*
X601000Y3532500D02*
X691000D01*
X646000Y3487500D02*
Y3577500D01*
X855000Y3532500D02*
X945000D01*
X900000Y3487500D02*
Y3577500D01*
X3980500Y4182500D02*
X4082500D01*
X4031500Y4131500D02*
Y4233500D01*
X3980500Y3928500D02*
X4082500D01*
X4031500Y3877500D02*
Y3979500D01*
X3726500Y4182500D02*
X3828500D01*
X3777500Y4131500D02*
Y4233500D01*
X3726500Y3928500D02*
X3828500D01*
X3777500Y3877500D02*
Y3979500D01*
X3472500Y4182500D02*
X3574500D01*
X3523500Y4131500D02*
Y4233500D01*
X3472500Y3928500D02*
X3574500D01*
X3523500Y3877500D02*
Y3979500D01*
X855000Y1600000D02*
X945000D01*
X900000Y1555000D02*
Y1645000D01*
X601000Y1600000D02*
X691000D01*
X646000Y1555000D02*
Y1645000D01*
X1307500Y2108000D02*
X1508500D01*
X1408000Y2007500D02*
Y2208500D01*
X291500Y1092000D02*
X492500D01*
X392000Y991500D02*
Y1192500D01*
X5245000Y400000D02*
X5555000D01*
X5400000Y245000D02*
Y555000D01*
X5245000Y4700000D02*
X5555000D01*
X5400000Y4545000D02*
Y4855000D01*
X245000Y4732500D02*
X555000D01*
X400000Y4577500D02*
Y4887500D01*
X245000Y400000D02*
X555000D01*
X400000Y245000D02*
Y555000D01*
X3897500Y1752500D02*
X3922500D01*
X3910000Y1740000D02*
Y1765000D01*
X2037500Y4850000D02*
X2062500D01*
X2050000Y4837500D02*
Y4862500D01*
X1937500Y4850000D02*
X1962500D01*
X1950000Y4837500D02*
Y4862500D01*
X1837500Y4850000D02*
X1862500D01*
X1850000Y4837500D02*
Y4862500D01*
X1737500Y4850000D02*
X1762500D01*
X1750000Y4837500D02*
Y4862500D01*
X2237500Y4850000D02*
X2262500D01*
X2250000Y4837500D02*
Y4862500D01*
X2137500Y4850000D02*
X2162500D01*
X2150000Y4837500D02*
Y4862500D01*
X2415000Y2137500D02*
X2440000D01*
X2427500Y2125000D02*
Y2150000D01*
X2032700Y2134401D02*
X2057699D01*
X2045200Y2121901D02*
Y2146901D01*
X1662500Y3200000D02*
X1687500D01*
X1675000Y3187500D02*
Y3212500D01*
X1712500Y3200000D02*
X1737500D01*
X1725000Y3187500D02*
Y3212500D01*
X1762500Y3150000D02*
X1787500D01*
X1775000Y3137500D02*
Y3162500D01*
X1712500Y3150000D02*
X1737500D01*
X1725000Y3137500D02*
Y3162500D01*
X1662500Y3150000D02*
X1687500D01*
X1675000Y3137500D02*
Y3162500D01*
X1662500Y3100000D02*
X1687500D01*
X1675000Y3087500D02*
Y3112500D01*
X1712500Y3100000D02*
X1737500D01*
X1725000Y3087500D02*
Y3112500D01*
X1762500Y3100000D02*
X1787500D01*
X1775000Y3087500D02*
Y3112500D01*
X1762500Y3200000D02*
X1787500D01*
X1775000Y3187500D02*
Y3212500D01*
X2312500Y3200000D02*
X2337500D01*
X2325000Y3187500D02*
Y3212500D01*
X2362500Y3200000D02*
X2387500D01*
X2375000Y3187500D02*
Y3212500D01*
X2412500Y3150000D02*
X2437500D01*
X2425000Y3137500D02*
Y3162500D01*
X2362500Y3150000D02*
X2387500D01*
X2375000Y3137500D02*
Y3162500D01*
X2312500Y3150000D02*
X2337500D01*
X2325000Y3137500D02*
Y3162500D01*
X2312500Y3100000D02*
X2337500D01*
X2325000Y3087500D02*
Y3112500D01*
X2362500Y3100000D02*
X2387500D01*
X2375000Y3087500D02*
Y3112500D01*
X2412500Y3100000D02*
X2437500D01*
X2425000Y3087500D02*
Y3112500D01*
X2412500Y3200000D02*
X2437500D01*
X2425000Y3187500D02*
Y3212500D01*
%TF.MD5,b060a0af61f696b1787bca31d36275b9*%
M02*
