%TF.GenerationSoftware,Altium Limited,Altium Designer,23.5.1 (21)*%
G04 Layer_Color=65535*
%FSLAX45Y45*%
%MOMM*%
%TF.SameCoordinates,251D8D79-0CC1-4DB5-8A6B-B6CDDAA58204*%
%TF.FilePolarity,Positive*%
%TF.FileFunction,Legend,Top*%
%TF.Part,Single*%
G01*
G75*
%TA.AperFunction,NonConductor*%
%ADD53C,0.20000*%
%ADD54C,0.50800*%
%ADD55C,0.25400*%
%ADD56C,0.15240*%
%ADD57C,0.12700*%
%ADD58C,0.07620*%
%ADD59C,0.15000*%
D53*
X4850000Y150000D02*
G03*
X4850000Y150000I-10000J0D01*
G01*
X2700000Y4980000D02*
G03*
X2700000Y4980000I-10000J0D01*
G01*
X3415000Y3840000D02*
G03*
X3415000Y3840000I-10000J0D01*
G01*
X4544848Y40000D02*
X4786148D01*
X4544848Y5100000D02*
X4786148D01*
X4544848Y40000D02*
Y5100000D01*
X4786148Y40000D02*
Y5100000D01*
X2766850D02*
X3008150D01*
X2766850Y40000D02*
X3008150D01*
Y5100000D01*
X2766850Y40000D02*
Y5100000D01*
X3015500D02*
X4539500D01*
X3015500Y4271500D02*
Y5100000D01*
X4539500Y4271500D02*
Y5100000D01*
X3015500Y4271500D02*
X3420000D01*
X4135000D02*
X4539500D01*
D54*
X2688100Y4620000D02*
G03*
X2688100Y4620000I-38100J0D01*
G01*
D55*
X5680000Y2838250D02*
G03*
X5680000Y2838250I0J-12700D01*
G01*
D56*
X4307383Y1388684D02*
G03*
X4292617Y1388684I-7383J1886D01*
G01*
X1460250Y4557900D02*
Y4692386D01*
Y5100000D02*
X2539750D01*
X1460250Y5068814D02*
Y5100000D01*
Y4557900D02*
X1738586D01*
X2539750D02*
Y4692386D01*
X2261414Y4557900D02*
X2539750D01*
Y5068814D02*
Y5100000D01*
X5755184Y2408550D02*
Y2723950D01*
X4347790Y1172530D02*
Y1327470D01*
X4152210Y1172530D02*
Y1327470D01*
X3798120Y809970D02*
Y1290030D01*
X3401880D02*
X3798120D01*
X3401880Y809970D02*
Y1290030D01*
Y809970D02*
X3798120D01*
D57*
X162000Y4352500D02*
X1638000D01*
Y2772500D02*
Y4352500D01*
X162000Y2772500D02*
X1638000D01*
X162000D02*
Y4352500D01*
Y840000D02*
Y2420000D01*
Y840000D02*
X1638000D01*
Y2420000D01*
X162000D02*
X1638000D01*
D58*
X3333266Y648680D02*
X3417906Y733319D01*
Y648680D02*
X3333266Y733319D01*
X3375586Y648680D02*
Y733319D01*
X3417906Y691000D02*
X3333266D01*
D59*
X4875851Y2775008D02*
Y2824992D01*
X4900843D01*
X4909174Y2816661D01*
Y2800000D01*
X4900843Y2791669D01*
X4875851D01*
X4892512D02*
X4909174Y2775008D01*
X4925835D02*
X4942496D01*
X4934165D01*
Y2824992D01*
X4925835Y2816661D01*
X4967488Y2775008D02*
X4984149D01*
X4975819D01*
Y2824992D01*
X4967488Y2816661D01*
X4867520Y2575008D02*
Y2624992D01*
X4892512D01*
X4900843Y2616661D01*
Y2600000D01*
X4892512Y2591669D01*
X4867520D01*
X4884181D02*
X4900843Y2575008D01*
X4917504D02*
X4934165D01*
X4925835D01*
Y2624992D01*
X4917504Y2616661D01*
X4959157D02*
X4967488Y2624992D01*
X4984149D01*
X4992480Y2616661D01*
Y2583339D01*
X4984149Y2575008D01*
X4967488D01*
X4959157Y2583339D01*
Y2616661D01*
X4898347Y2375008D02*
Y2424992D01*
X4923339D01*
X4931670Y2416661D01*
Y2400000D01*
X4923339Y2391669D01*
X4898347D01*
X4915008D02*
X4931670Y2375008D01*
X4948331Y2383339D02*
X4956661Y2375008D01*
X4973323D01*
X4981653Y2383339D01*
Y2416661D01*
X4973323Y2424992D01*
X4956661D01*
X4948331Y2416661D01*
Y2408331D01*
X4956661Y2400000D01*
X4981653D01*
X4385008Y1218347D02*
X4426661D01*
X4434992Y1226678D01*
Y1243339D01*
X4426661Y1251670D01*
X4385008D01*
X4434992Y1301653D02*
Y1268331D01*
X4401669Y1301653D01*
X4393339D01*
X4385008Y1293323D01*
Y1276661D01*
X4393339Y1268331D01*
X3835008Y1006678D02*
X3876661D01*
X3884992Y1015008D01*
Y1031670D01*
X3876661Y1040000D01*
X3835008D01*
X3884992Y1056661D02*
Y1073322D01*
Y1064992D01*
X3835008D01*
X3843339Y1056661D01*
X3224992Y1508347D02*
X3175008D01*
Y1533339D01*
X3183339Y1541670D01*
X3200000D01*
X3208331Y1533339D01*
Y1508347D01*
Y1525008D02*
X3224992Y1541670D01*
X3183339Y1558331D02*
X3175008Y1566661D01*
Y1583322D01*
X3183339Y1591653D01*
X3191669D01*
X3200000Y1583322D01*
Y1574992D01*
Y1583322D01*
X3208331Y1591653D01*
X3216661D01*
X3224992Y1583322D01*
Y1566661D01*
X3216661Y1558331D01*
X3224992Y958347D02*
X3175008D01*
Y983339D01*
X3183339Y991670D01*
X3200000D01*
X3208331Y983339D01*
Y958347D01*
Y975008D02*
X3224992Y991670D01*
Y1041653D02*
Y1008331D01*
X3191669Y1041653D01*
X3183339D01*
X3175008Y1033323D01*
Y1016661D01*
X3183339Y1008331D01*
X4324992Y1766677D02*
X4275008D01*
Y1791669D01*
X4283338Y1800000D01*
X4300000D01*
X4308330Y1791669D01*
Y1766677D01*
Y1783339D02*
X4324992Y1800000D01*
Y1816661D02*
Y1833322D01*
Y1824992D01*
X4275008D01*
X4283338Y1816661D01*
X3801670Y1666661D02*
X3793339Y1674992D01*
X3776678D01*
X3768347Y1666661D01*
Y1633339D01*
X3776678Y1625008D01*
X3793339D01*
X3801670Y1633339D01*
X3818331Y1666661D02*
X3826661Y1674992D01*
X3843323D01*
X3851653Y1666661D01*
Y1658331D01*
X3843323Y1650000D01*
X3834992D01*
X3843323D01*
X3851653Y1641669D01*
Y1633339D01*
X3843323Y1625008D01*
X3826661D01*
X3818331Y1633339D01*
X3983338Y1471670D02*
X3975008Y1463339D01*
Y1446678D01*
X3983338Y1438347D01*
X4016661D01*
X4024992Y1446678D01*
Y1463339D01*
X4016661Y1471670D01*
X4024992Y1521653D02*
Y1488331D01*
X3991669Y1521653D01*
X3983338D01*
X3975008Y1513323D01*
Y1496661D01*
X3983338Y1488331D01*
X5518363Y2936242D02*
Y2886258D01*
X5551686D01*
X5601670Y2936242D02*
X5568347D01*
Y2886258D01*
X5601670D01*
X5568347Y2911250D02*
X5585008D01*
X5618331Y2936242D02*
Y2886258D01*
X5643322D01*
X5651653Y2894589D01*
Y2927911D01*
X5643322Y2936242D01*
X5618331D01*
X5701637Y2886258D02*
X5668314D01*
X5701637Y2919581D01*
Y2927911D01*
X5693306Y2936242D01*
X5676645D01*
X5668314Y2927911D01*
X1551670Y4494992D02*
X1535008D01*
X1543339D01*
Y4453339D01*
X1535008Y4445008D01*
X1526678D01*
X1518347Y4453339D01*
X1568331Y4494992D02*
X1601653D01*
Y4486661D01*
X1568331Y4453339D01*
Y4445008D01*
X1721670Y2854992D02*
X1705008D01*
X1713339D01*
Y2813339D01*
X1705008Y2805008D01*
X1696678D01*
X1688347Y2813339D01*
X1771653Y2854992D02*
X1754992Y2846661D01*
X1738331Y2830000D01*
Y2813339D01*
X1746661Y2805008D01*
X1763323D01*
X1771653Y2813339D01*
Y2821669D01*
X1763323Y2830000D01*
X1738331D01*
X1721670Y924992D02*
X1705008D01*
X1713339D01*
Y883339D01*
X1705008Y875008D01*
X1696678D01*
X1688347Y883339D01*
X1771653Y924992D02*
X1738331D01*
Y900000D01*
X1754992Y908331D01*
X1763323D01*
X1771653Y900000D01*
Y883339D01*
X1763323Y875008D01*
X1746661D01*
X1738331Y883339D01*
X4261670Y4094992D02*
X4245008D01*
X4253339D01*
Y4053339D01*
X4245008Y4045008D01*
X4236678D01*
X4228347Y4053339D01*
X4303323Y4045008D02*
Y4094992D01*
X4278331Y4070000D01*
X4311653D01*
X4911670Y174992D02*
X4895008D01*
X4903339D01*
Y133339D01*
X4895008Y125008D01*
X4886678D01*
X4878347Y133339D01*
X4961653Y125008D02*
X4928331D01*
X4961653Y158331D01*
Y166661D01*
X4953323Y174992D01*
X4936661D01*
X4928331Y166661D01*
X2630000Y174992D02*
X2613339D01*
X2621670D01*
Y133339D01*
X2613339Y125008D01*
X2605009D01*
X2596678Y133339D01*
X2646661Y125008D02*
X2663323D01*
X2654992D01*
Y174992D01*
X2646661Y166661D01*
%TF.MD5,01c1290275124ea544d62d09d1084b22*%
M02*
