%TF.GenerationSoftware,Altium Limited,Altium Designer,23.5.1 (21)*%
G04 Layer_Color=2752767*
%FSLAX45Y45*%
%MOMM*%
%TF.SameCoordinates,251D8D79-0CC1-4DB5-8A6B-B6CDDAA58204*%
%TF.FilePolarity,Positive*%
%TF.FileFunction,Drawing*%
%TF.Part,Single*%
G01*
G75*
%TA.AperFunction,NonConductor*%
%ADD55C,0.25400*%
%ADD66C,0.38100*%
%ADD81C,0.08467*%
%ADD82C,0.40640*%
D55*
X7209231Y2477350D02*
G03*
X7209231Y2477350I-84667J0D01*
G01*
X7039898Y3154684D02*
Y3197017D01*
X7082231Y3239350D01*
X7039898Y3281683D02*
X7082231Y3239350D01*
X7039898Y3281683D02*
Y3324017D01*
X7082231D01*
X7124565Y3281683D01*
X7166898Y3324017D01*
X7209231D01*
Y3281683D02*
Y3324017D01*
X7166898Y3239350D02*
X7209231Y3281683D01*
X7166898Y3239350D02*
X7209231Y3197017D01*
Y3154684D02*
Y3197017D01*
X7166898Y3154684D02*
X7209231D01*
X7124565Y3197017D02*
X7166898Y3154684D01*
X7082231D02*
X7124565Y3197017D01*
X7039898Y3154684D02*
X7082231D01*
X7039898Y2773684D02*
X7209231D01*
Y2943017D01*
X7039898D02*
X7209231D01*
X7039898Y2773684D02*
Y2943017D01*
X7124565Y2011684D02*
X7209231Y2181017D01*
X7039898D02*
X7209231D01*
X7039898D02*
X7124565Y2011684D01*
X7039898Y1630684D02*
X7124565Y1673017D01*
X7209231Y1630684D01*
X7166898Y1715350D02*
X7209231Y1630684D01*
X7166898Y1715350D02*
X7209231Y1800017D01*
X7124565Y1757683D02*
X7209231Y1800017D01*
X7039898D02*
X7124565Y1757683D01*
X7039898Y1800017D02*
X7082231Y1715350D01*
X7039898Y1630684D02*
X7082231Y1715350D01*
Y1292017D02*
X7124565Y1249684D01*
X7039898Y1292017D02*
X7082231D01*
X7039898D02*
X7082231Y1334350D01*
X7039898Y1376683D02*
X7082231Y1334350D01*
X7039898Y1376683D02*
X7082231D01*
X7124565Y1419017D01*
X7166898Y1376683D01*
X7209231D01*
X7166898Y1334350D02*
X7209231Y1376683D01*
X7166898Y1334350D02*
X7209231Y1292017D01*
X7166898D02*
X7209231D01*
X7124565Y1249684D02*
X7166898Y1292017D01*
X7039898Y911017D02*
X7082231D01*
X7039898D02*
Y995683D01*
X7082231D01*
Y1038017D01*
X7166898D01*
Y995683D02*
Y1038017D01*
Y995683D02*
X7209231D01*
Y911017D02*
Y995683D01*
X7166898Y911017D02*
X7209231D01*
X7166898Y868684D02*
Y911017D01*
X7082231Y868684D02*
X7166898D01*
X7082231D02*
Y911017D01*
X7039898Y572350D02*
X7124565Y487684D01*
X7209231Y572350D01*
X7124565Y657017D02*
X7209231Y572350D01*
X7039898D02*
X7124565Y657017D01*
X23220868Y3256251D02*
X23144693D01*
X23119301Y3230859D01*
Y3180075D01*
X23144693Y3154684D01*
X23220868D01*
X23271652D02*
X23322435D01*
X23297044D01*
Y3307034D01*
X23271652Y3281642D01*
X23398611D02*
X23424002Y3307034D01*
X23474786D01*
X23500179Y3281642D01*
Y3256251D01*
X23474786Y3230859D01*
X23500179Y3205467D01*
Y3180075D01*
X23474786Y3154684D01*
X23424002D01*
X23398611Y3180075D01*
Y3205467D01*
X23424002Y3230859D01*
X23398611Y3256251D01*
Y3281642D01*
X23424002Y3230859D02*
X23474786D01*
X23652528Y3307034D02*
X23550961D01*
Y3230859D01*
X23601746Y3256251D01*
X23627138D01*
X23652528Y3230859D01*
Y3180075D01*
X23627138Y3154684D01*
X23576353D01*
X23550961Y3180075D01*
X23703313Y3307034D02*
Y3154684D01*
Y3230859D01*
X23728703Y3256251D01*
X23779488D01*
X23804880Y3230859D01*
Y3154684D01*
X23855663D02*
X23906445D01*
X23881055D01*
Y3307034D01*
X23855663Y3281642D01*
X23982622D02*
X24008012Y3307034D01*
X24058797D01*
X24084189Y3281642D01*
Y3256251D01*
X24058797Y3230859D01*
X24084189Y3205467D01*
Y3180075D01*
X24058797Y3154684D01*
X24008012D01*
X23982622Y3180075D01*
Y3205467D01*
X24008012Y3230859D01*
X23982622Y3256251D01*
Y3281642D01*
X24008012Y3230859D02*
X24058797D01*
X24236540Y3307034D02*
X24134972D01*
Y3230859D01*
X24185756Y3256251D01*
X24211148D01*
X24236540Y3230859D01*
Y3180075D01*
X24211148Y3154684D01*
X24160364D01*
X24134972Y3180075D01*
X24287323Y3154684D02*
Y3256251D01*
X24312715D01*
X24338107Y3230859D01*
Y3154684D01*
Y3230859D01*
X24363498Y3256251D01*
X24388890Y3230859D01*
Y3154684D01*
X24439674Y3281642D02*
X24465067Y3307034D01*
X24515849D01*
X24541241Y3281642D01*
Y3180075D01*
X24515849Y3154684D01*
X24465067D01*
X24439674Y3180075D01*
Y3281642D01*
X24592024Y3154684D02*
Y3256251D01*
X24617416D01*
X24642809Y3230859D01*
Y3154684D01*
Y3230859D01*
X24668201Y3256251D01*
X24693591Y3230859D01*
Y3154684D01*
X24744376Y3256251D02*
X24845943Y3154684D01*
X24795158Y3205467D01*
X24845943Y3256251D01*
X24744376Y3154684D01*
X24896725Y3281642D02*
X24922118Y3307034D01*
X24972900D01*
X24998293Y3281642D01*
Y3180075D01*
X24972900Y3154684D01*
X24922118D01*
X24896725Y3180075D01*
Y3281642D01*
X23220868Y2875251D02*
X23144693D01*
X23119301Y2849859D01*
Y2799075D01*
X23144693Y2773684D01*
X23220868D01*
X23271652D02*
X23322435D01*
X23297044D01*
Y2926034D01*
X23271652Y2900642D01*
X23474786Y2773684D02*
Y2926034D01*
X23398611Y2849859D01*
X23500179D01*
X23550961Y2773684D02*
X23601746D01*
X23576353D01*
Y2926034D01*
X23550961Y2900642D01*
X23677921Y2926034D02*
Y2773684D01*
Y2849859D01*
X23703313Y2875251D01*
X23754095D01*
X23779488Y2849859D01*
Y2773684D01*
X23830270Y2799075D02*
X23855663Y2773684D01*
X23906445D01*
X23931837Y2799075D01*
Y2900642D01*
X23906445Y2926034D01*
X23855663D01*
X23830270Y2900642D01*
Y2875251D01*
X23855663Y2849859D01*
X23931837D01*
X23982622Y2900642D02*
X24008012Y2926034D01*
X24058797D01*
X24084189Y2900642D01*
Y2799075D01*
X24058797Y2773684D01*
X24008012D01*
X23982622Y2799075D01*
Y2900642D01*
X24134972Y2773684D02*
Y2875251D01*
X24160364D01*
X24185756Y2849859D01*
Y2773684D01*
Y2849859D01*
X24211148Y2875251D01*
X24236540Y2849859D01*
Y2773684D01*
X24287323Y2900642D02*
X24312715Y2926034D01*
X24363498D01*
X24388890Y2900642D01*
Y2799075D01*
X24363498Y2773684D01*
X24312715D01*
X24287323Y2799075D01*
Y2900642D01*
X24439674Y2773684D02*
Y2875251D01*
X24465067D01*
X24490457Y2849859D01*
Y2773684D01*
Y2849859D01*
X24515849Y2875251D01*
X24541241Y2849859D01*
Y2773684D01*
X24592024Y2875251D02*
X24693591Y2773684D01*
X24642809Y2824467D01*
X24693591Y2875251D01*
X24592024Y2773684D01*
X24744376Y2900642D02*
X24769768Y2926034D01*
X24820551D01*
X24845943Y2900642D01*
Y2799075D01*
X24820551Y2773684D01*
X24769768D01*
X24744376Y2799075D01*
Y2900642D01*
X23220868Y2494251D02*
X23144693D01*
X23119301Y2468859D01*
Y2418075D01*
X23144693Y2392684D01*
X23220868D01*
X23271652Y2519642D02*
X23297044Y2545034D01*
X23347827D01*
X23373219Y2519642D01*
Y2494251D01*
X23347827Y2468859D01*
X23322435D01*
X23347827D01*
X23373219Y2443467D01*
Y2418075D01*
X23347827Y2392684D01*
X23297044D01*
X23271652Y2418075D01*
X23424002Y2519642D02*
X23449394Y2545034D01*
X23500179D01*
X23525571Y2519642D01*
Y2418075D01*
X23500179Y2392684D01*
X23449394D01*
X23424002Y2418075D01*
Y2519642D01*
X23677921Y2392684D02*
X23576353D01*
X23677921Y2494251D01*
Y2519642D01*
X23652528Y2545034D01*
X23601746D01*
X23576353Y2519642D01*
X23728703Y2545034D02*
Y2392684D01*
Y2468859D01*
X23754095Y2494251D01*
X23804880D01*
X23830270Y2468859D01*
Y2392684D01*
X23982622D02*
X23881055D01*
X23982622Y2494251D01*
Y2519642D01*
X23957230Y2545034D01*
X23906445D01*
X23881055Y2519642D01*
X24033405D02*
X24058797Y2545034D01*
X24109581D01*
X24134973Y2519642D01*
Y2418075D01*
X24109581Y2392684D01*
X24058797D01*
X24033405Y2418075D01*
Y2519642D01*
X24185756Y2392684D02*
X24236540D01*
X24211148D01*
Y2545034D01*
X24185756Y2519642D01*
X24312715Y2392684D02*
Y2494251D01*
X24338107D01*
X24363498Y2468859D01*
Y2392684D01*
Y2468859D01*
X24388890Y2494251D01*
X24414282Y2468859D01*
Y2392684D01*
X24465067Y2519642D02*
X24490457Y2545034D01*
X24541241D01*
X24566634Y2519642D01*
Y2418075D01*
X24541241Y2392684D01*
X24490457D01*
X24465067Y2418075D01*
Y2519642D01*
X24617416Y2392684D02*
Y2494251D01*
X24642809D01*
X24668201Y2468859D01*
Y2392684D01*
Y2468859D01*
X24693591Y2494251D01*
X24718983Y2468859D01*
Y2392684D01*
X24769768Y2494251D02*
X24871333Y2392684D01*
X24820551Y2443467D01*
X24871333Y2494251D01*
X24769768Y2392684D01*
X24922118Y2519642D02*
X24947510Y2545034D01*
X24998293D01*
X25023685Y2519642D01*
Y2418075D01*
X24998293Y2392684D01*
X24947510D01*
X24922118Y2418075D01*
Y2519642D01*
X23220868Y2113251D02*
X23144693D01*
X23119301Y2087859D01*
Y2037075D01*
X23144693Y2011684D01*
X23220868D01*
X23373219Y2164034D02*
X23322435Y2138642D01*
X23271652Y2087859D01*
Y2037075D01*
X23297044Y2011684D01*
X23347827D01*
X23373219Y2037075D01*
Y2062467D01*
X23347827Y2087859D01*
X23271652D01*
X23424002Y2138642D02*
X23449394Y2164034D01*
X23500179D01*
X23525571Y2138642D01*
Y2037075D01*
X23500179Y2011684D01*
X23449394D01*
X23424002Y2037075D01*
Y2138642D01*
X23576353D02*
X23601746Y2164034D01*
X23652528D01*
X23677921Y2138642D01*
Y2037075D01*
X23652528Y2011684D01*
X23601746D01*
X23576353Y2037075D01*
Y2138642D01*
X23728703Y2164034D02*
Y2011684D01*
Y2087859D01*
X23754095Y2113251D01*
X23804880D01*
X23830270Y2087859D01*
Y2011684D01*
X23881055D02*
Y2113251D01*
X23957230D01*
X23982622Y2087859D01*
Y2011684D01*
X24033405Y2138642D02*
X24058797Y2164034D01*
X24109581D01*
X24134973Y2138642D01*
Y2113251D01*
X24109581Y2087859D01*
X24084189D01*
X24109581D01*
X24134973Y2062467D01*
Y2037075D01*
X24109581Y2011684D01*
X24058797D01*
X24033405Y2037075D01*
X24185756Y2011684D02*
X24236540D01*
X24211148D01*
Y2164034D01*
X24185756Y2138642D01*
X24312715D02*
X24338107Y2164034D01*
X24388890D01*
X24414282Y2138642D01*
Y2037075D01*
X24388890Y2011684D01*
X24338107D01*
X24312715Y2037075D01*
Y2138642D01*
X24465067Y2011684D02*
Y2113251D01*
X24490457D01*
X24515849Y2087859D01*
Y2011684D01*
Y2087859D01*
X24541241Y2113251D01*
X24566634Y2087859D01*
Y2011684D01*
X24718983Y2164034D02*
X24668201Y2138642D01*
X24617416Y2087859D01*
Y2037075D01*
X24642809Y2011684D01*
X24693591D01*
X24718983Y2037075D01*
Y2062467D01*
X24693591Y2087859D01*
X24617416D01*
X24769768Y2138642D02*
X24795158Y2164034D01*
X24845943D01*
X24871333Y2138642D01*
Y2037075D01*
X24845943Y2011684D01*
X24795158D01*
X24769768Y2037075D01*
Y2138642D01*
X24922118D02*
X24947510Y2164034D01*
X24998293D01*
X25023685Y2138642D01*
Y2037075D01*
X24998293Y2011684D01*
X24947510D01*
X24922118Y2037075D01*
Y2138642D01*
X23170084Y1630684D02*
X23119301Y1681467D01*
Y1732251D01*
X23170084Y1783034D01*
X23246260Y1630684D02*
Y1783034D01*
X23297043Y1732251D01*
X23347827Y1783034D01*
Y1630684D01*
X23398611D02*
X23449394D01*
X23424002D01*
Y1732251D01*
X23398611D01*
X23525569D02*
X23627138Y1630684D01*
X23576353Y1681467D01*
X23627138Y1732251D01*
X23525569Y1630684D01*
X23754095D02*
X23703313D01*
X23677921Y1656075D01*
Y1706859D01*
X23703313Y1732251D01*
X23754095D01*
X23779488Y1706859D01*
Y1681467D01*
X23677921D01*
X23931837Y1783034D02*
Y1630684D01*
X23855663D01*
X23830270Y1656075D01*
Y1706859D01*
X23855663Y1732251D01*
X23931837D01*
X23982622Y1630684D02*
X24033405Y1681467D01*
Y1732251D01*
X23982622Y1783034D01*
X23170084Y1249684D02*
X23119301Y1300467D01*
Y1351251D01*
X23170084Y1402034D01*
X23246260Y1249684D02*
Y1402034D01*
X23297043Y1351251D01*
X23347827Y1402034D01*
Y1249684D01*
X23398611D02*
X23449394D01*
X23424002D01*
Y1351251D01*
X23398611D01*
X23525569D02*
X23627138Y1249684D01*
X23576353Y1300467D01*
X23627138Y1351251D01*
X23525569Y1249684D01*
X23754095D02*
X23703313D01*
X23677921Y1275075D01*
Y1325859D01*
X23703313Y1351251D01*
X23754095D01*
X23779488Y1325859D01*
Y1300467D01*
X23677921D01*
X23931837Y1402034D02*
Y1249684D01*
X23855663D01*
X23830270Y1275075D01*
Y1325859D01*
X23855663Y1351251D01*
X23931837D01*
X23982622Y1249684D02*
X24033405Y1300467D01*
Y1351251D01*
X23982622Y1402034D01*
X23170084Y868684D02*
X23119301Y919467D01*
Y970251D01*
X23170084Y1021034D01*
X23246260Y868684D02*
Y1021034D01*
X23297043Y970251D01*
X23347827Y1021034D01*
Y868684D01*
X23398611D02*
X23449394D01*
X23424002D01*
Y970251D01*
X23398611D01*
X23525569D02*
X23627138Y868684D01*
X23576353Y919467D01*
X23627138Y970251D01*
X23525569Y868684D01*
X23754095D02*
X23703313D01*
X23677921Y894075D01*
Y944859D01*
X23703313Y970251D01*
X23754095D01*
X23779488Y944859D01*
Y919467D01*
X23677921D01*
X23931837Y1021034D02*
Y868684D01*
X23855663D01*
X23830270Y894075D01*
Y944859D01*
X23855663Y970251D01*
X23931837D01*
X23982622Y868684D02*
X24033405Y919467D01*
Y970251D01*
X23982622Y1021034D01*
X23170084Y487684D02*
X23119301Y538467D01*
Y589251D01*
X23170084Y640034D01*
X23246260Y487684D02*
Y640034D01*
X23297043Y589251D01*
X23347827Y640034D01*
Y487684D01*
X23398611D02*
X23449394D01*
X23424002D01*
Y589251D01*
X23398611D01*
X23525569D02*
X23627138Y487684D01*
X23576353Y538467D01*
X23627138Y589251D01*
X23525569Y487684D01*
X23754095D02*
X23703313D01*
X23677921Y513075D01*
Y563859D01*
X23703313Y589251D01*
X23754095D01*
X23779488Y563859D01*
Y538467D01*
X23677921D01*
X23931837Y640034D02*
Y487684D01*
X23855663D01*
X23830270Y513075D01*
Y563859D01*
X23855663Y589251D01*
X23931837D01*
X23982622Y487684D02*
X24033405Y538467D01*
Y589251D01*
X23982622Y640034D01*
X21224974Y3154684D02*
Y3307034D01*
X21301149D01*
X21326541Y3281642D01*
Y3230859D01*
X21301149Y3205467D01*
X21224974D01*
X21275757D02*
X21326541Y3154684D01*
X21402716D02*
X21453500D01*
X21478893Y3180075D01*
Y3230859D01*
X21453500Y3256251D01*
X21402716D01*
X21377325Y3230859D01*
Y3180075D01*
X21402716Y3154684D01*
X21529675Y3256251D02*
Y3180075D01*
X21555067Y3154684D01*
X21631242D01*
Y3256251D01*
X21682027Y3154684D02*
Y3256251D01*
X21758202D01*
X21783594Y3230859D01*
Y3154684D01*
X21935944Y3307034D02*
Y3154684D01*
X21859769D01*
X21834377Y3180075D01*
Y3230859D01*
X21859769Y3256251D01*
X21935944D01*
X22062903Y3154684D02*
X22012119D01*
X21986726Y3180075D01*
Y3230859D01*
X22012119Y3256251D01*
X22062903D01*
X22088295Y3230859D01*
Y3205467D01*
X21986726D01*
X22240645Y3307034D02*
Y3154684D01*
X22164470D01*
X22139078Y3180075D01*
Y3230859D01*
X22164470Y3256251D01*
X22240645D01*
X21224974Y2773684D02*
Y2926034D01*
X21301149D01*
X21326541Y2900642D01*
Y2849859D01*
X21301149Y2824467D01*
X21224974D01*
X21275757D02*
X21326541Y2773684D01*
X21402716D02*
X21453500D01*
X21478893Y2799075D01*
Y2849859D01*
X21453500Y2875251D01*
X21402716D01*
X21377325Y2849859D01*
Y2799075D01*
X21402716Y2773684D01*
X21529675Y2875251D02*
Y2799075D01*
X21555067Y2773684D01*
X21631242D01*
Y2875251D01*
X21682027Y2773684D02*
Y2875251D01*
X21758202D01*
X21783594Y2849859D01*
Y2773684D01*
X21935944Y2926034D02*
Y2773684D01*
X21859769D01*
X21834377Y2799075D01*
Y2849859D01*
X21859769Y2875251D01*
X21935944D01*
X22062903Y2773684D02*
X22012119D01*
X21986726Y2799075D01*
Y2849859D01*
X22012119Y2875251D01*
X22062903D01*
X22088295Y2849859D01*
Y2824467D01*
X21986726D01*
X22240645Y2926034D02*
Y2773684D01*
X22164470D01*
X22139078Y2799075D01*
Y2849859D01*
X22164470Y2875251D01*
X22240645D01*
X21224974Y2392684D02*
Y2545034D01*
X21301149D01*
X21326541Y2519642D01*
Y2468859D01*
X21301149Y2443467D01*
X21224974D01*
X21275757D02*
X21326541Y2392684D01*
X21402716D02*
X21453500D01*
X21478893Y2418075D01*
Y2468859D01*
X21453500Y2494251D01*
X21402716D01*
X21377325Y2468859D01*
Y2418075D01*
X21402716Y2392684D01*
X21529675Y2494251D02*
Y2418075D01*
X21555067Y2392684D01*
X21631242D01*
Y2494251D01*
X21682027Y2392684D02*
Y2494251D01*
X21758202D01*
X21783594Y2468859D01*
Y2392684D01*
X21935944Y2545034D02*
Y2392684D01*
X21859769D01*
X21834377Y2418075D01*
Y2468859D01*
X21859769Y2494251D01*
X21935944D01*
X22062903Y2392684D02*
X22012119D01*
X21986726Y2418075D01*
Y2468859D01*
X22012119Y2494251D01*
X22062903D01*
X22088295Y2468859D01*
Y2443467D01*
X21986726D01*
X22240645Y2545034D02*
Y2392684D01*
X22164470D01*
X22139078Y2418075D01*
Y2468859D01*
X22164470Y2494251D01*
X22240645D01*
X21224974Y2011684D02*
Y2164034D01*
X21301149D01*
X21326541Y2138642D01*
Y2087859D01*
X21301149Y2062467D01*
X21224974D01*
X21275757D02*
X21326541Y2011684D01*
X21402716D02*
X21453500D01*
X21478893Y2037075D01*
Y2087859D01*
X21453500Y2113251D01*
X21402716D01*
X21377325Y2087859D01*
Y2037075D01*
X21402716Y2011684D01*
X21529675Y2113251D02*
Y2037075D01*
X21555067Y2011684D01*
X21631242D01*
Y2113251D01*
X21682027Y2011684D02*
Y2113251D01*
X21758202D01*
X21783594Y2087859D01*
Y2011684D01*
X21935944Y2164034D02*
Y2011684D01*
X21859769D01*
X21834377Y2037075D01*
Y2087859D01*
X21859769Y2113251D01*
X21935944D01*
X22062903Y2011684D02*
X22012119D01*
X21986726Y2037075D01*
Y2087859D01*
X22012119Y2113251D01*
X22062903D01*
X22088295Y2087859D01*
Y2062467D01*
X21986726D01*
X22240645Y2164034D02*
Y2011684D01*
X22164470D01*
X22139078Y2037075D01*
Y2087859D01*
X22164470Y2113251D01*
X22240645D01*
X21275757Y1630684D02*
X21224974Y1681467D01*
Y1732251D01*
X21275757Y1783034D01*
X21351933Y1630684D02*
Y1783034D01*
X21402716Y1732251D01*
X21453500Y1783034D01*
Y1630684D01*
X21504283D02*
X21555067D01*
X21529675D01*
Y1732251D01*
X21504283D01*
X21631242D02*
X21732809Y1630684D01*
X21682027Y1681467D01*
X21732809Y1732251D01*
X21631242Y1630684D01*
X21859769D02*
X21808984D01*
X21783594Y1656075D01*
Y1706859D01*
X21808984Y1732251D01*
X21859769D01*
X21885159Y1706859D01*
Y1681467D01*
X21783594D01*
X22037511Y1783034D02*
Y1630684D01*
X21961336D01*
X21935944Y1656075D01*
Y1706859D01*
X21961336Y1732251D01*
X22037511D01*
X22088293Y1630684D02*
X22139078Y1681467D01*
Y1732251D01*
X22088293Y1783034D01*
X21275757Y1249684D02*
X21224974Y1300467D01*
Y1351251D01*
X21275757Y1402034D01*
X21351933Y1249684D02*
Y1402034D01*
X21402716Y1351251D01*
X21453500Y1402034D01*
Y1249684D01*
X21504283D02*
X21555067D01*
X21529675D01*
Y1351251D01*
X21504283D01*
X21631242D02*
X21732809Y1249684D01*
X21682027Y1300467D01*
X21732809Y1351251D01*
X21631242Y1249684D01*
X21859769D02*
X21808984D01*
X21783594Y1275075D01*
Y1325859D01*
X21808984Y1351251D01*
X21859769D01*
X21885159Y1325859D01*
Y1300467D01*
X21783594D01*
X22037511Y1402034D02*
Y1249684D01*
X21961336D01*
X21935944Y1275075D01*
Y1325859D01*
X21961336Y1351251D01*
X22037511D01*
X22088293Y1249684D02*
X22139078Y1300467D01*
Y1351251D01*
X22088293Y1402034D01*
X21224974Y868684D02*
Y1021034D01*
X21301149D01*
X21326541Y995642D01*
Y944859D01*
X21301149Y919467D01*
X21224974D01*
X21275757D02*
X21326541Y868684D01*
X21402716D02*
X21453500D01*
X21478893Y894075D01*
Y944859D01*
X21453500Y970251D01*
X21402716D01*
X21377325Y944859D01*
Y894075D01*
X21402716Y868684D01*
X21529675Y970251D02*
Y894075D01*
X21555067Y868684D01*
X21631242D01*
Y970251D01*
X21682027Y868684D02*
Y970251D01*
X21758202D01*
X21783594Y944859D01*
Y868684D01*
X21935944Y1021034D02*
Y868684D01*
X21859769D01*
X21834377Y894075D01*
Y944859D01*
X21859769Y970251D01*
X21935944D01*
X22062903Y868684D02*
X22012119D01*
X21986726Y894075D01*
Y944859D01*
X22012119Y970251D01*
X22062903D01*
X22088295Y944859D01*
Y919467D01*
X21986726D01*
X22240645Y1021034D02*
Y868684D01*
X22164470D01*
X22139078Y894075D01*
Y944859D01*
X22164470Y970251D01*
X22240645D01*
X21275757Y487684D02*
X21224974Y538467D01*
Y589251D01*
X21275757Y640034D01*
X21351933Y487684D02*
Y640034D01*
X21402716Y589251D01*
X21453500Y640034D01*
Y487684D01*
X21504283D02*
X21555067D01*
X21529675D01*
Y589251D01*
X21504283D01*
X21631242D02*
X21732809Y487684D01*
X21682027Y538467D01*
X21732809Y589251D01*
X21631242Y487684D01*
X21859769D02*
X21808984D01*
X21783594Y513075D01*
Y563859D01*
X21808984Y589251D01*
X21859769D01*
X21885159Y563859D01*
Y538467D01*
X21783594D01*
X22037511Y640034D02*
Y487684D01*
X21961336D01*
X21935944Y513075D01*
Y563859D01*
X21961336Y589251D01*
X22037511D01*
X22088293Y487684D02*
X22139078Y538467D01*
Y589251D01*
X22088293Y640034D01*
X19726758Y3154684D02*
Y3307034D01*
X19802934D01*
X19828326Y3281642D01*
Y3230859D01*
X19802934Y3205467D01*
X19726758D01*
X19904501Y3256251D02*
X19955284D01*
X19980676Y3230859D01*
Y3154684D01*
X19904501D01*
X19879109Y3180075D01*
X19904501Y3205467D01*
X19980676D01*
X20133028Y3307034D02*
Y3154684D01*
X20056853D01*
X20031461Y3180075D01*
Y3230859D01*
X20056853Y3256251D01*
X20133028D01*
X19726758Y2773684D02*
Y2926034D01*
X19802934D01*
X19828326Y2900642D01*
Y2849859D01*
X19802934Y2824467D01*
X19726758D01*
X19904501Y2875251D02*
X19955284D01*
X19980676Y2849859D01*
Y2773684D01*
X19904501D01*
X19879109Y2799075D01*
X19904501Y2824467D01*
X19980676D01*
X20133028Y2926034D02*
Y2773684D01*
X20056853D01*
X20031461Y2799075D01*
Y2849859D01*
X20056853Y2875251D01*
X20133028D01*
X19726758Y2392684D02*
Y2545034D01*
X19802934D01*
X19828326Y2519642D01*
Y2468859D01*
X19802934Y2443467D01*
X19726758D01*
X19904501Y2494251D02*
X19955284D01*
X19980676Y2468859D01*
Y2392684D01*
X19904501D01*
X19879109Y2418075D01*
X19904501Y2443467D01*
X19980676D01*
X20133028Y2545034D02*
Y2392684D01*
X20056853D01*
X20031461Y2418075D01*
Y2468859D01*
X20056853Y2494251D01*
X20133028D01*
X19726758Y2011684D02*
Y2164034D01*
X19802934D01*
X19828326Y2138642D01*
Y2087859D01*
X19802934Y2062467D01*
X19726758D01*
X19904501Y2113251D02*
X19955284D01*
X19980676Y2087859D01*
Y2011684D01*
X19904501D01*
X19879109Y2037075D01*
X19904501Y2062467D01*
X19980676D01*
X20133028Y2164034D02*
Y2011684D01*
X20056853D01*
X20031461Y2037075D01*
Y2087859D01*
X20056853Y2113251D01*
X20133028D01*
X19726758Y1630684D02*
Y1783034D01*
X19802934D01*
X19828326Y1757642D01*
Y1706859D01*
X19802934Y1681467D01*
X19726758D01*
X19904501Y1732251D02*
X19955284D01*
X19980676Y1706859D01*
Y1630684D01*
X19904501D01*
X19879109Y1656075D01*
X19904501Y1681467D01*
X19980676D01*
X20133028Y1783034D02*
Y1630684D01*
X20056853D01*
X20031461Y1656075D01*
Y1706859D01*
X20056853Y1732251D01*
X20133028D01*
X19726758Y1249684D02*
Y1402034D01*
X19802934D01*
X19828326Y1376642D01*
Y1325859D01*
X19802934Y1300467D01*
X19726758D01*
X19904501Y1351251D02*
X19955284D01*
X19980676Y1325859D01*
Y1249684D01*
X19904501D01*
X19879109Y1275075D01*
X19904501Y1300467D01*
X19980676D01*
X20133028Y1402034D02*
Y1249684D01*
X20056853D01*
X20031461Y1275075D01*
Y1325859D01*
X20056853Y1351251D01*
X20133028D01*
X19777542Y868684D02*
X19726758Y919467D01*
Y970251D01*
X19777542Y1021034D01*
X19853717Y868684D02*
Y1021034D01*
X19904501Y970251D01*
X19955284Y1021034D01*
Y868684D01*
X20006068D02*
X20056851D01*
X20031461D01*
Y970251D01*
X20006068D01*
X20133028D02*
X20234595Y868684D01*
X20183810Y919467D01*
X20234595Y970251D01*
X20133028Y868684D01*
X20361552D02*
X20310770D01*
X20285378Y894075D01*
Y944859D01*
X20310770Y970251D01*
X20361552D01*
X20386945Y944859D01*
Y919467D01*
X20285378D01*
X20539294Y1021034D02*
Y868684D01*
X20463120D01*
X20437727Y894075D01*
Y944859D01*
X20463120Y970251D01*
X20539294D01*
X20590079Y868684D02*
X20640862Y919467D01*
Y970251D01*
X20590079Y1021034D01*
X19726758Y487684D02*
Y640034D01*
X19802934D01*
X19828326Y614642D01*
Y563859D01*
X19802934Y538467D01*
X19726758D01*
X19904501Y589251D02*
X19955284D01*
X19980676Y563859D01*
Y487684D01*
X19904501D01*
X19879109Y513075D01*
X19904501Y538467D01*
X19980676D01*
X20133028Y640034D02*
Y487684D01*
X20056853D01*
X20031461Y513075D01*
Y563859D01*
X20056853Y589251D01*
X20133028D01*
X15917900Y3307034D02*
X16019467D01*
X15968684D01*
Y3154684D01*
X16095644D02*
X16146426D01*
X16171819Y3180075D01*
Y3230859D01*
X16146426Y3256251D01*
X16095644D01*
X16070251Y3230859D01*
Y3180075D01*
X16095644Y3154684D01*
X16222601Y3103900D02*
Y3256251D01*
X16298776D01*
X16324168Y3230859D01*
Y3180075D01*
X16298776Y3154684D01*
X16222601D01*
X16527303Y3307034D02*
Y3154684D01*
X16628870D01*
X16705046Y3256251D02*
X16755829D01*
X16781221Y3230859D01*
Y3154684D01*
X16705046D01*
X16679654Y3180075D01*
X16705046Y3205467D01*
X16781221D01*
X16832004Y3256251D02*
Y3180075D01*
X16857396Y3154684D01*
X16933572D01*
Y3129292D01*
X16908180Y3103900D01*
X16882788D01*
X16933572Y3154684D02*
Y3256251D01*
X17060532Y3154684D02*
X17009747D01*
X16984355Y3180075D01*
Y3230859D01*
X17009747Y3256251D01*
X17060532D01*
X17085922Y3230859D01*
Y3205467D01*
X16984355D01*
X17136707Y3256251D02*
Y3154684D01*
Y3205467D01*
X17162099Y3230859D01*
X17187489Y3256251D01*
X17212881D01*
X17441406Y3230859D02*
X17542975D01*
X17746109Y3307034D02*
Y3154684D01*
X17822284D01*
X17847676Y3180075D01*
Y3205467D01*
X17822284Y3230859D01*
X17746109D01*
X17822284D01*
X17847676Y3256251D01*
Y3281642D01*
X17822284Y3307034D01*
X17746109D01*
X17923851Y3154684D02*
X17974635D01*
X18000027Y3180075D01*
Y3230859D01*
X17974635Y3256251D01*
X17923851D01*
X17898460Y3230859D01*
Y3180075D01*
X17923851Y3154684D01*
X18076202Y3281642D02*
Y3256251D01*
X18050810D01*
X18101595D01*
X18076202D01*
Y3180075D01*
X18101595Y3154684D01*
X18203162Y3281642D02*
Y3256251D01*
X18177769D01*
X18228552D01*
X18203162D01*
Y3180075D01*
X18228552Y3154684D01*
X18330119D02*
X18380904D01*
X18406294Y3180075D01*
Y3230859D01*
X18380904Y3256251D01*
X18330119D01*
X18304729Y3230859D01*
Y3180075D01*
X18330119Y3154684D01*
X18457079D02*
Y3256251D01*
X18482471D01*
X18507861Y3230859D01*
Y3154684D01*
Y3230859D01*
X18533253Y3256251D01*
X18558646Y3230859D01*
Y3154684D01*
X18761780Y3307034D02*
Y3154684D01*
X18863347D01*
X18939523Y3256251D02*
X18990306D01*
X19015698Y3230859D01*
Y3154684D01*
X18939523D01*
X18914131Y3180075D01*
X18939523Y3205467D01*
X19015698D01*
X19066483Y3256251D02*
Y3180075D01*
X19091873Y3154684D01*
X19168050D01*
Y3129292D01*
X19142657Y3103900D01*
X19117265D01*
X19168050Y3154684D02*
Y3256251D01*
X19295007Y3154684D02*
X19244225D01*
X19218832Y3180075D01*
Y3230859D01*
X19244225Y3256251D01*
X19295007D01*
X19320399Y3230859D01*
Y3205467D01*
X19218832D01*
X19371182Y3256251D02*
Y3154684D01*
Y3205467D01*
X19396574Y3230859D01*
X19421967Y3256251D01*
X19447359D01*
X15917900Y2926034D02*
X16019467D01*
X15968684D01*
Y2773684D01*
X16095644D02*
X16146426D01*
X16171819Y2799075D01*
Y2849859D01*
X16146426Y2875251D01*
X16095644D01*
X16070251Y2849859D01*
Y2799075D01*
X16095644Y2773684D01*
X16222601Y2722900D02*
Y2875251D01*
X16298776D01*
X16324168Y2849859D01*
Y2799075D01*
X16298776Y2773684D01*
X16222601D01*
X16527303Y2926034D02*
Y2773684D01*
X16628870D01*
X16705046Y2875251D02*
X16755829D01*
X16781221Y2849859D01*
Y2773684D01*
X16705046D01*
X16679654Y2799075D01*
X16705046Y2824467D01*
X16781221D01*
X16832004Y2875251D02*
Y2799075D01*
X16857396Y2773684D01*
X16933572D01*
Y2748292D01*
X16908180Y2722900D01*
X16882788D01*
X16933572Y2773684D02*
Y2875251D01*
X17060532Y2773684D02*
X17009747D01*
X16984355Y2799075D01*
Y2849859D01*
X17009747Y2875251D01*
X17060532D01*
X17085922Y2849859D01*
Y2824467D01*
X16984355D01*
X17136707Y2875251D02*
Y2773684D01*
Y2824467D01*
X17162099Y2849859D01*
X17187489Y2875251D01*
X17212881D01*
X17441406Y2849859D02*
X17542975D01*
X17746109Y2926034D02*
Y2773684D01*
X17822284D01*
X17847676Y2799075D01*
Y2824467D01*
X17822284Y2849859D01*
X17746109D01*
X17822284D01*
X17847676Y2875251D01*
Y2900642D01*
X17822284Y2926034D01*
X17746109D01*
X17923851Y2773684D02*
X17974635D01*
X18000027Y2799075D01*
Y2849859D01*
X17974635Y2875251D01*
X17923851D01*
X17898460Y2849859D01*
Y2799075D01*
X17923851Y2773684D01*
X18076202Y2900642D02*
Y2875251D01*
X18050810D01*
X18101595D01*
X18076202D01*
Y2799075D01*
X18101595Y2773684D01*
X18203162Y2900642D02*
Y2875251D01*
X18177769D01*
X18228552D01*
X18203162D01*
Y2799075D01*
X18228552Y2773684D01*
X18330119D02*
X18380904D01*
X18406294Y2799075D01*
Y2849859D01*
X18380904Y2875251D01*
X18330119D01*
X18304729Y2849859D01*
Y2799075D01*
X18330119Y2773684D01*
X18457079D02*
Y2875251D01*
X18482471D01*
X18507861Y2849859D01*
Y2773684D01*
Y2849859D01*
X18533253Y2875251D01*
X18558646Y2849859D01*
Y2773684D01*
X18761780Y2926034D02*
Y2773684D01*
X18863347D01*
X18939523Y2875251D02*
X18990306D01*
X19015698Y2849859D01*
Y2773684D01*
X18939523D01*
X18914131Y2799075D01*
X18939523Y2824467D01*
X19015698D01*
X19066483Y2875251D02*
Y2799075D01*
X19091873Y2773684D01*
X19168050D01*
Y2748292D01*
X19142657Y2722900D01*
X19117265D01*
X19168050Y2773684D02*
Y2875251D01*
X19295007Y2773684D02*
X19244225D01*
X19218832Y2799075D01*
Y2849859D01*
X19244225Y2875251D01*
X19295007D01*
X19320399Y2849859D01*
Y2824467D01*
X19218832D01*
X19371182Y2875251D02*
Y2773684D01*
Y2824467D01*
X19396574Y2849859D01*
X19421967Y2875251D01*
X19447359D01*
X15917900Y2545034D02*
X16019467D01*
X15968684D01*
Y2392684D01*
X16095644D02*
X16146426D01*
X16171819Y2418075D01*
Y2468859D01*
X16146426Y2494251D01*
X16095644D01*
X16070251Y2468859D01*
Y2418075D01*
X16095644Y2392684D01*
X16222601Y2341900D02*
Y2494251D01*
X16298776D01*
X16324168Y2468859D01*
Y2418075D01*
X16298776Y2392684D01*
X16222601D01*
X16527303Y2545034D02*
Y2392684D01*
X16628870D01*
X16705046Y2494251D02*
X16755829D01*
X16781221Y2468859D01*
Y2392684D01*
X16705046D01*
X16679654Y2418075D01*
X16705046Y2443467D01*
X16781221D01*
X16832004Y2494251D02*
Y2418075D01*
X16857396Y2392684D01*
X16933572D01*
Y2367292D01*
X16908180Y2341900D01*
X16882788D01*
X16933572Y2392684D02*
Y2494251D01*
X17060532Y2392684D02*
X17009747D01*
X16984355Y2418075D01*
Y2468859D01*
X17009747Y2494251D01*
X17060532D01*
X17085922Y2468859D01*
Y2443467D01*
X16984355D01*
X17136707Y2494251D02*
Y2392684D01*
Y2443467D01*
X17162099Y2468859D01*
X17187489Y2494251D01*
X17212881D01*
X17441406Y2468859D02*
X17542975D01*
X17746109Y2545034D02*
Y2392684D01*
X17822284D01*
X17847676Y2418075D01*
Y2443467D01*
X17822284Y2468859D01*
X17746109D01*
X17822284D01*
X17847676Y2494251D01*
Y2519642D01*
X17822284Y2545034D01*
X17746109D01*
X17923851Y2392684D02*
X17974635D01*
X18000027Y2418075D01*
Y2468859D01*
X17974635Y2494251D01*
X17923851D01*
X17898460Y2468859D01*
Y2418075D01*
X17923851Y2392684D01*
X18076202Y2519642D02*
Y2494251D01*
X18050810D01*
X18101595D01*
X18076202D01*
Y2418075D01*
X18101595Y2392684D01*
X18203162Y2519642D02*
Y2494251D01*
X18177769D01*
X18228552D01*
X18203162D01*
Y2418075D01*
X18228552Y2392684D01*
X18330119D02*
X18380904D01*
X18406294Y2418075D01*
Y2468859D01*
X18380904Y2494251D01*
X18330119D01*
X18304729Y2468859D01*
Y2418075D01*
X18330119Y2392684D01*
X18457079D02*
Y2494251D01*
X18482471D01*
X18507861Y2468859D01*
Y2392684D01*
Y2468859D01*
X18533253Y2494251D01*
X18558646Y2468859D01*
Y2392684D01*
X18761780Y2545034D02*
Y2392684D01*
X18863347D01*
X18939523Y2494251D02*
X18990306D01*
X19015698Y2468859D01*
Y2392684D01*
X18939523D01*
X18914131Y2418075D01*
X18939523Y2443467D01*
X19015698D01*
X19066483Y2494251D02*
Y2418075D01*
X19091873Y2392684D01*
X19168050D01*
Y2367292D01*
X19142657Y2341900D01*
X19117265D01*
X19168050Y2392684D02*
Y2494251D01*
X19295007Y2392684D02*
X19244225D01*
X19218832Y2418075D01*
Y2468859D01*
X19244225Y2494251D01*
X19295007D01*
X19320399Y2468859D01*
Y2443467D01*
X19218832D01*
X19371182Y2494251D02*
Y2392684D01*
Y2443467D01*
X19396574Y2468859D01*
X19421967Y2494251D01*
X19447359D01*
X15917900Y2164034D02*
X16019467D01*
X15968684D01*
Y2011684D01*
X16095644D02*
X16146426D01*
X16171819Y2037075D01*
Y2087859D01*
X16146426Y2113251D01*
X16095644D01*
X16070251Y2087859D01*
Y2037075D01*
X16095644Y2011684D01*
X16222601Y1960900D02*
Y2113251D01*
X16298776D01*
X16324168Y2087859D01*
Y2037075D01*
X16298776Y2011684D01*
X16222601D01*
X16527303Y2164034D02*
Y2011684D01*
X16628870D01*
X16705046Y2113251D02*
X16755829D01*
X16781221Y2087859D01*
Y2011684D01*
X16705046D01*
X16679654Y2037075D01*
X16705046Y2062467D01*
X16781221D01*
X16832004Y2113251D02*
Y2037075D01*
X16857396Y2011684D01*
X16933572D01*
Y1986292D01*
X16908180Y1960900D01*
X16882788D01*
X16933572Y2011684D02*
Y2113251D01*
X17060532Y2011684D02*
X17009747D01*
X16984355Y2037075D01*
Y2087859D01*
X17009747Y2113251D01*
X17060532D01*
X17085922Y2087859D01*
Y2062467D01*
X16984355D01*
X17136707Y2113251D02*
Y2011684D01*
Y2062467D01*
X17162099Y2087859D01*
X17187489Y2113251D01*
X17212881D01*
X17441406Y2087859D02*
X17542975D01*
X17746109Y2164034D02*
Y2011684D01*
X17822284D01*
X17847676Y2037075D01*
Y2062467D01*
X17822284Y2087859D01*
X17746109D01*
X17822284D01*
X17847676Y2113251D01*
Y2138642D01*
X17822284Y2164034D01*
X17746109D01*
X17923851Y2011684D02*
X17974635D01*
X18000027Y2037075D01*
Y2087859D01*
X17974635Y2113251D01*
X17923851D01*
X17898460Y2087859D01*
Y2037075D01*
X17923851Y2011684D01*
X18076202Y2138642D02*
Y2113251D01*
X18050810D01*
X18101595D01*
X18076202D01*
Y2037075D01*
X18101595Y2011684D01*
X18203162Y2138642D02*
Y2113251D01*
X18177769D01*
X18228552D01*
X18203162D01*
Y2037075D01*
X18228552Y2011684D01*
X18330119D02*
X18380904D01*
X18406294Y2037075D01*
Y2087859D01*
X18380904Y2113251D01*
X18330119D01*
X18304729Y2087859D01*
Y2037075D01*
X18330119Y2011684D01*
X18457079D02*
Y2113251D01*
X18482471D01*
X18507861Y2087859D01*
Y2011684D01*
Y2087859D01*
X18533253Y2113251D01*
X18558646Y2087859D01*
Y2011684D01*
X18761780Y2164034D02*
Y2011684D01*
X18863347D01*
X18939523Y2113251D02*
X18990306D01*
X19015698Y2087859D01*
Y2011684D01*
X18939523D01*
X18914131Y2037075D01*
X18939523Y2062467D01*
X19015698D01*
X19066483Y2113251D02*
Y2037075D01*
X19091873Y2011684D01*
X19168050D01*
Y1986292D01*
X19142657Y1960900D01*
X19117265D01*
X19168050Y2011684D02*
Y2113251D01*
X19295007Y2011684D02*
X19244225D01*
X19218832Y2037075D01*
Y2087859D01*
X19244225Y2113251D01*
X19295007D01*
X19320399Y2087859D01*
Y2062467D01*
X19218832D01*
X19371182Y2113251D02*
Y2011684D01*
Y2062467D01*
X19396574Y2087859D01*
X19421967Y2113251D01*
X19447359D01*
X15917900Y1783034D02*
X16019467D01*
X15968684D01*
Y1630684D01*
X16095644D02*
X16146426D01*
X16171819Y1656075D01*
Y1706859D01*
X16146426Y1732251D01*
X16095644D01*
X16070251Y1706859D01*
Y1656075D01*
X16095644Y1630684D01*
X16222601Y1579900D02*
Y1732251D01*
X16298776D01*
X16324168Y1706859D01*
Y1656075D01*
X16298776Y1630684D01*
X16222601D01*
X16527303Y1783034D02*
Y1630684D01*
X16628870D01*
X16705046Y1732251D02*
X16755829D01*
X16781221Y1706859D01*
Y1630684D01*
X16705046D01*
X16679654Y1656075D01*
X16705046Y1681467D01*
X16781221D01*
X16832004Y1732251D02*
Y1656075D01*
X16857396Y1630684D01*
X16933572D01*
Y1605292D01*
X16908180Y1579900D01*
X16882788D01*
X16933572Y1630684D02*
Y1732251D01*
X17060532Y1630684D02*
X17009747D01*
X16984355Y1656075D01*
Y1706859D01*
X17009747Y1732251D01*
X17060532D01*
X17085922Y1706859D01*
Y1681467D01*
X16984355D01*
X17136707Y1732251D02*
Y1630684D01*
Y1681467D01*
X17162099Y1706859D01*
X17187489Y1732251D01*
X17212881D01*
X17441406Y1706859D02*
X17542975D01*
X17746109Y1783034D02*
Y1630684D01*
X17822284D01*
X17847676Y1656075D01*
Y1681467D01*
X17822284Y1706859D01*
X17746109D01*
X17822284D01*
X17847676Y1732251D01*
Y1757642D01*
X17822284Y1783034D01*
X17746109D01*
X17923851Y1630684D02*
X17974635D01*
X18000027Y1656075D01*
Y1706859D01*
X17974635Y1732251D01*
X17923851D01*
X17898460Y1706859D01*
Y1656075D01*
X17923851Y1630684D01*
X18076202Y1757642D02*
Y1732251D01*
X18050810D01*
X18101595D01*
X18076202D01*
Y1656075D01*
X18101595Y1630684D01*
X18203162Y1757642D02*
Y1732251D01*
X18177769D01*
X18228552D01*
X18203162D01*
Y1656075D01*
X18228552Y1630684D01*
X18330119D02*
X18380904D01*
X18406294Y1656075D01*
Y1706859D01*
X18380904Y1732251D01*
X18330119D01*
X18304729Y1706859D01*
Y1656075D01*
X18330119Y1630684D01*
X18457079D02*
Y1732251D01*
X18482471D01*
X18507861Y1706859D01*
Y1630684D01*
Y1706859D01*
X18533253Y1732251D01*
X18558646Y1706859D01*
Y1630684D01*
X18761780Y1783034D02*
Y1630684D01*
X18863347D01*
X18939523Y1732251D02*
X18990306D01*
X19015698Y1706859D01*
Y1630684D01*
X18939523D01*
X18914131Y1656075D01*
X18939523Y1681467D01*
X19015698D01*
X19066483Y1732251D02*
Y1656075D01*
X19091873Y1630684D01*
X19168050D01*
Y1605292D01*
X19142657Y1579900D01*
X19117265D01*
X19168050Y1630684D02*
Y1732251D01*
X19295007Y1630684D02*
X19244225D01*
X19218832Y1656075D01*
Y1706859D01*
X19244225Y1732251D01*
X19295007D01*
X19320399Y1706859D01*
Y1681467D01*
X19218832D01*
X19371182Y1732251D02*
Y1630684D01*
Y1681467D01*
X19396574Y1706859D01*
X19421967Y1732251D01*
X19447359D01*
X15917900Y1402034D02*
X16019467D01*
X15968684D01*
Y1249684D01*
X16095644D02*
X16146426D01*
X16171819Y1275075D01*
Y1325859D01*
X16146426Y1351251D01*
X16095644D01*
X16070251Y1325859D01*
Y1275075D01*
X16095644Y1249684D01*
X16222601Y1198900D02*
Y1351251D01*
X16298776D01*
X16324168Y1325859D01*
Y1275075D01*
X16298776Y1249684D01*
X16222601D01*
X16527303Y1402034D02*
Y1249684D01*
X16628870D01*
X16705046Y1351251D02*
X16755829D01*
X16781221Y1325859D01*
Y1249684D01*
X16705046D01*
X16679654Y1275075D01*
X16705046Y1300467D01*
X16781221D01*
X16832004Y1351251D02*
Y1275075D01*
X16857396Y1249684D01*
X16933572D01*
Y1224292D01*
X16908180Y1198900D01*
X16882788D01*
X16933572Y1249684D02*
Y1351251D01*
X17060532Y1249684D02*
X17009747D01*
X16984355Y1275075D01*
Y1325859D01*
X17009747Y1351251D01*
X17060532D01*
X17085922Y1325859D01*
Y1300467D01*
X16984355D01*
X17136707Y1351251D02*
Y1249684D01*
Y1300467D01*
X17162099Y1325859D01*
X17187489Y1351251D01*
X17212881D01*
X17441406Y1325859D02*
X17542975D01*
X17746109Y1402034D02*
Y1249684D01*
X17822284D01*
X17847676Y1275075D01*
Y1300467D01*
X17822284Y1325859D01*
X17746109D01*
X17822284D01*
X17847676Y1351251D01*
Y1376642D01*
X17822284Y1402034D01*
X17746109D01*
X17923851Y1249684D02*
X17974635D01*
X18000027Y1275075D01*
Y1325859D01*
X17974635Y1351251D01*
X17923851D01*
X17898460Y1325859D01*
Y1275075D01*
X17923851Y1249684D01*
X18076202Y1376642D02*
Y1351251D01*
X18050810D01*
X18101595D01*
X18076202D01*
Y1275075D01*
X18101595Y1249684D01*
X18203162Y1376642D02*
Y1351251D01*
X18177769D01*
X18228552D01*
X18203162D01*
Y1275075D01*
X18228552Y1249684D01*
X18330119D02*
X18380904D01*
X18406294Y1275075D01*
Y1325859D01*
X18380904Y1351251D01*
X18330119D01*
X18304729Y1325859D01*
Y1275075D01*
X18330119Y1249684D01*
X18457079D02*
Y1351251D01*
X18482471D01*
X18507861Y1325859D01*
Y1249684D01*
Y1325859D01*
X18533253Y1351251D01*
X18558646Y1325859D01*
Y1249684D01*
X18761780Y1402034D02*
Y1249684D01*
X18863347D01*
X18939523Y1351251D02*
X18990306D01*
X19015698Y1325859D01*
Y1249684D01*
X18939523D01*
X18914131Y1275075D01*
X18939523Y1300467D01*
X19015698D01*
X19066483Y1351251D02*
Y1275075D01*
X19091873Y1249684D01*
X19168050D01*
Y1224292D01*
X19142657Y1198900D01*
X19117265D01*
X19168050Y1249684D02*
Y1351251D01*
X19295007Y1249684D02*
X19244225D01*
X19218832Y1275075D01*
Y1325859D01*
X19244225Y1351251D01*
X19295007D01*
X19320399Y1325859D01*
Y1300467D01*
X19218832D01*
X19371182Y1351251D02*
Y1249684D01*
Y1300467D01*
X19396574Y1325859D01*
X19421967Y1351251D01*
X19447359D01*
X15917900Y1021034D02*
X16019467D01*
X15968684D01*
Y868684D01*
X16095644D02*
X16146426D01*
X16171819Y894075D01*
Y944859D01*
X16146426Y970251D01*
X16095644D01*
X16070251Y944859D01*
Y894075D01*
X16095644Y868684D01*
X16222601Y817900D02*
Y970251D01*
X16298776D01*
X16324168Y944859D01*
Y894075D01*
X16298776Y868684D01*
X16222601D01*
X16527303Y1021034D02*
Y868684D01*
X16628870D01*
X16705046Y970251D02*
X16755829D01*
X16781221Y944859D01*
Y868684D01*
X16705046D01*
X16679654Y894075D01*
X16705046Y919467D01*
X16781221D01*
X16832004Y970251D02*
Y894075D01*
X16857396Y868684D01*
X16933572D01*
Y843292D01*
X16908180Y817900D01*
X16882788D01*
X16933572Y868684D02*
Y970251D01*
X17060532Y868684D02*
X17009747D01*
X16984355Y894075D01*
Y944859D01*
X17009747Y970251D01*
X17060532D01*
X17085922Y944859D01*
Y919467D01*
X16984355D01*
X17136707Y970251D02*
Y868684D01*
Y919467D01*
X17162099Y944859D01*
X17187489Y970251D01*
X17212881D01*
X17441406Y944859D02*
X17542975D01*
X17746109Y1021034D02*
Y868684D01*
X17822284D01*
X17847676Y894075D01*
Y919467D01*
X17822284Y944859D01*
X17746109D01*
X17822284D01*
X17847676Y970251D01*
Y995642D01*
X17822284Y1021034D01*
X17746109D01*
X17923851Y868684D02*
X17974635D01*
X18000027Y894075D01*
Y944859D01*
X17974635Y970251D01*
X17923851D01*
X17898460Y944859D01*
Y894075D01*
X17923851Y868684D01*
X18076202Y995642D02*
Y970251D01*
X18050810D01*
X18101595D01*
X18076202D01*
Y894075D01*
X18101595Y868684D01*
X18203162Y995642D02*
Y970251D01*
X18177769D01*
X18228552D01*
X18203162D01*
Y894075D01*
X18228552Y868684D01*
X18330119D02*
X18380904D01*
X18406294Y894075D01*
Y944859D01*
X18380904Y970251D01*
X18330119D01*
X18304729Y944859D01*
Y894075D01*
X18330119Y868684D01*
X18457079D02*
Y970251D01*
X18482471D01*
X18507861Y944859D01*
Y868684D01*
Y944859D01*
X18533253Y970251D01*
X18558646Y944859D01*
Y868684D01*
X18761780Y1021034D02*
Y868684D01*
X18863347D01*
X18939523Y970251D02*
X18990306D01*
X19015698Y944859D01*
Y868684D01*
X18939523D01*
X18914131Y894075D01*
X18939523Y919467D01*
X19015698D01*
X19066483Y970251D02*
Y894075D01*
X19091873Y868684D01*
X19168050D01*
Y843292D01*
X19142657Y817900D01*
X19117265D01*
X19168050Y868684D02*
Y970251D01*
X19295007Y868684D02*
X19244225D01*
X19218832Y894075D01*
Y944859D01*
X19244225Y970251D01*
X19295007D01*
X19320399Y944859D01*
Y919467D01*
X19218832D01*
X19371182Y970251D02*
Y868684D01*
Y919467D01*
X19396574Y944859D01*
X19421967Y970251D01*
X19447359D01*
X15917900Y640034D02*
X16019467D01*
X15968684D01*
Y487684D01*
X16095644D02*
X16146426D01*
X16171819Y513075D01*
Y563859D01*
X16146426Y589251D01*
X16095644D01*
X16070251Y563859D01*
Y513075D01*
X16095644Y487684D01*
X16222601Y436900D02*
Y589251D01*
X16298776D01*
X16324168Y563859D01*
Y513075D01*
X16298776Y487684D01*
X16222601D01*
X16527303Y640034D02*
Y487684D01*
X16628870D01*
X16705046Y589251D02*
X16755829D01*
X16781221Y563859D01*
Y487684D01*
X16705046D01*
X16679654Y513075D01*
X16705046Y538467D01*
X16781221D01*
X16832004Y589251D02*
Y513075D01*
X16857396Y487684D01*
X16933572D01*
Y462292D01*
X16908180Y436900D01*
X16882788D01*
X16933572Y487684D02*
Y589251D01*
X17060532Y487684D02*
X17009747D01*
X16984355Y513075D01*
Y563859D01*
X17009747Y589251D01*
X17060532D01*
X17085922Y563859D01*
Y538467D01*
X16984355D01*
X17136707Y589251D02*
Y487684D01*
Y538467D01*
X17162099Y563859D01*
X17187489Y589251D01*
X17212881D01*
X17441406Y563859D02*
X17542975D01*
X17746109Y640034D02*
Y487684D01*
X17822284D01*
X17847676Y513075D01*
Y538467D01*
X17822284Y563859D01*
X17746109D01*
X17822284D01*
X17847676Y589251D01*
Y614642D01*
X17822284Y640034D01*
X17746109D01*
X17923851Y487684D02*
X17974635D01*
X18000027Y513075D01*
Y563859D01*
X17974635Y589251D01*
X17923851D01*
X17898460Y563859D01*
Y513075D01*
X17923851Y487684D01*
X18076202Y614642D02*
Y589251D01*
X18050810D01*
X18101595D01*
X18076202D01*
Y513075D01*
X18101595Y487684D01*
X18203162Y614642D02*
Y589251D01*
X18177769D01*
X18228552D01*
X18203162D01*
Y513075D01*
X18228552Y487684D01*
X18330119D02*
X18380904D01*
X18406294Y513075D01*
Y563859D01*
X18380904Y589251D01*
X18330119D01*
X18304729Y563859D01*
Y513075D01*
X18330119Y487684D01*
X18457079D02*
Y589251D01*
X18482471D01*
X18507861Y563859D01*
Y487684D01*
Y563859D01*
X18533253Y589251D01*
X18558646Y563859D01*
Y487684D01*
X18761780Y640034D02*
Y487684D01*
X18863347D01*
X18939523Y589251D02*
X18990306D01*
X19015698Y563859D01*
Y487684D01*
X18939523D01*
X18914131Y513075D01*
X18939523Y538467D01*
X19015698D01*
X19066483Y589251D02*
Y513075D01*
X19091873Y487684D01*
X19168050D01*
Y462292D01*
X19142657Y436900D01*
X19117265D01*
X19168050Y487684D02*
Y589251D01*
X19295007Y487684D02*
X19244225D01*
X19218832Y513075D01*
Y563859D01*
X19244225Y589251D01*
X19295007D01*
X19320399Y563859D01*
Y538467D01*
X19218832D01*
X19371182Y589251D02*
Y487684D01*
Y538467D01*
X19396574Y563859D01*
X19421967Y589251D01*
X19447359D01*
X14054044Y3154684D02*
Y3307034D01*
X14130219D01*
X14155611Y3281642D01*
Y3230859D01*
X14130219Y3205467D01*
X14054044D01*
X14104826D02*
X14155611Y3154684D01*
X14231786D02*
X14282568D01*
X14307961Y3180075D01*
Y3230859D01*
X14282568Y3256251D01*
X14231786D01*
X14206393Y3230859D01*
Y3180075D01*
X14231786Y3154684D01*
X14358743Y3256251D02*
Y3180075D01*
X14384135Y3154684D01*
X14460312D01*
Y3256251D01*
X14511095Y3154684D02*
Y3256251D01*
X14587271D01*
X14612662Y3230859D01*
Y3154684D01*
X14765013Y3307034D02*
Y3154684D01*
X14688838D01*
X14663446Y3180075D01*
Y3230859D01*
X14688838Y3256251D01*
X14765013D01*
X14054044Y2773684D02*
Y2926034D01*
X14130219D01*
X14155611Y2900642D01*
Y2849859D01*
X14130219Y2824467D01*
X14054044D01*
X14104826D02*
X14155611Y2773684D01*
X14231786D02*
X14282568D01*
X14307961Y2799075D01*
Y2849859D01*
X14282568Y2875251D01*
X14231786D01*
X14206393Y2849859D01*
Y2799075D01*
X14231786Y2773684D01*
X14358743Y2875251D02*
Y2799075D01*
X14384135Y2773684D01*
X14460312D01*
Y2875251D01*
X14511095Y2773684D02*
Y2875251D01*
X14587271D01*
X14612662Y2849859D01*
Y2773684D01*
X14765013Y2926034D02*
Y2773684D01*
X14688838D01*
X14663446Y2799075D01*
Y2849859D01*
X14688838Y2875251D01*
X14765013D01*
X14054044Y2392684D02*
Y2545034D01*
X14130219D01*
X14155611Y2519642D01*
Y2468859D01*
X14130219Y2443467D01*
X14054044D01*
X14104826D02*
X14155611Y2392684D01*
X14231786D02*
X14282568D01*
X14307961Y2418075D01*
Y2468859D01*
X14282568Y2494251D01*
X14231786D01*
X14206393Y2468859D01*
Y2418075D01*
X14231786Y2392684D01*
X14358743Y2494251D02*
Y2418075D01*
X14384135Y2392684D01*
X14460312D01*
Y2494251D01*
X14511095Y2392684D02*
Y2494251D01*
X14587271D01*
X14612662Y2468859D01*
Y2392684D01*
X14765013Y2545034D02*
Y2392684D01*
X14688838D01*
X14663446Y2418075D01*
Y2468859D01*
X14688838Y2494251D01*
X14765013D01*
X14054044Y2011684D02*
Y2164034D01*
X14130219D01*
X14155611Y2138642D01*
Y2087859D01*
X14130219Y2062467D01*
X14054044D01*
X14104826D02*
X14155611Y2011684D01*
X14231786D02*
X14282568D01*
X14307961Y2037075D01*
Y2087859D01*
X14282568Y2113251D01*
X14231786D01*
X14206393Y2087859D01*
Y2037075D01*
X14231786Y2011684D01*
X14358743Y2113251D02*
Y2037075D01*
X14384135Y2011684D01*
X14460312D01*
Y2113251D01*
X14511095Y2011684D02*
Y2113251D01*
X14587271D01*
X14612662Y2087859D01*
Y2011684D01*
X14765013Y2164034D02*
Y2011684D01*
X14688838D01*
X14663446Y2037075D01*
Y2087859D01*
X14688838Y2113251D01*
X14765013D01*
X14054044Y1630684D02*
Y1783034D01*
X14130219D01*
X14155611Y1757642D01*
Y1706859D01*
X14130219Y1681467D01*
X14054044D01*
X14104826D02*
X14155611Y1630684D01*
X14231786D02*
X14282568D01*
X14307961Y1656075D01*
Y1706859D01*
X14282568Y1732251D01*
X14231786D01*
X14206393Y1706859D01*
Y1656075D01*
X14231786Y1630684D01*
X14358743Y1732251D02*
Y1656075D01*
X14384135Y1630684D01*
X14460312D01*
Y1732251D01*
X14511095Y1630684D02*
Y1732251D01*
X14587271D01*
X14612662Y1706859D01*
Y1630684D01*
X14765013Y1783034D02*
Y1630684D01*
X14688838D01*
X14663446Y1656075D01*
Y1706859D01*
X14688838Y1732251D01*
X14765013D01*
X14054044Y1249684D02*
Y1402034D01*
X14130219D01*
X14155611Y1376642D01*
Y1325859D01*
X14130219Y1300467D01*
X14054044D01*
X14104826D02*
X14155611Y1249684D01*
X14231786D02*
X14282568D01*
X14307961Y1275075D01*
Y1325859D01*
X14282568Y1351251D01*
X14231786D01*
X14206393Y1325859D01*
Y1275075D01*
X14231786Y1249684D01*
X14358743Y1351251D02*
Y1275075D01*
X14384135Y1249684D01*
X14460312D01*
Y1351251D01*
X14511095Y1249684D02*
Y1351251D01*
X14587271D01*
X14612662Y1325859D01*
Y1249684D01*
X14765013Y1402034D02*
Y1249684D01*
X14688838D01*
X14663446Y1275075D01*
Y1325859D01*
X14688838Y1351251D01*
X14765013D01*
X14054044Y868684D02*
Y1021034D01*
X14130219D01*
X14155611Y995642D01*
Y944859D01*
X14130219Y919467D01*
X14054044D01*
X14104826D02*
X14155611Y868684D01*
X14231786D02*
X14282568D01*
X14307961Y894075D01*
Y944859D01*
X14282568Y970251D01*
X14231786D01*
X14206393Y944859D01*
Y894075D01*
X14231786Y868684D01*
X14358743Y970251D02*
Y894075D01*
X14384135Y868684D01*
X14460312D01*
Y970251D01*
X14511095Y868684D02*
Y970251D01*
X14587271D01*
X14612662Y944859D01*
Y868684D01*
X14765013Y1021034D02*
Y868684D01*
X14688838D01*
X14663446Y894075D01*
Y944859D01*
X14688838Y970251D01*
X14765013D01*
X14054044Y487684D02*
Y640034D01*
X14130219D01*
X14155611Y614642D01*
Y563859D01*
X14130219Y538467D01*
X14054044D01*
X14104826D02*
X14155611Y487684D01*
X14231786D02*
X14282568D01*
X14307961Y513075D01*
Y563859D01*
X14282568Y589251D01*
X14231786D01*
X14206393Y563859D01*
Y513075D01*
X14231786Y487684D01*
X14358743Y589251D02*
Y513075D01*
X14384135Y487684D01*
X14460312D01*
Y589251D01*
X14511095Y487684D02*
Y589251D01*
X14587271D01*
X14612662Y563859D01*
Y487684D01*
X14765013Y640034D02*
Y487684D01*
X14688838D01*
X14663446Y513075D01*
Y563859D01*
X14688838Y589251D01*
X14765013D01*
X12769118Y3154684D02*
Y3307034D01*
X12845294D01*
X12870686Y3281642D01*
Y3230859D01*
X12845294Y3205467D01*
X12769118D01*
X12921469Y3307034D02*
X13023036D01*
X12972253D01*
Y3154684D01*
X13073820Y3307034D02*
Y3154684D01*
Y3230859D01*
X13175388D01*
Y3307034D01*
Y3154684D01*
X12769118Y2773684D02*
Y2926034D01*
X12845294D01*
X12870686Y2900642D01*
Y2849859D01*
X12845294Y2824467D01*
X12769118D01*
X12921469Y2926034D02*
X13023036D01*
X12972253D01*
Y2773684D01*
X13073820Y2926034D02*
Y2773684D01*
Y2849859D01*
X13175388D01*
Y2926034D01*
Y2773684D01*
X12769118Y2392684D02*
Y2545034D01*
X12845294D01*
X12870686Y2519642D01*
Y2468859D01*
X12845294Y2443467D01*
X12769118D01*
X12921469Y2545034D02*
X13023036D01*
X12972253D01*
Y2392684D01*
X13073820Y2545034D02*
Y2392684D01*
Y2468859D01*
X13175388D01*
Y2545034D01*
Y2392684D01*
X12769118Y2011684D02*
Y2164034D01*
X12870686Y2011684D01*
Y2164034D01*
X12921469Y2011684D02*
Y2164034D01*
X12997646D01*
X13023036Y2138642D01*
Y2087859D01*
X12997646Y2062467D01*
X12921469D01*
X13073820Y2164034D02*
X13175388D01*
X13124603D01*
Y2011684D01*
X13226170Y2164034D02*
Y2011684D01*
Y2087859D01*
X13327737D01*
Y2164034D01*
Y2011684D01*
X12769118Y1630684D02*
Y1783034D01*
X12845294D01*
X12870686Y1757642D01*
Y1706859D01*
X12845294Y1681467D01*
X12769118D01*
X12921469Y1783034D02*
X13023036D01*
X12972253D01*
Y1630684D01*
X13073820Y1783034D02*
Y1630684D01*
Y1706859D01*
X13175388D01*
Y1783034D01*
Y1630684D01*
X12769118Y1249684D02*
Y1402034D01*
X12845294D01*
X12870686Y1376642D01*
Y1325859D01*
X12845294Y1300467D01*
X12769118D01*
X12921469Y1402034D02*
X13023036D01*
X12972253D01*
Y1249684D01*
X13073820Y1402034D02*
Y1249684D01*
Y1325859D01*
X13175388D01*
Y1402034D01*
Y1249684D01*
X12769118Y868684D02*
Y1021034D01*
X12845294D01*
X12870686Y995642D01*
Y944859D01*
X12845294Y919467D01*
X12769118D01*
X12921469Y1021034D02*
X13023036D01*
X12972253D01*
Y868684D01*
X13073820Y1021034D02*
Y868684D01*
Y944859D01*
X13175388D01*
Y1021034D01*
Y868684D01*
X12769118Y487684D02*
Y640034D01*
X12845294D01*
X12870686Y614642D01*
Y563859D01*
X12845294Y538467D01*
X12769118D01*
X12921469Y640034D02*
X13023036D01*
X12972253D01*
Y487684D01*
X13073820Y640034D02*
Y487684D01*
Y563859D01*
X13175388D01*
Y640034D01*
Y487684D01*
X9874365Y3154684D02*
X9925149D01*
X9899757D01*
Y3307034D01*
X9874365Y3281642D01*
X10001324Y3154684D02*
Y3180075D01*
X10026716D01*
Y3154684D01*
X10001324D01*
X10128283Y3281642D02*
X10153675Y3307034D01*
X10204458D01*
X10229850Y3281642D01*
Y3256251D01*
X10204458Y3230859D01*
X10229850Y3205467D01*
Y3180075D01*
X10204458Y3154684D01*
X10153675D01*
X10128283Y3180075D01*
Y3205467D01*
X10153675Y3230859D01*
X10128283Y3256251D01*
Y3281642D01*
X10153675Y3230859D02*
X10204458D01*
X10382201Y3307034D02*
X10280633D01*
Y3230859D01*
X10331417Y3256251D01*
X10356809D01*
X10382201Y3230859D01*
Y3180075D01*
X10356809Y3154684D01*
X10306025D01*
X10280633Y3180075D01*
X10509160Y3154684D02*
Y3307034D01*
X10432984Y3230859D01*
X10534551D01*
X10585335Y3154684D02*
Y3256251D01*
X10610727D01*
X10636118Y3230859D01*
Y3154684D01*
Y3230859D01*
X10661510Y3256251D01*
X10686902Y3230859D01*
Y3154684D01*
X10737686D02*
Y3256251D01*
X10763078D01*
X10788469Y3230859D01*
Y3154684D01*
Y3230859D01*
X10813861Y3256251D01*
X10839253Y3230859D01*
Y3154684D01*
X11093171D02*
X11042387Y3205467D01*
Y3256251D01*
X11093171Y3307034D01*
X11169346D02*
X11270913D01*
Y3281642D01*
X11169346Y3180075D01*
Y3154684D01*
X11321697Y3281642D02*
X11347089Y3307034D01*
X11397872D01*
X11423264Y3281642D01*
Y3256251D01*
X11397872Y3230859D01*
X11372480D01*
X11397872D01*
X11423264Y3205467D01*
Y3180075D01*
X11397872Y3154684D01*
X11347089D01*
X11321697Y3180075D01*
X11474047Y3154684D02*
Y3180075D01*
X11499439D01*
Y3154684D01*
X11474047D01*
X11601006Y3281642D02*
X11626398Y3307034D01*
X11677182D01*
X11702573Y3281642D01*
Y3180075D01*
X11677182Y3154684D01*
X11626398D01*
X11601006Y3180075D01*
Y3281642D01*
X11753357D02*
X11778749Y3307034D01*
X11829532D01*
X11854924Y3281642D01*
Y3180075D01*
X11829532Y3154684D01*
X11778749D01*
X11753357Y3180075D01*
Y3281642D01*
X11905708Y3154684D02*
Y3256251D01*
X11931100D01*
X11956491Y3230859D01*
Y3154684D01*
Y3230859D01*
X11981883Y3256251D01*
X12007275Y3230859D01*
Y3154684D01*
X12058058D02*
X12108842D01*
X12083450D01*
Y3256251D01*
X12058058D01*
X12185017Y3154684D02*
X12235801D01*
X12210409D01*
Y3307034D01*
X12185017D01*
X12311976Y3154684D02*
X12362760Y3205467D01*
Y3256251D01*
X12311976Y3307034D01*
X9874365Y2900642D02*
X9899757Y2926034D01*
X9950540D01*
X9975932Y2900642D01*
Y2799075D01*
X9950540Y2773684D01*
X9899757D01*
X9874365Y2799075D01*
Y2900642D01*
X10026716Y2773684D02*
Y2799075D01*
X10052108D01*
Y2773684D01*
X10026716D01*
X10153675Y2799075D02*
X10179067Y2773684D01*
X10229850D01*
X10255242Y2799075D01*
Y2900642D01*
X10229850Y2926034D01*
X10179067D01*
X10153675Y2900642D01*
Y2875251D01*
X10179067Y2849859D01*
X10255242D01*
X10306025Y2900642D02*
X10331417Y2926034D01*
X10382201D01*
X10407593Y2900642D01*
Y2799075D01*
X10382201Y2773684D01*
X10331417D01*
X10306025Y2799075D01*
Y2900642D01*
X10458376D02*
X10483768Y2926034D01*
X10534551D01*
X10559943Y2900642D01*
Y2799075D01*
X10534551Y2773684D01*
X10483768D01*
X10458376Y2799075D01*
Y2900642D01*
X10610727Y2773684D02*
Y2875251D01*
X10636119D01*
X10661510Y2849859D01*
Y2773684D01*
Y2849859D01*
X10686902Y2875251D01*
X10712294Y2849859D01*
Y2773684D01*
X10763078D02*
Y2875251D01*
X10788469D01*
X10813861Y2849859D01*
Y2773684D01*
Y2849859D01*
X10839253Y2875251D01*
X10864645Y2849859D01*
Y2773684D01*
X11118562D02*
X11067779Y2824467D01*
Y2875251D01*
X11118562Y2926034D01*
X11194738Y2900642D02*
X11220130Y2926034D01*
X11270913D01*
X11296305Y2900642D01*
Y2875251D01*
X11270913Y2849859D01*
X11245521D01*
X11270913D01*
X11296305Y2824467D01*
Y2799075D01*
X11270913Y2773684D01*
X11220130D01*
X11194738Y2799075D01*
X11448656Y2926034D02*
X11347089D01*
Y2849859D01*
X11397872Y2875251D01*
X11423264D01*
X11448656Y2849859D01*
Y2799075D01*
X11423264Y2773684D01*
X11372480D01*
X11347089Y2799075D01*
X11499439Y2773684D02*
Y2799075D01*
X11524831D01*
Y2773684D01*
X11499439D01*
X11702573D02*
Y2926034D01*
X11626398Y2849859D01*
X11727965D01*
X11778749Y2900642D02*
X11804141Y2926034D01*
X11854924D01*
X11880316Y2900642D01*
Y2875251D01*
X11854924Y2849859D01*
X11829532D01*
X11854924D01*
X11880316Y2824467D01*
Y2799075D01*
X11854924Y2773684D01*
X11804141D01*
X11778749Y2799075D01*
X11931100Y2773684D02*
Y2875251D01*
X11956491D01*
X11981883Y2849859D01*
Y2773684D01*
Y2849859D01*
X12007275Y2875251D01*
X12032667Y2849859D01*
Y2773684D01*
X12083450D02*
X12134234D01*
X12108842D01*
Y2875251D01*
X12083450D01*
X12210409Y2773684D02*
X12261193D01*
X12235801D01*
Y2926034D01*
X12210409D01*
X12337368Y2773684D02*
X12388151Y2824467D01*
Y2875251D01*
X12337368Y2926034D01*
X9975932Y2392684D02*
X9874365D01*
X9975932Y2494251D01*
Y2519642D01*
X9950540Y2545034D01*
X9899757D01*
X9874365Y2519642D01*
X10026716Y2392684D02*
Y2418075D01*
X10052108D01*
Y2392684D01*
X10026716D01*
X10153675Y2519642D02*
X10179067Y2545034D01*
X10229850D01*
X10255242Y2519642D01*
Y2418075D01*
X10229850Y2392684D01*
X10179067D01*
X10153675Y2418075D01*
Y2519642D01*
X10306025Y2392684D02*
X10356809D01*
X10331417D01*
Y2545034D01*
X10306025Y2519642D01*
X10432984D02*
X10458376Y2545034D01*
X10509160D01*
X10534551Y2519642D01*
Y2418075D01*
X10509160Y2392684D01*
X10458376D01*
X10432984Y2418075D01*
Y2519642D01*
X10585335Y2392684D02*
Y2494251D01*
X10610727D01*
X10636118Y2468859D01*
Y2392684D01*
Y2468859D01*
X10661510Y2494251D01*
X10686902Y2468859D01*
Y2392684D01*
X10737686D02*
Y2494251D01*
X10763078D01*
X10788469Y2468859D01*
Y2392684D01*
Y2468859D01*
X10813861Y2494251D01*
X10839253Y2468859D01*
Y2392684D01*
X11093171D02*
X11042387Y2443467D01*
Y2494251D01*
X11093171Y2545034D01*
X11169346D02*
X11270913D01*
Y2519642D01*
X11169346Y2418075D01*
Y2392684D01*
X11321697Y2418075D02*
X11347089Y2392684D01*
X11397872D01*
X11423264Y2418075D01*
Y2519642D01*
X11397872Y2545034D01*
X11347089D01*
X11321697Y2519642D01*
Y2494251D01*
X11347089Y2468859D01*
X11423264D01*
X11474047Y2392684D02*
Y2418075D01*
X11499439D01*
Y2392684D01*
X11474047D01*
X11601006D02*
X11651790D01*
X11626398D01*
Y2545034D01*
X11601006Y2519642D01*
X11727965D02*
X11753357Y2545034D01*
X11804140D01*
X11829532Y2519642D01*
Y2494251D01*
X11804140Y2468859D01*
X11778749D01*
X11804140D01*
X11829532Y2443467D01*
Y2418075D01*
X11804140Y2392684D01*
X11753357D01*
X11727965Y2418075D01*
X11880316Y2392684D02*
Y2494251D01*
X11905708D01*
X11931099Y2468859D01*
Y2392684D01*
Y2468859D01*
X11956491Y2494251D01*
X11981883Y2468859D01*
Y2392684D01*
X12032667D02*
X12083450D01*
X12058058D01*
Y2494251D01*
X12032667D01*
X12159625Y2392684D02*
X12210409D01*
X12185017D01*
Y2545034D01*
X12159625D01*
X12286584Y2392684D02*
X12337368Y2443467D01*
Y2494251D01*
X12286584Y2545034D01*
X9874365Y2138642D02*
X9899757Y2164034D01*
X9950540D01*
X9975932Y2138642D01*
Y2113251D01*
X9950540Y2087859D01*
X9925149D01*
X9950540D01*
X9975932Y2062467D01*
Y2037075D01*
X9950540Y2011684D01*
X9899757D01*
X9874365Y2037075D01*
X10026716Y2011684D02*
Y2037075D01*
X10052108D01*
Y2011684D01*
X10026716D01*
X10153675D02*
X10204458D01*
X10179067D01*
Y2164034D01*
X10153675Y2138642D01*
X10280633D02*
X10306025Y2164034D01*
X10356809D01*
X10382201Y2138642D01*
Y2037075D01*
X10356809Y2011684D01*
X10306025D01*
X10280633Y2037075D01*
Y2138642D01*
X10432984D02*
X10458376Y2164034D01*
X10509160D01*
X10534551Y2138642D01*
Y2037075D01*
X10509160Y2011684D01*
X10458376D01*
X10432984Y2037075D01*
Y2138642D01*
X10585335Y2011684D02*
Y2113251D01*
X10610727D01*
X10636118Y2087859D01*
Y2011684D01*
Y2087859D01*
X10661510Y2113251D01*
X10686902Y2087859D01*
Y2011684D01*
X10737686D02*
Y2113251D01*
X10763078D01*
X10788469Y2087859D01*
Y2011684D01*
Y2087859D01*
X10813861Y2113251D01*
X10839253Y2087859D01*
Y2011684D01*
X11093171D02*
X11042387Y2062467D01*
Y2113251D01*
X11093171Y2164034D01*
X11169346Y2011684D02*
X11220129D01*
X11194738D01*
Y2164034D01*
X11169346Y2138642D01*
X11397872Y2011684D02*
X11296305D01*
X11397872Y2113251D01*
Y2138642D01*
X11372480Y2164034D01*
X11321697D01*
X11296305Y2138642D01*
X11550223Y2011684D02*
X11448656D01*
X11550223Y2113251D01*
Y2138642D01*
X11524831Y2164034D01*
X11474047D01*
X11448656Y2138642D01*
X11601006Y2011684D02*
Y2037075D01*
X11626398D01*
Y2011684D01*
X11601006D01*
X11727965Y2138642D02*
X11753357Y2164034D01*
X11804140D01*
X11829532Y2138642D01*
Y2037075D01*
X11804140Y2011684D01*
X11753357D01*
X11727965Y2037075D01*
Y2138642D01*
X11981883Y2164034D02*
X11880316D01*
Y2087859D01*
X11931099Y2113251D01*
X11956491D01*
X11981883Y2087859D01*
Y2037075D01*
X11956491Y2011684D01*
X11905708D01*
X11880316Y2037075D01*
X12032667Y2011684D02*
Y2113251D01*
X12058058D01*
X12083450Y2087859D01*
Y2011684D01*
Y2087859D01*
X12108842Y2113251D01*
X12134234Y2087859D01*
Y2011684D01*
X12185017D02*
X12235801D01*
X12210409D01*
Y2113251D01*
X12185017D01*
X12311976Y2011684D02*
X12362760D01*
X12337368D01*
Y2164034D01*
X12311976D01*
X12438935Y2011684D02*
X12489718Y2062467D01*
Y2113251D01*
X12438935Y2164034D01*
X9874365Y1630684D02*
X9925149D01*
X9899757D01*
Y1783034D01*
X9874365Y1757642D01*
X10001324Y1630684D02*
Y1656075D01*
X10026716D01*
Y1630684D01*
X10001324D01*
X10128283Y1757642D02*
X10153675Y1783034D01*
X10204458D01*
X10229850Y1757642D01*
Y1656075D01*
X10204458Y1630684D01*
X10153675D01*
X10128283Y1656075D01*
Y1757642D01*
X10382201Y1630684D02*
X10280633D01*
X10382201Y1732251D01*
Y1757642D01*
X10356809Y1783034D01*
X10306025D01*
X10280633Y1757642D01*
X10432984D02*
X10458376Y1783034D01*
X10509160D01*
X10534551Y1757642D01*
Y1656075D01*
X10509160Y1630684D01*
X10458376D01*
X10432984Y1656075D01*
Y1757642D01*
X10585335Y1630684D02*
Y1732251D01*
X10610727D01*
X10636118Y1706859D01*
Y1630684D01*
Y1706859D01*
X10661510Y1732251D01*
X10686902Y1706859D01*
Y1630684D01*
X10737686D02*
Y1732251D01*
X10763078D01*
X10788469Y1706859D01*
Y1630684D01*
Y1706859D01*
X10813861Y1732251D01*
X10839253Y1706859D01*
Y1630684D01*
X11093171D02*
X11042387Y1681467D01*
Y1732251D01*
X11093171Y1783034D01*
X11245521Y1630684D02*
Y1783034D01*
X11169346Y1706859D01*
X11270913D01*
X11321697Y1757642D02*
X11347089Y1783034D01*
X11397872D01*
X11423264Y1757642D01*
Y1656075D01*
X11397872Y1630684D01*
X11347089D01*
X11321697Y1656075D01*
Y1757642D01*
X11474047Y1630684D02*
Y1656075D01*
X11499439D01*
Y1630684D01*
X11474047D01*
X11601006D02*
X11651790D01*
X11626398D01*
Y1783034D01*
X11601006Y1757642D01*
X11829532Y1783034D02*
X11778749Y1757642D01*
X11727965Y1706859D01*
Y1656075D01*
X11753357Y1630684D01*
X11804140D01*
X11829532Y1656075D01*
Y1681467D01*
X11804140Y1706859D01*
X11727965D01*
X11880316Y1630684D02*
Y1732251D01*
X11905708D01*
X11931099Y1706859D01*
Y1630684D01*
Y1706859D01*
X11956491Y1732251D01*
X11981883Y1706859D01*
Y1630684D01*
X12032667D02*
X12083450D01*
X12058058D01*
Y1732251D01*
X12032667D01*
X12159625Y1630684D02*
X12210409D01*
X12185017D01*
Y1783034D01*
X12159625D01*
X12286584Y1630684D02*
X12337368Y1681467D01*
Y1732251D01*
X12286584Y1783034D01*
X9874365Y1376642D02*
X9899757Y1402034D01*
X9950540D01*
X9975932Y1376642D01*
Y1275075D01*
X9950540Y1249684D01*
X9899757D01*
X9874365Y1275075D01*
Y1376642D01*
X10026716Y1249684D02*
Y1275075D01*
X10052108D01*
Y1249684D01*
X10026716D01*
X10153675Y1376642D02*
X10179067Y1402034D01*
X10229850D01*
X10255242Y1376642D01*
Y1351251D01*
X10229850Y1325859D01*
X10255242Y1300467D01*
Y1275075D01*
X10229850Y1249684D01*
X10179067D01*
X10153675Y1275075D01*
Y1300467D01*
X10179067Y1325859D01*
X10153675Y1351251D01*
Y1376642D01*
X10179067Y1325859D02*
X10229850D01*
X10306025Y1376642D02*
X10331417Y1402034D01*
X10382201D01*
X10407593Y1376642D01*
Y1351251D01*
X10382201Y1325859D01*
X10407593Y1300467D01*
Y1275075D01*
X10382201Y1249684D01*
X10331417D01*
X10306025Y1275075D01*
Y1300467D01*
X10331417Y1325859D01*
X10306025Y1351251D01*
Y1376642D01*
X10331417Y1325859D02*
X10382201D01*
X10458376Y1275075D02*
X10483768Y1249684D01*
X10534551D01*
X10559943Y1275075D01*
Y1376642D01*
X10534551Y1402034D01*
X10483768D01*
X10458376Y1376642D01*
Y1351251D01*
X10483768Y1325859D01*
X10559943D01*
X10610727Y1249684D02*
Y1351251D01*
X10636119D01*
X10661510Y1325859D01*
Y1249684D01*
Y1325859D01*
X10686902Y1351251D01*
X10712294Y1325859D01*
Y1249684D01*
X10763078D02*
Y1351251D01*
X10788469D01*
X10813861Y1325859D01*
Y1249684D01*
Y1325859D01*
X10839253Y1351251D01*
X10864645Y1325859D01*
Y1249684D01*
X11118562D02*
X11067779Y1300467D01*
Y1351251D01*
X11118562Y1402034D01*
X11194738Y1376642D02*
X11220130Y1402034D01*
X11270913D01*
X11296305Y1376642D01*
Y1351251D01*
X11270913Y1325859D01*
X11245521D01*
X11270913D01*
X11296305Y1300467D01*
Y1275075D01*
X11270913Y1249684D01*
X11220130D01*
X11194738Y1275075D01*
X11448656Y1402034D02*
X11347089D01*
Y1325859D01*
X11397872Y1351251D01*
X11423264D01*
X11448656Y1325859D01*
Y1275075D01*
X11423264Y1249684D01*
X11372480D01*
X11347089Y1275075D01*
X11499439Y1249684D02*
Y1275075D01*
X11524831D01*
Y1249684D01*
X11499439D01*
X11626398Y1376642D02*
X11651790Y1402034D01*
X11702573D01*
X11727965Y1376642D01*
Y1275075D01*
X11702573Y1249684D01*
X11651790D01*
X11626398Y1275075D01*
Y1376642D01*
X11778749D02*
X11804141Y1402034D01*
X11854924D01*
X11880316Y1376642D01*
Y1275075D01*
X11854924Y1249684D01*
X11804141D01*
X11778749Y1275075D01*
Y1376642D01*
X11931100Y1249684D02*
Y1351251D01*
X11956491D01*
X11981883Y1325859D01*
Y1249684D01*
Y1325859D01*
X12007275Y1351251D01*
X12032667Y1325859D01*
Y1249684D01*
X12083450D02*
X12134234D01*
X12108842D01*
Y1351251D01*
X12083450D01*
X12210409Y1249684D02*
X12261193D01*
X12235801D01*
Y1402034D01*
X12210409D01*
X12337368Y1249684D02*
X12388151Y1300467D01*
Y1351251D01*
X12337368Y1402034D01*
X9874365Y995642D02*
X9899757Y1021034D01*
X9950540D01*
X9975932Y995642D01*
Y894075D01*
X9950540Y868684D01*
X9899757D01*
X9874365Y894075D01*
Y995642D01*
X10026716Y868684D02*
Y894075D01*
X10052108D01*
Y868684D01*
X10026716D01*
X10255242D02*
X10153675D01*
X10255242Y970251D01*
Y995642D01*
X10229850Y1021034D01*
X10179067D01*
X10153675Y995642D01*
X10407593Y1021034D02*
X10306025D01*
Y944859D01*
X10356809Y970251D01*
X10382201D01*
X10407593Y944859D01*
Y894075D01*
X10382201Y868684D01*
X10331417D01*
X10306025Y894075D01*
X10458376Y995642D02*
X10483768Y1021034D01*
X10534551D01*
X10559943Y995642D01*
Y894075D01*
X10534551Y868684D01*
X10483768D01*
X10458376Y894075D01*
Y995642D01*
X10610727Y868684D02*
Y970251D01*
X10636119D01*
X10661510Y944859D01*
Y868684D01*
Y944859D01*
X10686902Y970251D01*
X10712294Y944859D01*
Y868684D01*
X10763078D02*
Y970251D01*
X10788469D01*
X10813861Y944859D01*
Y868684D01*
Y944859D01*
X10839253Y970251D01*
X10864645Y944859D01*
Y868684D01*
X11118562D02*
X11067779Y919467D01*
Y970251D01*
X11118562Y1021034D01*
X11194738Y894075D02*
X11220130Y868684D01*
X11270913D01*
X11296305Y894075D01*
Y995642D01*
X11270913Y1021034D01*
X11220130D01*
X11194738Y995642D01*
Y970251D01*
X11220130Y944859D01*
X11296305D01*
X11347089Y868684D02*
Y894075D01*
X11372480D01*
Y868684D01*
X11347089D01*
X11474047Y995642D02*
X11499439Y1021034D01*
X11550223D01*
X11575615Y995642D01*
Y970251D01*
X11550223Y944859D01*
X11575615Y919467D01*
Y894075D01*
X11550223Y868684D01*
X11499439D01*
X11474047Y894075D01*
Y919467D01*
X11499439Y944859D01*
X11474047Y970251D01*
Y995642D01*
X11499439Y944859D02*
X11550223D01*
X11702573Y868684D02*
Y1021034D01*
X11626398Y944859D01*
X11727965D01*
X11778749Y868684D02*
Y970251D01*
X11804141D01*
X11829532Y944859D01*
Y868684D01*
Y944859D01*
X11854924Y970251D01*
X11880316Y944859D01*
Y868684D01*
X11931100D02*
X11981883D01*
X11956491D01*
Y970251D01*
X11931100D01*
X12058058Y868684D02*
X12108842D01*
X12083450D01*
Y1021034D01*
X12058058D01*
X12185017Y868684D02*
X12235801Y919467D01*
Y970251D01*
X12185017Y1021034D01*
X9874365Y487684D02*
X9925149D01*
X9899757D01*
Y640034D01*
X9874365Y614642D01*
X10001324Y487684D02*
Y513075D01*
X10026716D01*
Y487684D01*
X10001324D01*
X10128283Y614642D02*
X10153675Y640034D01*
X10204458D01*
X10229850Y614642D01*
Y513075D01*
X10204458Y487684D01*
X10153675D01*
X10128283Y513075D01*
Y614642D01*
X10356809Y487684D02*
Y640034D01*
X10280633Y563859D01*
X10382201D01*
X10432984Y614642D02*
X10458376Y640034D01*
X10509160D01*
X10534551Y614642D01*
Y513075D01*
X10509160Y487684D01*
X10458376D01*
X10432984Y513075D01*
Y614642D01*
X10585335Y487684D02*
Y589251D01*
X10610727D01*
X10636118Y563859D01*
Y487684D01*
Y563859D01*
X10661510Y589251D01*
X10686902Y563859D01*
Y487684D01*
X10737686D02*
Y589251D01*
X10763078D01*
X10788469Y563859D01*
Y487684D01*
Y563859D01*
X10813861Y589251D01*
X10839253Y563859D01*
Y487684D01*
X11093171D02*
X11042387Y538467D01*
Y589251D01*
X11093171Y640034D01*
X11245521Y487684D02*
Y640034D01*
X11169346Y563859D01*
X11270913D01*
X11321697Y614642D02*
X11347089Y640034D01*
X11397872D01*
X11423264Y614642D01*
Y513075D01*
X11397872Y487684D01*
X11347089D01*
X11321697Y513075D01*
Y614642D01*
X11474047Y487684D02*
Y513075D01*
X11499439D01*
Y487684D01*
X11474047D01*
X11601006Y513075D02*
X11626398Y487684D01*
X11677182D01*
X11702573Y513075D01*
Y614642D01*
X11677182Y640034D01*
X11626398D01*
X11601006Y614642D01*
Y589251D01*
X11626398Y563859D01*
X11702573D01*
X11854924Y640034D02*
X11753357D01*
Y563859D01*
X11804140Y589251D01*
X11829532D01*
X11854924Y563859D01*
Y513075D01*
X11829532Y487684D01*
X11778749D01*
X11753357Y513075D01*
X11905708Y487684D02*
Y589251D01*
X11931100D01*
X11956491Y563859D01*
Y487684D01*
Y563859D01*
X11981883Y589251D01*
X12007275Y563859D01*
Y487684D01*
X12058058D02*
X12108842D01*
X12083450D01*
Y589251D01*
X12058058D01*
X12185017Y487684D02*
X12235801D01*
X12210409D01*
Y640034D01*
X12185017D01*
X12311976Y487684D02*
X12362760Y538467D01*
Y589251D01*
X12311976Y640034D01*
X8401551Y106684D02*
X8452335D01*
X8426943D01*
Y259034D01*
X8401551Y233642D01*
X8528510Y106684D02*
X8579294D01*
X8553902D01*
Y259034D01*
X8528510Y233642D01*
X8731644Y106684D02*
Y259034D01*
X8655469Y182859D01*
X8757036D01*
X8960171Y259034D02*
X9061738D01*
X9010954D01*
Y106684D01*
X9137913D02*
X9188697D01*
X9214089Y132075D01*
Y182859D01*
X9188697Y208251D01*
X9137913D01*
X9112521Y182859D01*
Y132075D01*
X9137913Y106684D01*
X9290264Y233642D02*
Y208251D01*
X9264872D01*
X9315655D01*
X9290264D01*
Y132075D01*
X9315655Y106684D01*
X9417223Y208251D02*
X9468006D01*
X9493398Y182859D01*
Y106684D01*
X9417223D01*
X9391831Y132075D01*
X9417223Y157467D01*
X9493398D01*
X9544182Y106684D02*
X9594965D01*
X9569573D01*
Y259034D01*
X9544182D01*
X8503119Y3154684D02*
X8401551D01*
X8503119Y3256251D01*
Y3281642D01*
X8477727Y3307034D01*
X8426943D01*
X8401551Y3281642D01*
X8477727Y2773684D02*
Y2926034D01*
X8401551Y2849859D01*
X8503119D01*
X8477727Y2392684D02*
Y2545034D01*
X8401551Y2468859D01*
X8503119D01*
X8477727Y2011684D02*
Y2164034D01*
X8401551Y2087859D01*
X8503119D01*
Y1783034D02*
X8452335Y1757642D01*
X8401551Y1706859D01*
Y1656075D01*
X8426943Y1630684D01*
X8477727D01*
X8503119Y1656075D01*
Y1681467D01*
X8477727Y1706859D01*
X8401551D01*
Y1249684D02*
X8452335D01*
X8426943D01*
Y1402034D01*
X8401551Y1376642D01*
X8630077Y1402034D02*
X8579294Y1376642D01*
X8528510Y1325859D01*
Y1275075D01*
X8553902Y1249684D01*
X8604686D01*
X8630077Y1275075D01*
Y1300467D01*
X8604686Y1325859D01*
X8528510D01*
X8401551Y995642D02*
X8426943Y1021034D01*
X8477727D01*
X8503119Y995642D01*
Y970251D01*
X8477727Y944859D01*
X8452335D01*
X8477727D01*
X8503119Y919467D01*
Y894075D01*
X8477727Y868684D01*
X8426943D01*
X8401551Y894075D01*
X8553902Y995642D02*
X8579294Y1021034D01*
X8630077D01*
X8655469Y995642D01*
Y970251D01*
X8630077Y944859D01*
X8655469Y919467D01*
Y894075D01*
X8630077Y868684D01*
X8579294D01*
X8553902Y894075D01*
Y919467D01*
X8579294Y944859D01*
X8553902Y970251D01*
Y995642D01*
X8579294Y944859D02*
X8630077D01*
X8477727Y487684D02*
Y640034D01*
X8401551Y563859D01*
X8503119D01*
X8553902Y614642D02*
X8579294Y640034D01*
X8630077D01*
X8655469Y614642D01*
Y513075D01*
X8630077Y487684D01*
X8579294D01*
X8553902Y513075D01*
Y614642D01*
D66*
X6888027Y3421384D02*
X34246371D01*
X6888027Y373384D02*
X34246371D01*
X6888027Y-7616D02*
X34246371D01*
Y3802384D01*
X6888027D02*
X34246371D01*
X6888027Y-7616D02*
Y3802384D01*
X30744708Y-7616D02*
Y3802384D01*
X27357343Y-7616D02*
Y3802384D01*
X25188785Y-7616D02*
Y3802384D01*
X23005000Y-7616D02*
Y3802384D01*
X21110674Y-7616D02*
Y3802384D01*
X19612457Y-7616D02*
Y3802384D01*
X15803600Y-7616D02*
Y3802384D01*
X13939743Y-7616D02*
Y3802384D01*
X12654818Y-7616D02*
Y3802384D01*
X9760065Y-7616D02*
Y3802384D01*
X8287251Y-7616D02*
Y3802384D01*
D81*
X434333Y1092000D02*
G03*
X434333Y1092000I-42333J0D01*
G01*
X1450333Y2108000D02*
G03*
X1450333Y2108000I-42333J0D01*
G01*
Y4040500D02*
G03*
X1450333Y4040500I-42333J0D01*
G01*
X434333Y3024500D02*
G03*
X434333Y3024500I-42333J0D01*
G01*
X2382667Y3178833D02*
X2403833D01*
X2382667D02*
Y3221167D01*
X2403833D01*
Y3242333D01*
X2446167D01*
Y3221167D02*
Y3242333D01*
Y3221167D02*
X2467333D01*
Y3178833D02*
Y3221167D01*
X2446167Y3178833D02*
X2467333D01*
X2446167Y3157667D02*
Y3178833D01*
X2403833Y3157667D02*
X2446167D01*
X2403833D02*
Y3178833D01*
X2382667Y3078833D02*
X2403833D01*
X2382667D02*
Y3121166D01*
X2403833D01*
Y3142333D01*
X2446167D01*
Y3121166D02*
Y3142333D01*
Y3121166D02*
X2467333D01*
Y3078833D02*
Y3121166D01*
X2446167Y3078833D02*
X2467333D01*
X2446167Y3057667D02*
Y3078833D01*
X2403833Y3057667D02*
X2446167D01*
X2403833D02*
Y3078833D01*
X2332667D02*
X2353833D01*
X2332667D02*
Y3121166D01*
X2353833D01*
Y3142333D01*
X2396167D01*
Y3121166D02*
Y3142333D01*
Y3121166D02*
X2417333D01*
Y3078833D02*
Y3121166D01*
X2396167Y3078833D02*
X2417333D01*
X2396167Y3057667D02*
Y3078833D01*
X2353833Y3057667D02*
X2396167D01*
X2353833D02*
Y3078833D01*
X2282667D02*
X2303833D01*
X2282667D02*
Y3121166D01*
X2303833D01*
Y3142333D01*
X2346167D01*
Y3121166D02*
Y3142333D01*
Y3121166D02*
X2367333D01*
Y3078833D02*
Y3121166D01*
X2346167Y3078833D02*
X2367333D01*
X2346167Y3057667D02*
Y3078833D01*
X2303833Y3057667D02*
X2346167D01*
X2303833D02*
Y3078833D01*
X2282667Y3128833D02*
X2303833D01*
X2282667D02*
Y3171167D01*
X2303833D01*
Y3192333D01*
X2346167D01*
Y3171167D02*
Y3192333D01*
Y3171167D02*
X2367333D01*
Y3128833D02*
Y3171167D01*
X2346167Y3128833D02*
X2367333D01*
X2346167Y3107667D02*
Y3128833D01*
X2303833Y3107667D02*
X2346167D01*
X2303833D02*
Y3128833D01*
X2332667D02*
X2353833D01*
X2332667D02*
Y3171167D01*
X2353833D01*
Y3192333D01*
X2396167D01*
Y3171167D02*
Y3192333D01*
Y3171167D02*
X2417333D01*
Y3128833D02*
Y3171167D01*
X2396167Y3128833D02*
X2417333D01*
X2396167Y3107667D02*
Y3128833D01*
X2353833Y3107667D02*
X2396167D01*
X2353833D02*
Y3128833D01*
X2382667D02*
X2403833D01*
X2382667D02*
Y3171167D01*
X2403833D01*
Y3192333D01*
X2446167D01*
Y3171167D02*
Y3192333D01*
Y3171167D02*
X2467333D01*
Y3128833D02*
Y3171167D01*
X2446167Y3128833D02*
X2467333D01*
X2446167Y3107667D02*
Y3128833D01*
X2403833Y3107667D02*
X2446167D01*
X2403833D02*
Y3128833D01*
X2332667Y3178833D02*
X2353833D01*
X2332667D02*
Y3221167D01*
X2353833D01*
Y3242333D01*
X2396167D01*
Y3221167D02*
Y3242333D01*
Y3221167D02*
X2417333D01*
Y3178833D02*
Y3221167D01*
X2396167Y3178833D02*
X2417333D01*
X2396167Y3157667D02*
Y3178833D01*
X2353833Y3157667D02*
X2396167D01*
X2353833D02*
Y3178833D01*
X2282667D02*
X2303833D01*
X2282667D02*
Y3221167D01*
X2303833D01*
Y3242333D01*
X2346167D01*
Y3221167D02*
Y3242333D01*
Y3221167D02*
X2367333D01*
Y3178833D02*
Y3221167D01*
X2346167Y3178833D02*
X2367333D01*
X2346167Y3157667D02*
Y3178833D01*
X2303833Y3157667D02*
X2346167D01*
X2303833D02*
Y3178833D01*
X1732667D02*
X1753833D01*
X1732667D02*
Y3221167D01*
X1753833D01*
Y3242333D01*
X1796167D01*
Y3221167D02*
Y3242333D01*
Y3221167D02*
X1817333D01*
Y3178833D02*
Y3221167D01*
X1796167Y3178833D02*
X1817333D01*
X1796167Y3157667D02*
Y3178833D01*
X1753833Y3157667D02*
X1796167D01*
X1753833D02*
Y3178833D01*
X1732667Y3078833D02*
X1753833D01*
X1732667D02*
Y3121166D01*
X1753833D01*
Y3142333D01*
X1796167D01*
Y3121166D02*
Y3142333D01*
Y3121166D02*
X1817333D01*
Y3078833D02*
Y3121166D01*
X1796167Y3078833D02*
X1817333D01*
X1796167Y3057667D02*
Y3078833D01*
X1753833Y3057667D02*
X1796167D01*
X1753833D02*
Y3078833D01*
X1682667D02*
X1703834D01*
X1682667D02*
Y3121166D01*
X1703834D01*
Y3142333D01*
X1746167D01*
Y3121166D02*
Y3142333D01*
Y3121166D02*
X1767333D01*
Y3078833D02*
Y3121166D01*
X1746167Y3078833D02*
X1767333D01*
X1746167Y3057667D02*
Y3078833D01*
X1703834Y3057667D02*
X1746167D01*
X1703834D02*
Y3078833D01*
X1632667D02*
X1653833D01*
X1632667D02*
Y3121166D01*
X1653833D01*
Y3142333D01*
X1696167D01*
Y3121166D02*
Y3142333D01*
Y3121166D02*
X1717333D01*
Y3078833D02*
Y3121166D01*
X1696167Y3078833D02*
X1717333D01*
X1696167Y3057667D02*
Y3078833D01*
X1653833Y3057667D02*
X1696167D01*
X1653833D02*
Y3078833D01*
X1632667Y3128833D02*
X1653833D01*
X1632667D02*
Y3171167D01*
X1653833D01*
Y3192333D01*
X1696167D01*
Y3171167D02*
Y3192333D01*
Y3171167D02*
X1717333D01*
Y3128833D02*
Y3171167D01*
X1696167Y3128833D02*
X1717333D01*
X1696167Y3107667D02*
Y3128833D01*
X1653833Y3107667D02*
X1696167D01*
X1653833D02*
Y3128833D01*
X1682667D02*
X1703834D01*
X1682667D02*
Y3171167D01*
X1703834D01*
Y3192333D01*
X1746167D01*
Y3171167D02*
Y3192333D01*
Y3171167D02*
X1767333D01*
Y3128833D02*
Y3171167D01*
X1746167Y3128833D02*
X1767333D01*
X1746167Y3107667D02*
Y3128833D01*
X1703834Y3107667D02*
X1746167D01*
X1703834D02*
Y3128833D01*
X1732667D02*
X1753833D01*
X1732667D02*
Y3171167D01*
X1753833D01*
Y3192333D01*
X1796167D01*
Y3171167D02*
Y3192333D01*
Y3171167D02*
X1817333D01*
Y3128833D02*
Y3171167D01*
X1796167Y3128833D02*
X1817333D01*
X1796167Y3107667D02*
Y3128833D01*
X1753833Y3107667D02*
X1796167D01*
X1753833D02*
Y3128833D01*
X1682667Y3178833D02*
X1703834D01*
X1682667D02*
Y3221167D01*
X1703834D01*
Y3242333D01*
X1746167D01*
Y3221167D02*
Y3242333D01*
Y3221167D02*
X1767333D01*
Y3178833D02*
Y3221167D01*
X1746167Y3178833D02*
X1767333D01*
X1746167Y3157667D02*
Y3178833D01*
X1703834Y3157667D02*
X1746167D01*
X1703834D02*
Y3178833D01*
X1632667D02*
X1653833D01*
X1632667D02*
Y3221167D01*
X1653833D01*
Y3242333D01*
X1696167D01*
Y3221167D02*
Y3242333D01*
Y3221167D02*
X1717333D01*
Y3178833D02*
Y3221167D01*
X1696167Y3178833D02*
X1717333D01*
X1696167Y3157667D02*
Y3178833D01*
X1653833Y3157667D02*
X1696167D01*
X1653833D02*
Y3178833D01*
X2002866Y2113235D02*
X2024033D01*
X2002866D02*
Y2155568D01*
X2024033D01*
Y2176734D01*
X2066366D01*
Y2155568D02*
Y2176734D01*
Y2155568D02*
X2087533D01*
Y2113235D02*
Y2155568D01*
X2066366Y2113235D02*
X2087533D01*
X2066366Y2092068D02*
Y2113235D01*
X2024033Y2092068D02*
X2066366D01*
X2024033D02*
Y2113235D01*
X2385167Y2116333D02*
X2406334D01*
X2385167D02*
Y2158666D01*
X2406334D01*
Y2179833D01*
X2448667D01*
Y2158666D02*
Y2179833D01*
Y2158666D02*
X2469833D01*
Y2116333D02*
Y2158666D01*
X2448667Y2116333D02*
X2469833D01*
X2448667Y2095167D02*
Y2116333D01*
X2406334Y2095167D02*
X2448667D01*
X2406334D02*
Y2116333D01*
X2107667Y4828833D02*
X2128833D01*
X2107667D02*
Y4871167D01*
X2128833D01*
Y4892333D01*
X2171167D01*
Y4871167D02*
Y4892333D01*
Y4871167D02*
X2192333D01*
Y4828833D02*
Y4871167D01*
X2171167Y4828833D02*
X2192333D01*
X2171167Y4807667D02*
Y4828833D01*
X2128833Y4807667D02*
X2171167D01*
X2128833D02*
Y4828833D01*
X2207667D02*
X2228833D01*
X2207667D02*
Y4871167D01*
X2228833D01*
Y4892333D01*
X2271167D01*
Y4871167D02*
Y4892333D01*
Y4871167D02*
X2292333D01*
Y4828833D02*
Y4871167D01*
X2271167Y4828833D02*
X2292333D01*
X2271167Y4807667D02*
Y4828833D01*
X2228833Y4807667D02*
X2271167D01*
X2228833D02*
Y4828833D01*
X1707667D02*
X1728833D01*
X1707667D02*
Y4871167D01*
X1728833D01*
Y4892333D01*
X1771167D01*
Y4871167D02*
Y4892333D01*
Y4871167D02*
X1792333D01*
Y4828833D02*
Y4871167D01*
X1771167Y4828833D02*
X1792333D01*
X1771167Y4807667D02*
Y4828833D01*
X1728833Y4807667D02*
X1771167D01*
X1728833D02*
Y4828833D01*
X1807667D02*
X1828834D01*
X1807667D02*
Y4871167D01*
X1828834D01*
Y4892333D01*
X1871167D01*
Y4871167D02*
Y4892333D01*
Y4871167D02*
X1892333D01*
Y4828833D02*
Y4871167D01*
X1871167Y4828833D02*
X1892333D01*
X1871167Y4807667D02*
Y4828833D01*
X1828834Y4807667D02*
X1871167D01*
X1828834D02*
Y4828833D01*
X1907667D02*
X1928833D01*
X1907667D02*
Y4871167D01*
X1928833D01*
Y4892333D01*
X1971166D01*
Y4871167D02*
Y4892333D01*
Y4871167D02*
X1992333D01*
Y4828833D02*
Y4871167D01*
X1971166Y4828833D02*
X1992333D01*
X1971166Y4807667D02*
Y4828833D01*
X1928833Y4807667D02*
X1971166D01*
X1928833D02*
Y4828833D01*
X2007667D02*
X2028833D01*
X2007667D02*
Y4871167D01*
X2028833D01*
Y4892333D01*
X2071167D01*
Y4871167D02*
Y4892333D01*
Y4871167D02*
X2092333D01*
Y4828833D02*
Y4871167D01*
X2071167Y4828833D02*
X2092333D01*
X2071167Y4807667D02*
Y4828833D01*
X2028833Y4807667D02*
X2071167D01*
X2028833D02*
Y4828833D01*
X3867667Y1731333D02*
X3888833D01*
X3867667D02*
Y1773667D01*
X3888833D01*
Y1794833D01*
X3931167D01*
Y1773667D02*
Y1794833D01*
Y1773667D02*
X3952333D01*
Y1731333D02*
Y1773667D01*
X3931167Y1731333D02*
X3952333D01*
X3931167Y1710167D02*
Y1731333D01*
X3888833Y1710167D02*
X3931167D01*
X3888833D02*
Y1731333D01*
X400000Y357667D02*
X442333Y442333D01*
X357667D02*
X442333D01*
X357667D02*
X400000Y357667D01*
Y4690167D02*
X442333Y4774833D01*
X357667D02*
X442333D01*
X357667D02*
X400000Y4690167D01*
X5400000Y4657667D02*
X5442333Y4742333D01*
X5357667D02*
X5442333D01*
X5357667D02*
X5400000Y4657667D01*
Y357667D02*
X5442333Y442333D01*
X5357667D02*
X5442333D01*
X5357667D02*
X5400000Y357667D01*
X603667Y1557667D02*
X688333D01*
Y1642333D01*
X603667D02*
X688333D01*
X603667Y1557667D02*
Y1642333D01*
X857667Y1557667D02*
X942333D01*
Y1642333D01*
X857667D02*
X942333D01*
X857667Y1557667D02*
Y1642333D01*
X3481167Y3886167D02*
X3523500Y3907333D01*
X3565833Y3886167D01*
X3544667Y3928500D02*
X3565833Y3886167D01*
X3544667Y3928500D02*
X3565833Y3970833D01*
X3523500Y3949666D02*
X3565833Y3970833D01*
X3481167D02*
X3523500Y3949666D01*
X3481167Y3970833D02*
X3502333Y3928500D01*
X3481167Y3886167D02*
X3502333Y3928500D01*
X3481167Y4140167D02*
X3523500Y4161333D01*
X3565833Y4140167D01*
X3544667Y4182500D02*
X3565833Y4140167D01*
X3544667Y4182500D02*
X3565833Y4224833D01*
X3523500Y4203666D02*
X3565833Y4224833D01*
X3481167D02*
X3523500Y4203666D01*
X3481167Y4224833D02*
X3502333Y4182500D01*
X3481167Y4140167D02*
X3502333Y4182500D01*
X3735167Y3886167D02*
X3777500Y3907333D01*
X3819833Y3886167D01*
X3798667Y3928500D02*
X3819833Y3886167D01*
X3798667Y3928500D02*
X3819833Y3970833D01*
X3777500Y3949666D02*
X3819833Y3970833D01*
X3735167D02*
X3777500Y3949666D01*
X3735167Y3970833D02*
X3756333Y3928500D01*
X3735167Y3886167D02*
X3756333Y3928500D01*
X3735167Y4140167D02*
X3777500Y4161333D01*
X3819833Y4140167D01*
X3798667Y4182500D02*
X3819833Y4140167D01*
X3798667Y4182500D02*
X3819833Y4224833D01*
X3777500Y4203666D02*
X3819833Y4224833D01*
X3735167D02*
X3777500Y4203666D01*
X3735167Y4224833D02*
X3756333Y4182500D01*
X3735167Y4140167D02*
X3756333Y4182500D01*
X3989167Y3886167D02*
X4031500Y3907333D01*
X4073833Y3886167D01*
X4052667Y3928500D02*
X4073833Y3886167D01*
X4052667Y3928500D02*
X4073833Y3970833D01*
X4031500Y3949666D02*
X4073833Y3970833D01*
X3989167D02*
X4031500Y3949666D01*
X3989167Y3970833D02*
X4010333Y3928500D01*
X3989167Y3886167D02*
X4010333Y3928500D01*
X3989167Y4140167D02*
X4031500Y4161333D01*
X4073833Y4140167D01*
X4052667Y4182500D02*
X4073833Y4140167D01*
X4052667Y4182500D02*
X4073833Y4224833D01*
X4031500Y4203666D02*
X4073833Y4224833D01*
X3989167D02*
X4031500Y4203666D01*
X3989167Y4224833D02*
X4010333Y4182500D01*
X3989167Y4140167D02*
X4010333Y4182500D01*
X857667Y3490167D02*
X942333D01*
Y3574833D01*
X857667D02*
X942333D01*
X857667Y3490167D02*
Y3574833D01*
X603667Y3490167D02*
X688333D01*
Y3574833D01*
X603667D02*
X688333D01*
X603667Y3490167D02*
Y3574833D01*
X2845167Y152500D02*
X2887500Y110167D01*
X2929833Y152500D01*
X2887500Y194833D02*
X2929833Y152500D01*
X2845167D02*
X2887500Y194833D01*
X2845167Y406500D02*
X2887500Y364167D01*
X2929833Y406500D01*
X2887500Y448833D02*
X2929833Y406500D01*
X2845167D02*
X2887500Y448833D01*
X2845167Y660500D02*
X2887500Y618167D01*
X2929833Y660500D01*
X2887500Y702833D02*
X2929833Y660500D01*
X2845167D02*
X2887500Y702833D01*
X2845167Y914500D02*
X2887500Y872167D01*
X2929833Y914500D01*
X2887500Y956833D02*
X2929833Y914500D01*
X2845167D02*
X2887500Y956833D01*
X2845167Y1168500D02*
X2887500Y1126167D01*
X2929833Y1168500D01*
X2887500Y1210833D02*
X2929833Y1168500D01*
X2845167D02*
X2887500Y1210833D01*
X2845167Y1422500D02*
X2887500Y1380167D01*
X2929833Y1422500D01*
X2887500Y1464833D02*
X2929833Y1422500D01*
X2845167D02*
X2887500Y1464833D01*
X2845167Y1676500D02*
X2887500Y1634167D01*
X2929833Y1676500D01*
X2887500Y1718833D02*
X2929833Y1676500D01*
X2845167D02*
X2887500Y1718833D01*
X2845167Y1930500D02*
X2887500Y1888167D01*
X2929833Y1930500D01*
X2887500Y1972833D02*
X2929833Y1930500D01*
X2845167D02*
X2887500Y1972833D01*
X2845167Y2184500D02*
X2887500Y2142167D01*
X2929833Y2184500D01*
X2887500Y2226833D02*
X2929833Y2184500D01*
X2845167D02*
X2887500Y2226833D01*
X2845167Y2438500D02*
X2887500Y2396167D01*
X2929833Y2438500D01*
X2887500Y2480833D02*
X2929833Y2438500D01*
X2845167D02*
X2887500Y2480833D01*
X2845167Y2692500D02*
X2887500Y2650167D01*
X2929833Y2692500D01*
X2887500Y2734833D02*
X2929833Y2692500D01*
X2845167D02*
X2887500Y2734833D01*
X2845167Y2946500D02*
X2887500Y2904167D01*
X2929833Y2946500D01*
X2887500Y2988833D02*
X2929833Y2946500D01*
X2845167D02*
X2887500Y2988833D01*
X2845167Y3200500D02*
X2887500Y3158167D01*
X2929833Y3200500D01*
X2887500Y3242833D02*
X2929833Y3200500D01*
X2845167D02*
X2887500Y3242833D01*
X2845167Y3454500D02*
X2887500Y3412167D01*
X2929833Y3454500D01*
X2887500Y3496833D02*
X2929833Y3454500D01*
X2845167D02*
X2887500Y3496833D01*
X2845167Y3708500D02*
X2887500Y3666167D01*
X2929833Y3708500D01*
X2887500Y3750833D02*
X2929833Y3708500D01*
X2845167D02*
X2887500Y3750833D01*
X2845167Y3962500D02*
X2887500Y3920167D01*
X2929833Y3962500D01*
X2887500Y4004833D02*
X2929833Y3962500D01*
X2845167D02*
X2887500Y4004833D01*
X2845167Y4216500D02*
X2887500Y4174167D01*
X2929833Y4216500D01*
X2887500Y4258833D02*
X2929833Y4216500D01*
X2845167D02*
X2887500Y4258833D01*
X2845167Y4470500D02*
X2887500Y4428167D01*
X2929833Y4470500D01*
X2887500Y4512833D02*
X2929833Y4470500D01*
X2845167D02*
X2887500Y4512833D01*
X2845167Y4724500D02*
X2887500Y4682167D01*
X2929833Y4724500D01*
X2887500Y4766833D02*
X2929833Y4724500D01*
X2845167D02*
X2887500Y4766833D01*
X2845167Y4978500D02*
X2887500Y4936167D01*
X2929833Y4978500D01*
X2887500Y5020833D02*
X2929833Y4978500D01*
X2845167D02*
X2887500Y5020833D01*
X4623165Y4978500D02*
X4665498Y4936167D01*
X4707832Y4978500D01*
X4665498Y5020833D02*
X4707832Y4978500D01*
X4623165D02*
X4665498Y5020833D01*
X4623165Y4724500D02*
X4665498Y4682167D01*
X4707832Y4724500D01*
X4665498Y4766833D02*
X4707832Y4724500D01*
X4623165D02*
X4665498Y4766833D01*
X4623165Y4470500D02*
X4665498Y4428167D01*
X4707832Y4470500D01*
X4665498Y4512833D02*
X4707832Y4470500D01*
X4623165D02*
X4665498Y4512833D01*
X4623165Y4216500D02*
X4665498Y4174167D01*
X4707832Y4216500D01*
X4665498Y4258833D02*
X4707832Y4216500D01*
X4623165D02*
X4665498Y4258833D01*
X4623165Y3962500D02*
X4665498Y3920167D01*
X4707832Y3962500D01*
X4665498Y4004833D02*
X4707832Y3962500D01*
X4623165D02*
X4665498Y4004833D01*
X4623165Y3708500D02*
X4665498Y3666167D01*
X4707832Y3708500D01*
X4665498Y3750833D02*
X4707832Y3708500D01*
X4623165D02*
X4665498Y3750833D01*
X4623165Y3454500D02*
X4665498Y3412167D01*
X4707832Y3454500D01*
X4665498Y3496833D02*
X4707832Y3454500D01*
X4623165D02*
X4665498Y3496833D01*
X4623165Y3200500D02*
X4665498Y3158167D01*
X4707832Y3200500D01*
X4665498Y3242833D02*
X4707832Y3200500D01*
X4623165D02*
X4665498Y3242833D01*
X4623165Y2946500D02*
X4665498Y2904167D01*
X4707832Y2946500D01*
X4665498Y2988833D02*
X4707832Y2946500D01*
X4623165D02*
X4665498Y2988833D01*
X4623165Y2692500D02*
X4665498Y2650167D01*
X4707832Y2692500D01*
X4665498Y2734833D02*
X4707832Y2692500D01*
X4623165D02*
X4665498Y2734833D01*
X4623165Y2438500D02*
X4665498Y2396167D01*
X4707832Y2438500D01*
X4665498Y2480833D02*
X4707832Y2438500D01*
X4623165D02*
X4665498Y2480833D01*
X4623165Y2184500D02*
X4665498Y2142167D01*
X4707832Y2184500D01*
X4665498Y2226833D02*
X4707832Y2184500D01*
X4623165D02*
X4665498Y2226833D01*
X4623165Y1930500D02*
X4665498Y1888167D01*
X4707832Y1930500D01*
X4665498Y1972833D02*
X4707832Y1930500D01*
X4623165D02*
X4665498Y1972833D01*
X4623165Y1676500D02*
X4665498Y1634167D01*
X4707832Y1676500D01*
X4665498Y1718833D02*
X4707832Y1676500D01*
X4623165D02*
X4665498Y1718833D01*
X4623165Y1422500D02*
X4665498Y1380167D01*
X4707832Y1422500D01*
X4665498Y1464833D02*
X4707832Y1422500D01*
X4623165D02*
X4665498Y1464833D01*
X4623165Y1168500D02*
X4665498Y1126167D01*
X4707832Y1168500D01*
X4665498Y1210833D02*
X4707832Y1168500D01*
X4623165D02*
X4665498Y1210833D01*
X4623165Y914500D02*
X4665498Y872167D01*
X4707832Y914500D01*
X4665498Y956833D02*
X4707832Y914500D01*
X4623165D02*
X4665498Y956833D01*
X4623165Y660500D02*
X4665498Y618167D01*
X4707832Y660500D01*
X4665498Y702833D02*
X4707832Y660500D01*
X4623165D02*
X4665498Y702833D01*
X4623165Y406500D02*
X4665498Y364167D01*
X4707832Y406500D01*
X4665498Y448833D02*
X4707832Y406500D01*
X4623165D02*
X4665498Y448833D01*
X4623165Y152500D02*
X4665498Y110167D01*
X4707832Y152500D01*
X4665498Y194833D02*
X4707832Y152500D01*
X4623165D02*
X4665498Y194833D01*
X2612333Y2163333D02*
X2633500Y2142167D01*
X2591167Y2163333D02*
X2612333D01*
X2591167D02*
X2612333Y2184500D01*
X2591167Y2205667D02*
X2612333Y2184500D01*
X2591167Y2205667D02*
X2612333D01*
X2633500Y2226833D01*
X2654667Y2205667D01*
X2675833D01*
X2654667Y2184500D02*
X2675833Y2205667D01*
X2654667Y2184500D02*
X2675833Y2163333D01*
X2654667D02*
X2675833D01*
X2633500Y2142167D02*
X2654667Y2163333D01*
X2612333Y1909333D02*
X2633500Y1888167D01*
X2591167Y1909333D02*
X2612333D01*
X2591167D02*
X2612333Y1930500D01*
X2591167Y1951667D02*
X2612333Y1930500D01*
X2591167Y1951667D02*
X2612333D01*
X2633500Y1972833D01*
X2654667Y1951667D01*
X2675833D01*
X2654667Y1930500D02*
X2675833Y1951667D01*
X2654667Y1930500D02*
X2675833Y1909333D01*
X2654667D02*
X2675833D01*
X2633500Y1888167D02*
X2654667Y1909333D01*
X2612333Y1655333D02*
X2633500Y1634167D01*
X2591167Y1655333D02*
X2612333D01*
X2591167D02*
X2612333Y1676500D01*
X2591167Y1697667D02*
X2612333Y1676500D01*
X2591167Y1697667D02*
X2612333D01*
X2633500Y1718833D01*
X2654667Y1697667D01*
X2675833D01*
X2654667Y1676500D02*
X2675833Y1697667D01*
X2654667Y1676500D02*
X2675833Y1655333D01*
X2654667D02*
X2675833D01*
X2633500Y1634167D02*
X2654667Y1655333D01*
X2612333Y1401333D02*
X2633500Y1380167D01*
X2591167Y1401333D02*
X2612333D01*
X2591167D02*
X2612333Y1422500D01*
X2591167Y1443667D02*
X2612333Y1422500D01*
X2591167Y1443667D02*
X2612333D01*
X2633500Y1464833D01*
X2654667Y1443667D01*
X2675833D01*
X2654667Y1422500D02*
X2675833Y1443667D01*
X2654667Y1422500D02*
X2675833Y1401333D01*
X2654667D02*
X2675833D01*
X2633500Y1380167D02*
X2654667Y1401333D01*
X2612333Y1147333D02*
X2633500Y1126167D01*
X2591167Y1147333D02*
X2612333D01*
X2591167D02*
X2612333Y1168500D01*
X2591167Y1189667D02*
X2612333Y1168500D01*
X2591167Y1189667D02*
X2612333D01*
X2633500Y1210833D01*
X2654667Y1189667D01*
X2675833D01*
X2654667Y1168500D02*
X2675833Y1189667D01*
X2654667Y1168500D02*
X2675833Y1147333D01*
X2654667D02*
X2675833D01*
X2633500Y1126167D02*
X2654667Y1147333D01*
X2612333Y893333D02*
X2633500Y872167D01*
X2591167Y893333D02*
X2612333D01*
X2591167D02*
X2612333Y914500D01*
X2591167Y935667D02*
X2612333Y914500D01*
X2591167Y935667D02*
X2612333D01*
X2633500Y956833D01*
X2654667Y935667D01*
X2675833D01*
X2654667Y914500D02*
X2675833Y935667D01*
X2654667Y914500D02*
X2675833Y893333D01*
X2654667D02*
X2675833D01*
X2633500Y872167D02*
X2654667Y893333D01*
X2612333Y639333D02*
X2633500Y618167D01*
X2591167Y639333D02*
X2612333D01*
X2591167D02*
X2612333Y660500D01*
X2591167Y681667D02*
X2612333Y660500D01*
X2591167Y681667D02*
X2612333D01*
X2633500Y702833D01*
X2654667Y681667D01*
X2675833D01*
X2654667Y660500D02*
X2675833Y681667D01*
X2654667Y660500D02*
X2675833Y639333D01*
X2654667D02*
X2675833D01*
X2633500Y618167D02*
X2654667Y639333D01*
X2612333Y385333D02*
X2633500Y364167D01*
X2591167Y385333D02*
X2612333D01*
X2591167D02*
X2612333Y406500D01*
X2591167Y427667D02*
X2612333Y406500D01*
X2591167Y427667D02*
X2612333D01*
X2633500Y448833D01*
X2654667Y427667D01*
X2675833D01*
X2654667Y406500D02*
X2675833Y427667D01*
X2654667Y406500D02*
X2675833Y385333D01*
X2654667D02*
X2675833D01*
X2633500Y364167D02*
X2654667Y385333D01*
X4898333Y2163333D02*
X4919500Y2142167D01*
X4877167Y2163333D02*
X4898333D01*
X4877167D02*
X4898333Y2184500D01*
X4877167Y2205667D02*
X4898333Y2184500D01*
X4877167Y2205667D02*
X4898333D01*
X4919500Y2226833D01*
X4940667Y2205667D01*
X4961833D01*
X4940667Y2184500D02*
X4961833Y2205667D01*
X4940667Y2184500D02*
X4961833Y2163333D01*
X4940667D02*
X4961833D01*
X4919500Y2142167D02*
X4940667Y2163333D01*
X4898333Y1909333D02*
X4919500Y1888167D01*
X4877167Y1909333D02*
X4898333D01*
X4877167D02*
X4898333Y1930500D01*
X4877167Y1951667D02*
X4898333Y1930500D01*
X4877167Y1951667D02*
X4898333D01*
X4919500Y1972833D01*
X4940667Y1951667D01*
X4961833D01*
X4940667Y1930500D02*
X4961833Y1951667D01*
X4940667Y1930500D02*
X4961833Y1909333D01*
X4940667D02*
X4961833D01*
X4919500Y1888167D02*
X4940667Y1909333D01*
X4898333Y1655333D02*
X4919500Y1634167D01*
X4877167Y1655333D02*
X4898333D01*
X4877167D02*
X4898333Y1676500D01*
X4877167Y1697667D02*
X4898333Y1676500D01*
X4877167Y1697667D02*
X4898333D01*
X4919500Y1718833D01*
X4940667Y1697667D01*
X4961833D01*
X4940667Y1676500D02*
X4961833Y1697667D01*
X4940667Y1676500D02*
X4961833Y1655333D01*
X4940667D02*
X4961833D01*
X4919500Y1634167D02*
X4940667Y1655333D01*
X4898333Y1401333D02*
X4919500Y1380167D01*
X4877167Y1401333D02*
X4898333D01*
X4877167D02*
X4898333Y1422500D01*
X4877167Y1443667D02*
X4898333Y1422500D01*
X4877167Y1443667D02*
X4898333D01*
X4919500Y1464833D01*
X4940667Y1443667D01*
X4961833D01*
X4940667Y1422500D02*
X4961833Y1443667D01*
X4940667Y1422500D02*
X4961833Y1401333D01*
X4940667D02*
X4961833D01*
X4919500Y1380167D02*
X4940667Y1401333D01*
X4898333Y1147333D02*
X4919500Y1126167D01*
X4877167Y1147333D02*
X4898333D01*
X4877167D02*
X4898333Y1168500D01*
X4877167Y1189667D02*
X4898333Y1168500D01*
X4877167Y1189667D02*
X4898333D01*
X4919500Y1210833D01*
X4940667Y1189667D01*
X4961833D01*
X4940667Y1168500D02*
X4961833Y1189667D01*
X4940667Y1168500D02*
X4961833Y1147333D01*
X4940667D02*
X4961833D01*
X4919500Y1126167D02*
X4940667Y1147333D01*
X4898333Y893333D02*
X4919500Y872167D01*
X4877167Y893333D02*
X4898333D01*
X4877167D02*
X4898333Y914500D01*
X4877167Y935667D02*
X4898333Y914500D01*
X4877167Y935667D02*
X4898333D01*
X4919500Y956833D01*
X4940667Y935667D01*
X4961833D01*
X4940667Y914500D02*
X4961833Y935667D01*
X4940667Y914500D02*
X4961833Y893333D01*
X4940667D02*
X4961833D01*
X4919500Y872167D02*
X4940667Y893333D01*
X4898333Y639333D02*
X4919500Y618167D01*
X4877167Y639333D02*
X4898333D01*
X4877167D02*
X4898333Y660500D01*
X4877167Y681667D02*
X4898333Y660500D01*
X4877167Y681667D02*
X4898333D01*
X4919500Y702833D01*
X4940667Y681667D01*
X4961833D01*
X4940667Y660500D02*
X4961833Y681667D01*
X4940667Y660500D02*
X4961833Y639333D01*
X4940667D02*
X4961833D01*
X4919500Y618167D02*
X4940667Y639333D01*
X4898333Y385333D02*
X4919500Y364167D01*
X4877167Y385333D02*
X4898333D01*
X4877167D02*
X4898333Y406500D01*
X4877167Y427667D02*
X4898333Y406500D01*
X4877167Y427667D02*
X4898333D01*
X4919500Y448833D01*
X4940667Y427667D01*
X4961833D01*
X4940667Y406500D02*
X4961833Y427667D01*
X4940667Y406500D02*
X4961833Y385333D01*
X4940667D02*
X4961833D01*
X4919500Y364167D02*
X4940667Y385333D01*
X1802667Y333037D02*
Y354204D01*
X1823834Y375370D01*
X1802667Y396537D02*
X1823834Y375370D01*
X1802667Y396537D02*
Y417703D01*
X1823834D01*
X1845000Y396537D01*
X1866167Y417703D01*
X1887333D01*
Y396537D02*
Y417703D01*
X1866167Y375370D02*
X1887333Y396537D01*
X1866167Y375370D02*
X1887333Y354204D01*
Y333037D02*
Y354204D01*
X1866167Y333037D02*
X1887333D01*
X1845000Y354204D02*
X1866167Y333037D01*
X1823834D02*
X1845000Y354204D01*
X1802667Y333037D02*
X1823834D01*
X1302667D02*
Y354204D01*
X1323834Y375370D01*
X1302667Y396537D02*
X1323834Y375370D01*
X1302667Y396537D02*
Y417703D01*
X1323834D01*
X1345000Y396537D01*
X1366167Y417703D01*
X1387333D01*
Y396537D02*
Y417703D01*
X1366167Y375370D02*
X1387333Y396537D01*
X1366167Y375370D02*
X1387333Y354204D01*
Y333037D02*
Y354204D01*
X1366167Y333037D02*
X1387333D01*
X1345000Y354204D02*
X1366167Y333037D01*
X1323834D02*
X1345000Y354204D01*
X1302667Y333037D02*
X1323834D01*
X1957667Y3928833D02*
X1978833D01*
X1957667D02*
Y3971167D01*
X1978833D01*
Y3992333D01*
X2021167D01*
Y3971167D02*
Y3992333D01*
Y3971167D02*
X2042333D01*
Y3928833D02*
Y3971167D01*
X2021167Y3928833D02*
X2042333D01*
X2021167Y3907667D02*
Y3928833D01*
X1978833Y3907667D02*
X2021167D01*
X1978833D02*
Y3928833D01*
X1857667D02*
X1878833D01*
X1857667D02*
Y3971167D01*
X1878833D01*
Y3992333D01*
X1921167D01*
Y3971167D02*
Y3992333D01*
Y3971167D02*
X1942333D01*
Y3928833D02*
Y3971167D01*
X1921167Y3928833D02*
X1942333D01*
X1921167Y3907667D02*
Y3928833D01*
X1878833Y3907667D02*
X1921167D01*
X1878833D02*
Y3928833D01*
X2057667D02*
X2078834D01*
X2057667D02*
Y3971167D01*
X2078834D01*
Y3992333D01*
X2121167D01*
Y3971167D02*
Y3992333D01*
Y3971167D02*
X2142333D01*
Y3928833D02*
Y3971167D01*
X2121167Y3928833D02*
X2142333D01*
X2121167Y3907667D02*
Y3928833D01*
X2078834Y3907667D02*
X2121167D01*
X2078834D02*
Y3928833D01*
X1857667Y3828833D02*
X1878833D01*
X1857667D02*
Y3871167D01*
X1878833D01*
Y3892333D01*
X1921167D01*
Y3871167D02*
Y3892333D01*
Y3871167D02*
X1942333D01*
Y3828833D02*
Y3871167D01*
X1921167Y3828833D02*
X1942333D01*
X1921167Y3807667D02*
Y3828833D01*
X1878833Y3807667D02*
X1921167D01*
X1878833D02*
Y3828833D01*
X1957667D02*
X1978833D01*
X1957667D02*
Y3871167D01*
X1978833D01*
Y3892333D01*
X2021167D01*
Y3871167D02*
Y3892333D01*
Y3871167D02*
X2042333D01*
Y3828833D02*
Y3871167D01*
X2021167Y3828833D02*
X2042333D01*
X2021167Y3807667D02*
Y3828833D01*
X1978833Y3807667D02*
X2021167D01*
X1978833D02*
Y3828833D01*
X2057667D02*
X2078834D01*
X2057667D02*
Y3871167D01*
X2078834D01*
Y3892333D01*
X2121167D01*
Y3871167D02*
Y3892333D01*
Y3871167D02*
X2142333D01*
Y3828833D02*
Y3871167D01*
X2121167Y3828833D02*
X2142333D01*
X2121167Y3807667D02*
Y3828833D01*
X2078834Y3807667D02*
X2121167D01*
X2078834D02*
Y3828833D01*
X2057667Y4028833D02*
X2078834D01*
X2057667D02*
Y4071167D01*
X2078834D01*
Y4092333D01*
X2121167D01*
Y4071167D02*
Y4092333D01*
Y4071167D02*
X2142333D01*
Y4028833D02*
Y4071167D01*
X2121167Y4028833D02*
X2142333D01*
X2121167Y4007667D02*
Y4028833D01*
X2078834Y4007667D02*
X2121167D01*
X2078834D02*
Y4028833D01*
X1957667D02*
X1978833D01*
X1957667D02*
Y4071167D01*
X1978833D01*
Y4092333D01*
X2021167D01*
Y4071167D02*
Y4092333D01*
Y4071167D02*
X2042333D01*
Y4028833D02*
Y4071167D01*
X2021167Y4028833D02*
X2042333D01*
X2021167Y4007667D02*
Y4028833D01*
X1978833Y4007667D02*
X2021167D01*
X1978833D02*
Y4028833D01*
X1857667D02*
X1878833D01*
X1857667D02*
Y4071167D01*
X1878833D01*
Y4092333D01*
X1921167D01*
Y4071167D02*
Y4092333D01*
Y4071167D02*
X1942333D01*
Y4028833D02*
Y4071167D01*
X1921167Y4028833D02*
X1942333D01*
X1921167Y4007667D02*
Y4028833D01*
X1878833Y4007667D02*
X1921167D01*
X1878833D02*
Y4028833D01*
X1957667Y3728833D02*
X1978833D01*
X1957667D02*
Y3771166D01*
X1978833D01*
Y3792333D01*
X2021167D01*
Y3771166D02*
Y3792333D01*
Y3771166D02*
X2042333D01*
Y3728833D02*
Y3771166D01*
X2021167Y3728833D02*
X2042333D01*
X2021167Y3707667D02*
Y3728833D01*
X1978833Y3707667D02*
X2021167D01*
X1978833D02*
Y3728833D01*
X1957667Y4128833D02*
X1978833D01*
X1957667D02*
Y4171167D01*
X1978833D01*
Y4192333D01*
X2021167D01*
Y4171167D02*
Y4192333D01*
Y4171167D02*
X2042333D01*
Y4128833D02*
Y4171167D01*
X2021167Y4128833D02*
X2042333D01*
X2021167Y4107667D02*
Y4128833D01*
X1978833Y4107667D02*
X2021167D01*
X1978833D02*
Y4128833D01*
D82*
X30859006Y3718504D02*
Y3535684D01*
Y3627094D01*
X30980887D01*
Y3718504D01*
Y3535684D01*
X31072299D02*
X31133240D01*
X31163708Y3566154D01*
Y3627094D01*
X31133240Y3657564D01*
X31072299D01*
X31041827Y3627094D01*
Y3566154D01*
X31072299Y3535684D01*
X31224649D02*
X31285590D01*
X31255118D01*
Y3718504D01*
X31224649D01*
X31468411Y3535684D02*
X31407471D01*
X31376999Y3566154D01*
Y3627094D01*
X31407471Y3657564D01*
X31468411D01*
X31498880Y3627094D01*
Y3596624D01*
X31376999D01*
X31742642Y3718504D02*
X31864523D01*
X31803583D01*
Y3535684D01*
X31955933D02*
X32016873D01*
X32047342Y3566154D01*
Y3627094D01*
X32016873Y3657564D01*
X31955933D01*
X31925461Y3627094D01*
Y3566154D01*
X31955933Y3535684D01*
X32108282D02*
X32169223D01*
X32138754D01*
Y3718504D01*
X32108282D01*
X32352045Y3535684D02*
X32291104D01*
X32260635Y3566154D01*
Y3627094D01*
X32291104Y3657564D01*
X32352045D01*
X32382513Y3627094D01*
Y3596624D01*
X32260635D01*
X32443454Y3657564D02*
Y3535684D01*
Y3596624D01*
X32473926Y3627094D01*
X32504395Y3657564D01*
X32534866D01*
X32656744D02*
X32717685D01*
X32748157Y3627094D01*
Y3535684D01*
X32656744D01*
X32626276Y3566154D01*
X32656744Y3596624D01*
X32748157D01*
X32809097Y3535684D02*
Y3657564D01*
X32900507D01*
X32930978Y3627094D01*
Y3535684D01*
X33113797Y3657564D02*
X33022388D01*
X32991916Y3627094D01*
Y3566154D01*
X33022388Y3535684D01*
X33113797D01*
X33266147D02*
X33205209D01*
X33174738Y3566154D01*
Y3627094D01*
X33205209Y3657564D01*
X33266147D01*
X33296619Y3627094D01*
Y3596624D01*
X33174738D01*
X33601321Y3535684D02*
X33540378Y3596624D01*
Y3657564D01*
X33601321Y3718504D01*
X33692731Y3627094D02*
X33814612D01*
X33875552Y3535684D02*
X33936490Y3596624D01*
Y3657564D01*
X33875552Y3718504D01*
X27471643D02*
Y3535684D01*
Y3627094D01*
X27593524D01*
Y3718504D01*
Y3535684D01*
X27684933D02*
X27745874D01*
X27776346Y3566154D01*
Y3627094D01*
X27745874Y3657564D01*
X27684933D01*
X27654465Y3627094D01*
Y3566154D01*
X27684933Y3535684D01*
X27837286D02*
X27898224D01*
X27867755D01*
Y3718504D01*
X27837286D01*
X28081046Y3535684D02*
X28020105D01*
X27989636Y3566154D01*
Y3627094D01*
X28020105Y3657564D01*
X28081046D01*
X28111517Y3627094D01*
Y3596624D01*
X27989636D01*
X28355276Y3718504D02*
X28477158D01*
X28416217D01*
Y3535684D01*
X28568567D02*
X28629510D01*
X28659979Y3566154D01*
Y3627094D01*
X28629510Y3657564D01*
X28568567D01*
X28538098Y3627094D01*
Y3566154D01*
X28568567Y3535684D01*
X28720920D02*
X28781860D01*
X28751389D01*
Y3718504D01*
X28720920D01*
X28964679Y3535684D02*
X28903741D01*
X28873270Y3566154D01*
Y3627094D01*
X28903741Y3657564D01*
X28964679D01*
X28995151Y3627094D01*
Y3596624D01*
X28873270D01*
X29056091Y3657564D02*
Y3535684D01*
Y3596624D01*
X29086560Y3627094D01*
X29117032Y3657564D01*
X29147501D01*
X29269382D02*
X29330322D01*
X29360791Y3627094D01*
Y3535684D01*
X29269382D01*
X29238913Y3566154D01*
X29269382Y3596624D01*
X29360791D01*
X29421732Y3535684D02*
Y3657564D01*
X29513144D01*
X29543613Y3627094D01*
Y3535684D01*
X29726434Y3657564D02*
X29635022D01*
X29604553Y3627094D01*
Y3566154D01*
X29635022Y3535684D01*
X29726434D01*
X29878784D02*
X29817844D01*
X29787375Y3566154D01*
Y3627094D01*
X29817844Y3657564D01*
X29878784D01*
X29909256Y3627094D01*
Y3596624D01*
X29787375D01*
X30213956Y3535684D02*
X30153015Y3596624D01*
Y3657564D01*
X30213956Y3718504D01*
X30305365Y3627094D02*
X30427246D01*
X30366306Y3688034D02*
Y3566154D01*
X30488187Y3535684D02*
X30549127Y3596624D01*
Y3657564D01*
X30488187Y3718504D01*
X25303085D02*
Y3535684D01*
X25394496D01*
X25424966Y3566154D01*
Y3688034D01*
X25394496Y3718504D01*
X25303085D01*
X25577316Y3535684D02*
X25516376D01*
X25485905Y3566154D01*
Y3627094D01*
X25516376Y3657564D01*
X25577316D01*
X25607785Y3627094D01*
Y3596624D01*
X25485905D01*
X25668726Y3535684D02*
X25760138D01*
X25790607Y3566154D01*
X25760138Y3596624D01*
X25699197D01*
X25668726Y3627094D01*
X25699197Y3657564D01*
X25790607D01*
X25973428D02*
X25882019D01*
X25851547Y3627094D01*
Y3566154D01*
X25882019Y3535684D01*
X25973428D01*
X26034369Y3657564D02*
Y3535684D01*
Y3596624D01*
X26064838Y3627094D01*
X26095309Y3657564D01*
X26125778D01*
X26217188Y3535684D02*
X26278128D01*
X26247659D01*
Y3657564D01*
X26217188D01*
X26369540Y3474743D02*
Y3657564D01*
X26460950D01*
X26491422Y3627094D01*
Y3566154D01*
X26460950Y3535684D01*
X26369540D01*
X26582831Y3688034D02*
Y3657564D01*
X26552362D01*
X26613300D01*
X26582831D01*
Y3566154D01*
X26613300Y3535684D01*
X26704712D02*
X26765652D01*
X26735181D01*
Y3657564D01*
X26704712D01*
X26887531Y3535684D02*
X26948474D01*
X26978943Y3566154D01*
Y3627094D01*
X26948474Y3657564D01*
X26887531D01*
X26857062Y3627094D01*
Y3566154D01*
X26887531Y3535684D01*
X27039883D02*
Y3657564D01*
X27131293D01*
X27161765Y3627094D01*
Y3535684D01*
X23119301Y3718504D02*
X23241182D01*
X23180241D01*
Y3535684D01*
X23393532D02*
X23332591D01*
X23302122Y3566154D01*
Y3627094D01*
X23332591Y3657564D01*
X23393532D01*
X23424002Y3627094D01*
Y3596624D01*
X23302122D01*
X23484943Y3535684D02*
Y3657564D01*
X23515413D01*
X23545883Y3627094D01*
Y3535684D01*
Y3627094D01*
X23576353Y3657564D01*
X23606824Y3627094D01*
Y3535684D01*
X23667763Y3474743D02*
Y3657564D01*
X23759174D01*
X23789644Y3627094D01*
Y3566154D01*
X23759174Y3535684D01*
X23667763D01*
X23850584D02*
X23911523D01*
X23881055D01*
Y3718504D01*
X23850584D01*
X24033405Y3657564D02*
X24094347D01*
X24124815Y3627094D01*
Y3535684D01*
X24033405D01*
X24002934Y3566154D01*
X24033405Y3596624D01*
X24124815D01*
X24216226Y3688034D02*
Y3657564D01*
X24185756D01*
X24246696D01*
X24216226D01*
Y3566154D01*
X24246696Y3535684D01*
X24429517D02*
X24368578D01*
X24338107Y3566154D01*
Y3627094D01*
X24368578Y3657564D01*
X24429517D01*
X24459987Y3627094D01*
Y3596624D01*
X24338107D01*
X21224974Y3535684D02*
Y3718504D01*
X21316383D01*
X21346854Y3688034D01*
Y3627094D01*
X21316383Y3596624D01*
X21224974D01*
X21438264Y3657564D02*
X21499205D01*
X21529675Y3627094D01*
Y3535684D01*
X21438264D01*
X21407796Y3566154D01*
X21438264Y3596624D01*
X21529675D01*
X21712495Y3718504D02*
Y3535684D01*
X21621086D01*
X21590614Y3566154D01*
Y3627094D01*
X21621086Y3657564D01*
X21712495D01*
X22078139Y3688034D02*
X22047668Y3718504D01*
X21986726D01*
X21956258Y3688034D01*
Y3657564D01*
X21986726Y3627094D01*
X22047668D01*
X22078139Y3596624D01*
Y3566154D01*
X22047668Y3535684D01*
X21986726D01*
X21956258Y3566154D01*
X22139078Y3718504D02*
Y3535684D01*
Y3627094D01*
X22169548Y3657564D01*
X22230489D01*
X22260959Y3627094D01*
Y3535684D01*
X22352370Y3657564D02*
X22413309D01*
X22443779Y3627094D01*
Y3535684D01*
X22352370D01*
X22321899Y3566154D01*
X22352370Y3596624D01*
X22443779D01*
X22504720Y3474743D02*
Y3657564D01*
X22596130D01*
X22626601Y3627094D01*
Y3566154D01*
X22596130Y3535684D01*
X22504720D01*
X22778951D02*
X22718010D01*
X22687540Y3566154D01*
Y3627094D01*
X22718010Y3657564D01*
X22778951D01*
X22809421Y3627094D01*
Y3596624D01*
X22687540D01*
X19726758Y3718504D02*
Y3596624D01*
X19787698Y3535684D01*
X19848639Y3596624D01*
Y3718504D01*
X19909579Y3535684D02*
X19970518D01*
X19940050D01*
Y3657564D01*
X19909579D01*
X20092400D02*
X20153340D01*
X20183810Y3627094D01*
Y3535684D01*
X20092400D01*
X20061929Y3566154D01*
X20092400Y3596624D01*
X20183810D01*
X20244751Y3535684D02*
X20366631Y3657564D01*
X20427573Y3535684D02*
Y3718504D01*
X20518982D01*
X20549452Y3688034D01*
Y3627094D01*
X20518982Y3596624D01*
X20427573D01*
X20640862Y3657564D02*
X20701804D01*
X20732272Y3627094D01*
Y3535684D01*
X20640862D01*
X20610393Y3566154D01*
X20640862Y3596624D01*
X20732272D01*
X20915094Y3718504D02*
Y3535684D01*
X20823683D01*
X20793213Y3566154D01*
Y3627094D01*
X20823683Y3657564D01*
X20915094D01*
X15917900Y3718504D02*
Y3535684D01*
X16009311D01*
X16039781Y3566154D01*
Y3688034D01*
X16009311Y3718504D01*
X15917900D01*
X16100722Y3657564D02*
Y3535684D01*
Y3596624D01*
X16131190Y3627094D01*
X16161661Y3657564D01*
X16192131D01*
X16283542Y3535684D02*
X16344482D01*
X16314012D01*
Y3657564D01*
X16283542D01*
X16435892Y3535684D02*
X16496832D01*
X16466364D01*
Y3718504D01*
X16435892D01*
X16588243Y3535684D02*
X16649184D01*
X16618713D01*
Y3718504D01*
X16588243D01*
X16923415D02*
Y3535684D01*
X17045296D01*
X17136707Y3657564D02*
X17197646D01*
X17228116Y3627094D01*
Y3535684D01*
X17136707D01*
X17106236Y3566154D01*
X17136707Y3596624D01*
X17228116D01*
X17289056Y3657564D02*
Y3566154D01*
X17319527Y3535684D01*
X17410938D01*
Y3505213D01*
X17380467Y3474743D01*
X17349997D01*
X17410938Y3535684D02*
Y3657564D01*
X17563287Y3535684D02*
X17502347D01*
X17471877Y3566154D01*
Y3627094D01*
X17502347Y3657564D01*
X17563287D01*
X17593758Y3627094D01*
Y3596624D01*
X17471877D01*
X17654698Y3657564D02*
Y3535684D01*
Y3596624D01*
X17685168Y3627094D01*
X17715639Y3657564D01*
X17746109D01*
X18020340Y3535684D02*
Y3718504D01*
X18111749D01*
X18142220Y3688034D01*
Y3627094D01*
X18111749Y3596624D01*
X18020340D01*
X18233630Y3657564D02*
X18294571D01*
X18325041Y3627094D01*
Y3535684D01*
X18233630D01*
X18203160Y3566154D01*
X18233630Y3596624D01*
X18325041D01*
X18385982Y3535684D02*
X18446921D01*
X18416451D01*
Y3657564D01*
X18385982D01*
X18538332D02*
Y3535684D01*
Y3596624D01*
X18568802Y3627094D01*
X18599272Y3657564D01*
X18629742D01*
X14054044Y3718504D02*
Y3535684D01*
Y3627094D01*
X14175925D01*
Y3718504D01*
Y3535684D01*
X14267334D02*
X14328275D01*
X14358743Y3566154D01*
Y3627094D01*
X14328275Y3657564D01*
X14267334D01*
X14236864Y3627094D01*
Y3566154D01*
X14267334Y3535684D01*
X14419685D02*
X14480624D01*
X14450156D01*
Y3718504D01*
X14419685D01*
X14663446Y3535684D02*
X14602505D01*
X14572035Y3566154D01*
Y3627094D01*
X14602505Y3657564D01*
X14663446D01*
X14693916Y3627094D01*
Y3596624D01*
X14572035D01*
X14937677Y3718504D02*
X15059558D01*
X14998618D01*
Y3535684D01*
X15120499Y3657564D02*
Y3566154D01*
X15150967Y3535684D01*
X15242378D01*
Y3505213D01*
X15211908Y3474743D01*
X15181438D01*
X15242378Y3535684D02*
Y3657564D01*
X15303319Y3474743D02*
Y3657564D01*
X15394730D01*
X15425198Y3627094D01*
Y3566154D01*
X15394730Y3535684D01*
X15303319D01*
X15577550D02*
X15516611D01*
X15486139Y3566154D01*
Y3627094D01*
X15516611Y3657564D01*
X15577550D01*
X15608020Y3627094D01*
Y3596624D01*
X15486139D01*
X12769118Y3535684D02*
Y3718504D01*
X12860529D01*
X12890999Y3688034D01*
Y3627094D01*
X12860529Y3596624D01*
X12769118D01*
X12951939Y3535684D02*
X13012878D01*
X12982410D01*
Y3718504D01*
X12951939D01*
X13134760Y3657564D02*
X13195702D01*
X13226170Y3627094D01*
Y3535684D01*
X13134760D01*
X13104289Y3566154D01*
X13134760Y3596624D01*
X13226170D01*
X13317581Y3688034D02*
Y3657564D01*
X13287111D01*
X13348051D01*
X13317581D01*
Y3566154D01*
X13348051Y3535684D01*
X13530872D02*
X13469933D01*
X13439462Y3566154D01*
Y3627094D01*
X13469933Y3657564D01*
X13530872D01*
X13561342Y3627094D01*
Y3596624D01*
X13439462D01*
X13744164Y3718504D02*
Y3535684D01*
X13652753D01*
X13622282Y3566154D01*
Y3627094D01*
X13652753Y3657564D01*
X13744164D01*
X9874365Y3718504D02*
Y3535684D01*
Y3627094D01*
X9996246D01*
Y3718504D01*
Y3535684D01*
X10087656D02*
X10148596D01*
X10179067Y3566154D01*
Y3627094D01*
X10148596Y3657564D01*
X10087656D01*
X10057186Y3627094D01*
Y3566154D01*
X10087656Y3535684D01*
X10240007D02*
X10300947D01*
X10270477D01*
Y3718504D01*
X10240007D01*
X10483768Y3535684D02*
X10422828D01*
X10392357Y3566154D01*
Y3627094D01*
X10422828Y3657564D01*
X10483768D01*
X10514238Y3627094D01*
Y3596624D01*
X10392357D01*
X10879880Y3688034D02*
X10849410Y3718504D01*
X10788469D01*
X10757999Y3688034D01*
Y3657564D01*
X10788469Y3627094D01*
X10849410D01*
X10879880Y3596624D01*
Y3566154D01*
X10849410Y3535684D01*
X10788469D01*
X10757999Y3566154D01*
X10940820Y3535684D02*
X11001760D01*
X10971290D01*
Y3657564D01*
X10940820D01*
X11093171D02*
X11215051D01*
X11093171Y3535684D01*
X11215051D01*
X11367402D02*
X11306462D01*
X11275991Y3566154D01*
Y3627094D01*
X11306462Y3657564D01*
X11367402D01*
X11397872Y3627094D01*
Y3596624D01*
X11275991D01*
X8523432Y3688034D02*
X8492962Y3718504D01*
X8432021D01*
X8401551Y3688034D01*
Y3566154D01*
X8432021Y3535684D01*
X8492962D01*
X8523432Y3566154D01*
X8614842Y3535684D02*
X8675783D01*
X8706253Y3566154D01*
Y3627094D01*
X8675783Y3657564D01*
X8614842D01*
X8584372Y3627094D01*
Y3566154D01*
X8614842Y3535684D01*
X8767193Y3657564D02*
Y3566154D01*
X8797663Y3535684D01*
X8889074D01*
Y3657564D01*
X8950014Y3535684D02*
Y3657564D01*
X9041424D01*
X9071894Y3627094D01*
Y3535684D01*
X9163305Y3688034D02*
Y3657564D01*
X9132835D01*
X9193775D01*
X9163305D01*
Y3566154D01*
X9193775Y3535684D01*
X7238508Y3688034D02*
X7208038Y3718504D01*
X7147097D01*
X7116627Y3688034D01*
Y3657564D01*
X7147097Y3627094D01*
X7208038D01*
X7238508Y3596624D01*
Y3566154D01*
X7208038Y3535684D01*
X7147097D01*
X7116627Y3566154D01*
X7299448Y3657564D02*
Y3566154D01*
X7329918Y3535684D01*
X7421329D01*
Y3505213D01*
X7390858Y3474743D01*
X7360388D01*
X7421329Y3535684D02*
Y3657564D01*
X7482269Y3535684D02*
Y3657564D01*
X7512739D01*
X7543209Y3627094D01*
Y3535684D01*
Y3627094D01*
X7573679Y3657564D01*
X7604149Y3627094D01*
Y3535684D01*
X7665090Y3718504D02*
Y3535684D01*
X7756500D01*
X7786970Y3566154D01*
Y3596624D01*
Y3627094D01*
X7756500Y3657564D01*
X7665090D01*
X7878380Y3535684D02*
X7939321D01*
X7969791Y3566154D01*
Y3627094D01*
X7939321Y3657564D01*
X7878380D01*
X7847910Y3627094D01*
Y3566154D01*
X7878380Y3535684D01*
X8030731D02*
X8091671D01*
X8061201D01*
Y3718504D01*
X8030731D01*
%TF.MD5,175f316b896a776a8d39b61d88d39c09*%
M02*
