%TF.GenerationSoftware,Altium Limited,Altium Designer,23.5.1 (21)*%
G04 Layer_Color=8421504*
%FSLAX45Y45*%
%MOMM*%
%TF.SameCoordinates,251D8D79-0CC1-4DB5-8A6B-B6CDDAA58204*%
%TF.FilePolarity,Positive*%
%TF.FileFunction,Paste,Top*%
%TF.Part,Single*%
G01*
G75*
%TA.AperFunction,SMDPad,CuDef*%
%ADD10R,0.95814X0.91213*%
%ADD11R,0.81280X1.60020*%
%ADD12R,2.20980X3.09880*%
%ADD13R,0.95872X0.91213*%
%ADD14R,0.91213X0.95872*%
%ADD15R,0.91213X0.95814*%
%ADD16R,0.83820X0.60960*%
%ADD17R,0.25400X0.60960*%
%ADD18R,0.46634X1.20802*%
D10*
X5079801Y2800000D02*
D03*
X5220200D02*
D03*
X5079801Y2600000D02*
D03*
X5220200D02*
D03*
X5079801Y2400000D02*
D03*
X5220200D02*
D03*
D11*
X2187500Y4590600D02*
D03*
X2062500D02*
D03*
X1937500D02*
D03*
X1812500D02*
D03*
D12*
X2442500Y4880600D02*
D03*
X1557500D02*
D03*
D13*
X3672671Y1650000D02*
D03*
X3527329D02*
D03*
D14*
X4000000Y1322671D02*
D03*
Y1177329D02*
D03*
D15*
X3200000Y1420200D02*
D03*
Y1279801D02*
D03*
Y870199D02*
D03*
Y729800D02*
D03*
X4300000Y1529801D02*
D03*
Y1670200D02*
D03*
D16*
X5680000Y2431250D02*
D03*
Y2521250D02*
D03*
Y2611250D02*
D03*
Y2701250D02*
D03*
D17*
X4300000Y1175070D02*
D03*
X4200000D02*
D03*
Y1324930D02*
D03*
X4250000D02*
D03*
X4300000D02*
D03*
D18*
X3473000Y705830D02*
D03*
X3727000D02*
D03*
Y1394170D02*
D03*
X3600000D02*
D03*
X3473000D02*
D03*
%TF.MD5,494035f8125f91ba1fcf02263cf34884*%
M02*
